M48
; DRILL file {KiCad 8.0.1-8.0.1-1~ubuntu22.04.1} date 2024-03-31T13:35:37+0100
; FORMAT={-:-/ absolute / metric / decimal}
; #@! TF.CreationDate,2024-03-31T13:35:37+01:00
; #@! TF.GenerationSoftware,Kicad,Pcbnew,8.0.1-8.0.1-1~ubuntu22.04.1
; #@! TF.FileFunction,Plated,1,2,PTH
FMAT,2
METRIC
; #@! TA.AperFunction,Plated,PTH,ComponentDrill
T1C1.000
; #@! TA.AperFunction,Plated,PTH,ComponentDrill
T2C2.000
%
G90
G05
T1
X157.26Y-99.94
X157.26Y-102.48
X157.26Y-105.02
X157.26Y-107.56
X157.26Y-110.1
X157.26Y-112.64
X157.26Y-115.18
X157.26Y-117.72
X157.26Y-120.26
X157.26Y-122.8
X157.26Y-125.34
X157.26Y-127.88
X157.26Y-130.42
X157.26Y-132.96
X157.26Y-135.5
X172.5Y-99.94
X172.5Y-102.48
X172.5Y-105.02
X172.5Y-107.56
X172.5Y-110.1
X172.5Y-112.64
X172.5Y-115.18
X172.5Y-117.72
X172.5Y-120.26
X172.5Y-122.8
X172.5Y-125.34
X172.5Y-127.88
X172.5Y-130.42
X172.5Y-132.96
X172.5Y-135.5
T2
X90.0Y-60.0
X90.0Y-130.0
X95.0Y-55.0
X95.0Y-135.0
X108.0Y-60.0
X108.0Y-130.0
X113.0Y-55.0
X113.0Y-135.0
X126.0Y-60.0
X126.0Y-130.0
X131.0Y-55.0
X131.0Y-135.0
X144.0Y-60.0
X144.0Y-130.0
X149.0Y-55.0
X149.0Y-135.0
X180.5Y-60.0
X180.5Y-130.0
X185.5Y-55.0
X185.5Y-135.0
X198.5Y-60.0
X198.5Y-130.0
X203.5Y-55.0
X203.5Y-135.0
M30
