%TF.GenerationSoftware,KiCad,Pcbnew,8.0.1-8.0.1-1~ubuntu22.04.1*%
%TF.CreationDate,2024-03-31T12:30:33+01:00*%
%TF.ProjectId,Arduino_Mixer,41726475-696e-46f5-9f4d-697865722e6b,1.0*%
%TF.SameCoordinates,Original*%
%TF.FileFunction,Drillmap*%
%TF.FilePolarity,Positive*%
%FSLAX45Y45*%
G04 Gerber Fmt 4.5, Leading zero omitted, Abs format (unit mm)*
G04 Created by KiCad (PCBNEW 8.0.1-8.0.1-1~ubuntu22.04.1) date 2024-03-31 12:30:33*
%MOMM*%
%LPD*%
G01*
G04 APERTURE LIST*
%ADD10C,0.100000*%
%ADD11C,0.200000*%
%ADD12C,0.320000*%
G04 APERTURE END LIST*
D10*
X9136100Y-6527800D02*
X9359900Y-6527800D01*
X9359900Y-12471400D01*
X9136100Y-12471400D01*
X9136100Y-6527800D01*
X10939500Y-6527800D02*
X11163300Y-6527800D01*
X11163300Y-12471400D01*
X10939500Y-12471400D01*
X10939500Y-6527800D01*
X12742900Y-6527800D02*
X12966700Y-6527800D01*
X12966700Y-12471400D01*
X12742900Y-12471400D01*
X12742900Y-6527800D01*
X18191200Y-6527800D02*
X18415000Y-6527800D01*
X18415000Y-12471400D01*
X18191200Y-12471400D01*
X18191200Y-6527800D01*
X19989800Y-6527800D02*
X20213600Y-6527800D01*
X20213600Y-12471400D01*
X19989800Y-12471400D01*
X19989800Y-6527800D01*
X7518400Y-4546600D02*
X21767800Y-4546600D01*
X21767800Y-14478000D01*
X7518400Y-14478000D01*
X7518400Y-4546600D01*
X14533600Y-6527800D02*
X14757400Y-6527800D01*
X14757400Y-12471400D01*
X14533600Y-12471400D01*
X14533600Y-6527800D01*
D11*
D12*
X7840000Y-4840000D02*
X8160000Y-5160000D01*
X8160000Y-4840000D02*
X7840000Y-5160000D01*
X7840000Y-13840000D02*
X8160000Y-14160000D01*
X8160000Y-13840000D02*
X7840000Y-14160000D01*
X21140000Y-4840000D02*
X21460000Y-5160000D01*
X21460000Y-4840000D02*
X21140000Y-5160000D01*
X21140000Y-13840000D02*
X21460000Y-14160000D01*
X21460000Y-13840000D02*
X21140000Y-14160000D01*
D11*
X7774177Y-14794484D02*
X7774177Y-14594484D01*
X7774177Y-14594484D02*
X7821796Y-14594484D01*
X7821796Y-14594484D02*
X7850367Y-14604008D01*
X7850367Y-14604008D02*
X7869415Y-14623055D01*
X7869415Y-14623055D02*
X7878939Y-14642103D01*
X7878939Y-14642103D02*
X7888462Y-14680198D01*
X7888462Y-14680198D02*
X7888462Y-14708769D01*
X7888462Y-14708769D02*
X7878939Y-14746865D01*
X7878939Y-14746865D02*
X7869415Y-14765912D01*
X7869415Y-14765912D02*
X7850367Y-14784960D01*
X7850367Y-14784960D02*
X7821796Y-14794484D01*
X7821796Y-14794484D02*
X7774177Y-14794484D01*
X7974177Y-14794484D02*
X7974177Y-14661150D01*
X7974177Y-14699246D02*
X7983701Y-14680198D01*
X7983701Y-14680198D02*
X7993224Y-14670674D01*
X7993224Y-14670674D02*
X8012272Y-14661150D01*
X8012272Y-14661150D02*
X8031320Y-14661150D01*
X8097986Y-14794484D02*
X8097986Y-14661150D01*
X8097986Y-14594484D02*
X8088462Y-14604008D01*
X8088462Y-14604008D02*
X8097986Y-14613531D01*
X8097986Y-14613531D02*
X8107510Y-14604008D01*
X8107510Y-14604008D02*
X8097986Y-14594484D01*
X8097986Y-14594484D02*
X8097986Y-14613531D01*
X8221796Y-14794484D02*
X8202748Y-14784960D01*
X8202748Y-14784960D02*
X8193224Y-14765912D01*
X8193224Y-14765912D02*
X8193224Y-14594484D01*
X8326558Y-14794484D02*
X8307510Y-14784960D01*
X8307510Y-14784960D02*
X8297986Y-14765912D01*
X8297986Y-14765912D02*
X8297986Y-14594484D01*
X8555129Y-14794484D02*
X8555129Y-14594484D01*
X8555129Y-14594484D02*
X8621796Y-14737341D01*
X8621796Y-14737341D02*
X8688463Y-14594484D01*
X8688463Y-14594484D02*
X8688463Y-14794484D01*
X8869415Y-14794484D02*
X8869415Y-14689722D01*
X8869415Y-14689722D02*
X8859891Y-14670674D01*
X8859891Y-14670674D02*
X8840844Y-14661150D01*
X8840844Y-14661150D02*
X8802748Y-14661150D01*
X8802748Y-14661150D02*
X8783701Y-14670674D01*
X8869415Y-14784960D02*
X8850367Y-14794484D01*
X8850367Y-14794484D02*
X8802748Y-14794484D01*
X8802748Y-14794484D02*
X8783701Y-14784960D01*
X8783701Y-14784960D02*
X8774177Y-14765912D01*
X8774177Y-14765912D02*
X8774177Y-14746865D01*
X8774177Y-14746865D02*
X8783701Y-14727817D01*
X8783701Y-14727817D02*
X8802748Y-14718293D01*
X8802748Y-14718293D02*
X8850367Y-14718293D01*
X8850367Y-14718293D02*
X8869415Y-14708769D01*
X8964653Y-14661150D02*
X8964653Y-14861150D01*
X8964653Y-14670674D02*
X8983701Y-14661150D01*
X8983701Y-14661150D02*
X9021796Y-14661150D01*
X9021796Y-14661150D02*
X9040844Y-14670674D01*
X9040844Y-14670674D02*
X9050367Y-14680198D01*
X9050367Y-14680198D02*
X9059891Y-14699246D01*
X9059891Y-14699246D02*
X9059891Y-14756388D01*
X9059891Y-14756388D02*
X9050367Y-14775436D01*
X9050367Y-14775436D02*
X9040844Y-14784960D01*
X9040844Y-14784960D02*
X9021796Y-14794484D01*
X9021796Y-14794484D02*
X8983701Y-14794484D01*
X8983701Y-14794484D02*
X8964653Y-14784960D01*
X9145605Y-14775436D02*
X9155129Y-14784960D01*
X9155129Y-14784960D02*
X9145605Y-14794484D01*
X9145605Y-14794484D02*
X9136082Y-14784960D01*
X9136082Y-14784960D02*
X9145605Y-14775436D01*
X9145605Y-14775436D02*
X9145605Y-14794484D01*
X9145605Y-14670674D02*
X9155129Y-14680198D01*
X9155129Y-14680198D02*
X9145605Y-14689722D01*
X9145605Y-14689722D02*
X9136082Y-14680198D01*
X9136082Y-14680198D02*
X9145605Y-14670674D01*
X9145605Y-14670674D02*
X9145605Y-14689722D01*
X7313400Y-15023000D02*
X7513400Y-15223000D01*
X7513400Y-15023000D02*
X7313400Y-15223000D01*
X7755129Y-15014484D02*
X7878939Y-15014484D01*
X7878939Y-15014484D02*
X7812272Y-15090674D01*
X7812272Y-15090674D02*
X7840843Y-15090674D01*
X7840843Y-15090674D02*
X7859891Y-15100198D01*
X7859891Y-15100198D02*
X7869415Y-15109722D01*
X7869415Y-15109722D02*
X7878939Y-15128769D01*
X7878939Y-15128769D02*
X7878939Y-15176388D01*
X7878939Y-15176388D02*
X7869415Y-15195436D01*
X7869415Y-15195436D02*
X7859891Y-15204960D01*
X7859891Y-15204960D02*
X7840843Y-15214484D01*
X7840843Y-15214484D02*
X7783701Y-15214484D01*
X7783701Y-15214484D02*
X7764653Y-15204960D01*
X7764653Y-15204960D02*
X7755129Y-15195436D01*
X7964653Y-15195436D02*
X7974177Y-15204960D01*
X7974177Y-15204960D02*
X7964653Y-15214484D01*
X7964653Y-15214484D02*
X7955129Y-15204960D01*
X7955129Y-15204960D02*
X7964653Y-15195436D01*
X7964653Y-15195436D02*
X7964653Y-15214484D01*
X8050367Y-15033531D02*
X8059891Y-15024008D01*
X8059891Y-15024008D02*
X8078939Y-15014484D01*
X8078939Y-15014484D02*
X8126558Y-15014484D01*
X8126558Y-15014484D02*
X8145605Y-15024008D01*
X8145605Y-15024008D02*
X8155129Y-15033531D01*
X8155129Y-15033531D02*
X8164653Y-15052579D01*
X8164653Y-15052579D02*
X8164653Y-15071627D01*
X8164653Y-15071627D02*
X8155129Y-15100198D01*
X8155129Y-15100198D02*
X8040843Y-15214484D01*
X8040843Y-15214484D02*
X8164653Y-15214484D01*
X8288462Y-15014484D02*
X8307510Y-15014484D01*
X8307510Y-15014484D02*
X8326558Y-15024008D01*
X8326558Y-15024008D02*
X8336082Y-15033531D01*
X8336082Y-15033531D02*
X8345605Y-15052579D01*
X8345605Y-15052579D02*
X8355129Y-15090674D01*
X8355129Y-15090674D02*
X8355129Y-15138293D01*
X8355129Y-15138293D02*
X8345605Y-15176388D01*
X8345605Y-15176388D02*
X8336082Y-15195436D01*
X8336082Y-15195436D02*
X8326558Y-15204960D01*
X8326558Y-15204960D02*
X8307510Y-15214484D01*
X8307510Y-15214484D02*
X8288462Y-15214484D01*
X8288462Y-15214484D02*
X8269415Y-15204960D01*
X8269415Y-15204960D02*
X8259891Y-15195436D01*
X8259891Y-15195436D02*
X8250367Y-15176388D01*
X8250367Y-15176388D02*
X8240843Y-15138293D01*
X8240843Y-15138293D02*
X8240843Y-15090674D01*
X8240843Y-15090674D02*
X8250367Y-15052579D01*
X8250367Y-15052579D02*
X8259891Y-15033531D01*
X8259891Y-15033531D02*
X8269415Y-15024008D01*
X8269415Y-15024008D02*
X8288462Y-15014484D01*
X8478939Y-15014484D02*
X8497986Y-15014484D01*
X8497986Y-15014484D02*
X8517034Y-15024008D01*
X8517034Y-15024008D02*
X8526558Y-15033531D01*
X8526558Y-15033531D02*
X8536082Y-15052579D01*
X8536082Y-15052579D02*
X8545605Y-15090674D01*
X8545605Y-15090674D02*
X8545605Y-15138293D01*
X8545605Y-15138293D02*
X8536082Y-15176388D01*
X8536082Y-15176388D02*
X8526558Y-15195436D01*
X8526558Y-15195436D02*
X8517034Y-15204960D01*
X8517034Y-15204960D02*
X8497986Y-15214484D01*
X8497986Y-15214484D02*
X8478939Y-15214484D01*
X8478939Y-15214484D02*
X8459891Y-15204960D01*
X8459891Y-15204960D02*
X8450367Y-15195436D01*
X8450367Y-15195436D02*
X8440844Y-15176388D01*
X8440844Y-15176388D02*
X8431320Y-15138293D01*
X8431320Y-15138293D02*
X8431320Y-15090674D01*
X8431320Y-15090674D02*
X8440844Y-15052579D01*
X8440844Y-15052579D02*
X8450367Y-15033531D01*
X8450367Y-15033531D02*
X8459891Y-15024008D01*
X8459891Y-15024008D02*
X8478939Y-15014484D01*
X8631320Y-15214484D02*
X8631320Y-15081150D01*
X8631320Y-15100198D02*
X8640844Y-15090674D01*
X8640844Y-15090674D02*
X8659891Y-15081150D01*
X8659891Y-15081150D02*
X8688463Y-15081150D01*
X8688463Y-15081150D02*
X8707510Y-15090674D01*
X8707510Y-15090674D02*
X8717034Y-15109722D01*
X8717034Y-15109722D02*
X8717034Y-15214484D01*
X8717034Y-15109722D02*
X8726558Y-15090674D01*
X8726558Y-15090674D02*
X8745605Y-15081150D01*
X8745605Y-15081150D02*
X8774177Y-15081150D01*
X8774177Y-15081150D02*
X8793225Y-15090674D01*
X8793225Y-15090674D02*
X8802748Y-15109722D01*
X8802748Y-15109722D02*
X8802748Y-15214484D01*
X8897986Y-15214484D02*
X8897986Y-15081150D01*
X8897986Y-15100198D02*
X8907510Y-15090674D01*
X8907510Y-15090674D02*
X8926558Y-15081150D01*
X8926558Y-15081150D02*
X8955129Y-15081150D01*
X8955129Y-15081150D02*
X8974177Y-15090674D01*
X8974177Y-15090674D02*
X8983701Y-15109722D01*
X8983701Y-15109722D02*
X8983701Y-15214484D01*
X8983701Y-15109722D02*
X8993225Y-15090674D01*
X8993225Y-15090674D02*
X9012272Y-15081150D01*
X9012272Y-15081150D02*
X9040844Y-15081150D01*
X9040844Y-15081150D02*
X9059891Y-15090674D01*
X9059891Y-15090674D02*
X9069415Y-15109722D01*
X9069415Y-15109722D02*
X9069415Y-15214484D01*
X9459891Y-15004960D02*
X9288463Y-15262103D01*
X9717034Y-15014484D02*
X9736082Y-15014484D01*
X9736082Y-15014484D02*
X9755129Y-15024008D01*
X9755129Y-15024008D02*
X9764653Y-15033531D01*
X9764653Y-15033531D02*
X9774177Y-15052579D01*
X9774177Y-15052579D02*
X9783701Y-15090674D01*
X9783701Y-15090674D02*
X9783701Y-15138293D01*
X9783701Y-15138293D02*
X9774177Y-15176388D01*
X9774177Y-15176388D02*
X9764653Y-15195436D01*
X9764653Y-15195436D02*
X9755129Y-15204960D01*
X9755129Y-15204960D02*
X9736082Y-15214484D01*
X9736082Y-15214484D02*
X9717034Y-15214484D01*
X9717034Y-15214484D02*
X9697987Y-15204960D01*
X9697987Y-15204960D02*
X9688463Y-15195436D01*
X9688463Y-15195436D02*
X9678939Y-15176388D01*
X9678939Y-15176388D02*
X9669415Y-15138293D01*
X9669415Y-15138293D02*
X9669415Y-15090674D01*
X9669415Y-15090674D02*
X9678939Y-15052579D01*
X9678939Y-15052579D02*
X9688463Y-15033531D01*
X9688463Y-15033531D02*
X9697987Y-15024008D01*
X9697987Y-15024008D02*
X9717034Y-15014484D01*
X9869415Y-15195436D02*
X9878939Y-15204960D01*
X9878939Y-15204960D02*
X9869415Y-15214484D01*
X9869415Y-15214484D02*
X9859891Y-15204960D01*
X9859891Y-15204960D02*
X9869415Y-15195436D01*
X9869415Y-15195436D02*
X9869415Y-15214484D01*
X10069415Y-15214484D02*
X9955129Y-15214484D01*
X10012272Y-15214484D02*
X10012272Y-15014484D01*
X10012272Y-15014484D02*
X9993225Y-15043055D01*
X9993225Y-15043055D02*
X9974177Y-15062103D01*
X9974177Y-15062103D02*
X9955129Y-15071627D01*
X10145606Y-15033531D02*
X10155129Y-15024008D01*
X10155129Y-15024008D02*
X10174177Y-15014484D01*
X10174177Y-15014484D02*
X10221796Y-15014484D01*
X10221796Y-15014484D02*
X10240844Y-15024008D01*
X10240844Y-15024008D02*
X10250368Y-15033531D01*
X10250368Y-15033531D02*
X10259891Y-15052579D01*
X10259891Y-15052579D02*
X10259891Y-15071627D01*
X10259891Y-15071627D02*
X10250368Y-15100198D01*
X10250368Y-15100198D02*
X10136082Y-15214484D01*
X10136082Y-15214484D02*
X10259891Y-15214484D01*
X10431320Y-15014484D02*
X10393225Y-15014484D01*
X10393225Y-15014484D02*
X10374177Y-15024008D01*
X10374177Y-15024008D02*
X10364653Y-15033531D01*
X10364653Y-15033531D02*
X10345606Y-15062103D01*
X10345606Y-15062103D02*
X10336082Y-15100198D01*
X10336082Y-15100198D02*
X10336082Y-15176388D01*
X10336082Y-15176388D02*
X10345606Y-15195436D01*
X10345606Y-15195436D02*
X10355129Y-15204960D01*
X10355129Y-15204960D02*
X10374177Y-15214484D01*
X10374177Y-15214484D02*
X10412272Y-15214484D01*
X10412272Y-15214484D02*
X10431320Y-15204960D01*
X10431320Y-15204960D02*
X10440844Y-15195436D01*
X10440844Y-15195436D02*
X10450368Y-15176388D01*
X10450368Y-15176388D02*
X10450368Y-15128769D01*
X10450368Y-15128769D02*
X10440844Y-15109722D01*
X10440844Y-15109722D02*
X10431320Y-15100198D01*
X10431320Y-15100198D02*
X10412272Y-15090674D01*
X10412272Y-15090674D02*
X10374177Y-15090674D01*
X10374177Y-15090674D02*
X10355129Y-15100198D01*
X10355129Y-15100198D02*
X10345606Y-15109722D01*
X10345606Y-15109722D02*
X10336082Y-15128769D01*
X10574177Y-15014484D02*
X10593225Y-15014484D01*
X10593225Y-15014484D02*
X10612272Y-15024008D01*
X10612272Y-15024008D02*
X10621796Y-15033531D01*
X10621796Y-15033531D02*
X10631320Y-15052579D01*
X10631320Y-15052579D02*
X10640844Y-15090674D01*
X10640844Y-15090674D02*
X10640844Y-15138293D01*
X10640844Y-15138293D02*
X10631320Y-15176388D01*
X10631320Y-15176388D02*
X10621796Y-15195436D01*
X10621796Y-15195436D02*
X10612272Y-15204960D01*
X10612272Y-15204960D02*
X10593225Y-15214484D01*
X10593225Y-15214484D02*
X10574177Y-15214484D01*
X10574177Y-15214484D02*
X10555129Y-15204960D01*
X10555129Y-15204960D02*
X10545606Y-15195436D01*
X10545606Y-15195436D02*
X10536082Y-15176388D01*
X10536082Y-15176388D02*
X10526558Y-15138293D01*
X10526558Y-15138293D02*
X10526558Y-15090674D01*
X10526558Y-15090674D02*
X10536082Y-15052579D01*
X10536082Y-15052579D02*
X10545606Y-15033531D01*
X10545606Y-15033531D02*
X10555129Y-15024008D01*
X10555129Y-15024008D02*
X10574177Y-15014484D01*
X10717034Y-15014484D02*
X10717034Y-15052579D01*
X10793225Y-15014484D02*
X10793225Y-15052579D01*
X11088463Y-15290674D02*
X11078939Y-15281150D01*
X11078939Y-15281150D02*
X11059891Y-15252579D01*
X11059891Y-15252579D02*
X11050368Y-15233531D01*
X11050368Y-15233531D02*
X11040844Y-15204960D01*
X11040844Y-15204960D02*
X11031320Y-15157341D01*
X11031320Y-15157341D02*
X11031320Y-15119246D01*
X11031320Y-15119246D02*
X11040844Y-15071627D01*
X11040844Y-15071627D02*
X11050368Y-15043055D01*
X11050368Y-15043055D02*
X11059891Y-15024008D01*
X11059891Y-15024008D02*
X11078939Y-14995436D01*
X11078939Y-14995436D02*
X11088463Y-14985912D01*
X11250368Y-15081150D02*
X11250368Y-15214484D01*
X11202748Y-15004960D02*
X11155130Y-15147817D01*
X11155130Y-15147817D02*
X11278939Y-15147817D01*
X11507510Y-15214484D02*
X11507510Y-15014484D01*
X11593225Y-15214484D02*
X11593225Y-15109722D01*
X11593225Y-15109722D02*
X11583701Y-15090674D01*
X11583701Y-15090674D02*
X11564653Y-15081150D01*
X11564653Y-15081150D02*
X11536082Y-15081150D01*
X11536082Y-15081150D02*
X11517034Y-15090674D01*
X11517034Y-15090674D02*
X11507510Y-15100198D01*
X11717034Y-15214484D02*
X11697987Y-15204960D01*
X11697987Y-15204960D02*
X11688463Y-15195436D01*
X11688463Y-15195436D02*
X11678939Y-15176388D01*
X11678939Y-15176388D02*
X11678939Y-15119246D01*
X11678939Y-15119246D02*
X11688463Y-15100198D01*
X11688463Y-15100198D02*
X11697987Y-15090674D01*
X11697987Y-15090674D02*
X11717034Y-15081150D01*
X11717034Y-15081150D02*
X11745606Y-15081150D01*
X11745606Y-15081150D02*
X11764653Y-15090674D01*
X11764653Y-15090674D02*
X11774177Y-15100198D01*
X11774177Y-15100198D02*
X11783701Y-15119246D01*
X11783701Y-15119246D02*
X11783701Y-15176388D01*
X11783701Y-15176388D02*
X11774177Y-15195436D01*
X11774177Y-15195436D02*
X11764653Y-15204960D01*
X11764653Y-15204960D02*
X11745606Y-15214484D01*
X11745606Y-15214484D02*
X11717034Y-15214484D01*
X11897987Y-15214484D02*
X11878939Y-15204960D01*
X11878939Y-15204960D02*
X11869415Y-15185912D01*
X11869415Y-15185912D02*
X11869415Y-15014484D01*
X12050368Y-15204960D02*
X12031320Y-15214484D01*
X12031320Y-15214484D02*
X11993225Y-15214484D01*
X11993225Y-15214484D02*
X11974177Y-15204960D01*
X11974177Y-15204960D02*
X11964653Y-15185912D01*
X11964653Y-15185912D02*
X11964653Y-15109722D01*
X11964653Y-15109722D02*
X11974177Y-15090674D01*
X11974177Y-15090674D02*
X11993225Y-15081150D01*
X11993225Y-15081150D02*
X12031320Y-15081150D01*
X12031320Y-15081150D02*
X12050368Y-15090674D01*
X12050368Y-15090674D02*
X12059891Y-15109722D01*
X12059891Y-15109722D02*
X12059891Y-15128769D01*
X12059891Y-15128769D02*
X11964653Y-15147817D01*
X12136082Y-15204960D02*
X12155130Y-15214484D01*
X12155130Y-15214484D02*
X12193225Y-15214484D01*
X12193225Y-15214484D02*
X12212272Y-15204960D01*
X12212272Y-15204960D02*
X12221796Y-15185912D01*
X12221796Y-15185912D02*
X12221796Y-15176388D01*
X12221796Y-15176388D02*
X12212272Y-15157341D01*
X12212272Y-15157341D02*
X12193225Y-15147817D01*
X12193225Y-15147817D02*
X12164653Y-15147817D01*
X12164653Y-15147817D02*
X12145606Y-15138293D01*
X12145606Y-15138293D02*
X12136082Y-15119246D01*
X12136082Y-15119246D02*
X12136082Y-15109722D01*
X12136082Y-15109722D02*
X12145606Y-15090674D01*
X12145606Y-15090674D02*
X12164653Y-15081150D01*
X12164653Y-15081150D02*
X12193225Y-15081150D01*
X12193225Y-15081150D02*
X12212272Y-15090674D01*
X12288463Y-15290674D02*
X12297987Y-15281150D01*
X12297987Y-15281150D02*
X12317034Y-15252579D01*
X12317034Y-15252579D02*
X12326558Y-15233531D01*
X12326558Y-15233531D02*
X12336082Y-15204960D01*
X12336082Y-15204960D02*
X12345606Y-15157341D01*
X12345606Y-15157341D02*
X12345606Y-15119246D01*
X12345606Y-15119246D02*
X12336082Y-15071627D01*
X12336082Y-15071627D02*
X12326558Y-15043055D01*
X12326558Y-15043055D02*
X12317034Y-15024008D01*
X12317034Y-15024008D02*
X12297987Y-14995436D01*
X12297987Y-14995436D02*
X12288463Y-14985912D01*
X12650368Y-15290674D02*
X12640844Y-15281150D01*
X12640844Y-15281150D02*
X12621796Y-15252579D01*
X12621796Y-15252579D02*
X12612272Y-15233531D01*
X12612272Y-15233531D02*
X12602749Y-15204960D01*
X12602749Y-15204960D02*
X12593225Y-15157341D01*
X12593225Y-15157341D02*
X12593225Y-15119246D01*
X12593225Y-15119246D02*
X12602749Y-15071627D01*
X12602749Y-15071627D02*
X12612272Y-15043055D01*
X12612272Y-15043055D02*
X12621796Y-15024008D01*
X12621796Y-15024008D02*
X12640844Y-14995436D01*
X12640844Y-14995436D02*
X12650368Y-14985912D01*
X12726558Y-15081150D02*
X12726558Y-15214484D01*
X12726558Y-15100198D02*
X12736082Y-15090674D01*
X12736082Y-15090674D02*
X12755130Y-15081150D01*
X12755130Y-15081150D02*
X12783701Y-15081150D01*
X12783701Y-15081150D02*
X12802749Y-15090674D01*
X12802749Y-15090674D02*
X12812272Y-15109722D01*
X12812272Y-15109722D02*
X12812272Y-15214484D01*
X12936082Y-15214484D02*
X12917034Y-15204960D01*
X12917034Y-15204960D02*
X12907511Y-15195436D01*
X12907511Y-15195436D02*
X12897987Y-15176388D01*
X12897987Y-15176388D02*
X12897987Y-15119246D01*
X12897987Y-15119246D02*
X12907511Y-15100198D01*
X12907511Y-15100198D02*
X12917034Y-15090674D01*
X12917034Y-15090674D02*
X12936082Y-15081150D01*
X12936082Y-15081150D02*
X12964653Y-15081150D01*
X12964653Y-15081150D02*
X12983701Y-15090674D01*
X12983701Y-15090674D02*
X12993225Y-15100198D01*
X12993225Y-15100198D02*
X13002749Y-15119246D01*
X13002749Y-15119246D02*
X13002749Y-15176388D01*
X13002749Y-15176388D02*
X12993225Y-15195436D01*
X12993225Y-15195436D02*
X12983701Y-15204960D01*
X12983701Y-15204960D02*
X12964653Y-15214484D01*
X12964653Y-15214484D02*
X12936082Y-15214484D01*
X13059892Y-15081150D02*
X13136082Y-15081150D01*
X13088463Y-15014484D02*
X13088463Y-15185912D01*
X13088463Y-15185912D02*
X13097987Y-15204960D01*
X13097987Y-15204960D02*
X13117034Y-15214484D01*
X13117034Y-15214484D02*
X13136082Y-15214484D01*
X13355130Y-15081150D02*
X13355130Y-15281150D01*
X13355130Y-15090674D02*
X13374177Y-15081150D01*
X13374177Y-15081150D02*
X13412273Y-15081150D01*
X13412273Y-15081150D02*
X13431320Y-15090674D01*
X13431320Y-15090674D02*
X13440844Y-15100198D01*
X13440844Y-15100198D02*
X13450368Y-15119246D01*
X13450368Y-15119246D02*
X13450368Y-15176388D01*
X13450368Y-15176388D02*
X13440844Y-15195436D01*
X13440844Y-15195436D02*
X13431320Y-15204960D01*
X13431320Y-15204960D02*
X13412273Y-15214484D01*
X13412273Y-15214484D02*
X13374177Y-15214484D01*
X13374177Y-15214484D02*
X13355130Y-15204960D01*
X13564653Y-15214484D02*
X13545606Y-15204960D01*
X13545606Y-15204960D02*
X13536082Y-15185912D01*
X13536082Y-15185912D02*
X13536082Y-15014484D01*
X13726558Y-15214484D02*
X13726558Y-15109722D01*
X13726558Y-15109722D02*
X13717034Y-15090674D01*
X13717034Y-15090674D02*
X13697987Y-15081150D01*
X13697987Y-15081150D02*
X13659892Y-15081150D01*
X13659892Y-15081150D02*
X13640844Y-15090674D01*
X13726558Y-15204960D02*
X13707511Y-15214484D01*
X13707511Y-15214484D02*
X13659892Y-15214484D01*
X13659892Y-15214484D02*
X13640844Y-15204960D01*
X13640844Y-15204960D02*
X13631320Y-15185912D01*
X13631320Y-15185912D02*
X13631320Y-15166865D01*
X13631320Y-15166865D02*
X13640844Y-15147817D01*
X13640844Y-15147817D02*
X13659892Y-15138293D01*
X13659892Y-15138293D02*
X13707511Y-15138293D01*
X13707511Y-15138293D02*
X13726558Y-15128769D01*
X13793225Y-15081150D02*
X13869415Y-15081150D01*
X13821796Y-15014484D02*
X13821796Y-15185912D01*
X13821796Y-15185912D02*
X13831320Y-15204960D01*
X13831320Y-15204960D02*
X13850368Y-15214484D01*
X13850368Y-15214484D02*
X13869415Y-15214484D01*
X14012273Y-15204960D02*
X13993225Y-15214484D01*
X13993225Y-15214484D02*
X13955130Y-15214484D01*
X13955130Y-15214484D02*
X13936082Y-15204960D01*
X13936082Y-15204960D02*
X13926558Y-15185912D01*
X13926558Y-15185912D02*
X13926558Y-15109722D01*
X13926558Y-15109722D02*
X13936082Y-15090674D01*
X13936082Y-15090674D02*
X13955130Y-15081150D01*
X13955130Y-15081150D02*
X13993225Y-15081150D01*
X13993225Y-15081150D02*
X14012273Y-15090674D01*
X14012273Y-15090674D02*
X14021796Y-15109722D01*
X14021796Y-15109722D02*
X14021796Y-15128769D01*
X14021796Y-15128769D02*
X13926558Y-15147817D01*
X14193225Y-15214484D02*
X14193225Y-15014484D01*
X14193225Y-15204960D02*
X14174177Y-15214484D01*
X14174177Y-15214484D02*
X14136082Y-15214484D01*
X14136082Y-15214484D02*
X14117034Y-15204960D01*
X14117034Y-15204960D02*
X14107511Y-15195436D01*
X14107511Y-15195436D02*
X14097987Y-15176388D01*
X14097987Y-15176388D02*
X14097987Y-15119246D01*
X14097987Y-15119246D02*
X14107511Y-15100198D01*
X14107511Y-15100198D02*
X14117034Y-15090674D01*
X14117034Y-15090674D02*
X14136082Y-15081150D01*
X14136082Y-15081150D02*
X14174177Y-15081150D01*
X14174177Y-15081150D02*
X14193225Y-15090674D01*
X14269415Y-15290674D02*
X14278939Y-15281150D01*
X14278939Y-15281150D02*
X14297987Y-15252579D01*
X14297987Y-15252579D02*
X14307511Y-15233531D01*
X14307511Y-15233531D02*
X14317034Y-15204960D01*
X14317034Y-15204960D02*
X14326558Y-15157341D01*
X14326558Y-15157341D02*
X14326558Y-15119246D01*
X14326558Y-15119246D02*
X14317034Y-15071627D01*
X14317034Y-15071627D02*
X14307511Y-15043055D01*
X14307511Y-15043055D02*
X14297987Y-15024008D01*
X14297987Y-15024008D02*
X14278939Y-14995436D01*
X14278939Y-14995436D02*
X14269415Y-14985912D01*
M02*
