G04 #@! TF.GenerationSoftware,KiCad,Pcbnew,8.0.1-8.0.1-1~ubuntu22.04.1*
G04 #@! TF.CreationDate,2024-03-31T12:40:03+01:00*
G04 #@! TF.ProjectId,Arduino_Mixer,41726475-696e-46f5-9f4d-697865722e6b,1.0*
G04 #@! TF.SameCoordinates,Original*
G04 #@! TF.FileFunction,Legend,Bot*
G04 #@! TF.FilePolarity,Positive*
%FSLAX46Y46*%
G04 Gerber Fmt 4.6, Leading zero omitted, Abs format (unit mm)*
G04 Created by KiCad (PCBNEW 8.0.1-8.0.1-1~ubuntu22.04.1) date 2024-03-31 12:40:03*
%MOMM*%
%LPD*%
G01*
G04 APERTURE LIST*
%ADD10C,0.150000*%
%ADD11C,0.120000*%
%ADD12C,3.200000*%
%ADD13R,1.600000X1.600000*%
%ADD14O,1.600000X1.600000*%
%ADD15C,4.000000*%
G04 APERTURE END LIST*
D10*
X165594285Y-95029104D02*
X165118095Y-95029104D01*
X165689523Y-95314819D02*
X165356190Y-94314819D01*
X165356190Y-94314819D02*
X165022857Y-95314819D01*
X164165714Y-95314819D02*
X164737142Y-95314819D01*
X164451428Y-95314819D02*
X164451428Y-94314819D01*
X164451428Y-94314819D02*
X164546666Y-94457676D01*
X164546666Y-94457676D02*
X164641904Y-94552914D01*
X164641904Y-94552914D02*
X164737142Y-94600533D01*
X166141904Y-134954819D02*
X166141904Y-135764342D01*
X166141904Y-135764342D02*
X166094285Y-135859580D01*
X166094285Y-135859580D02*
X166046666Y-135907200D01*
X166046666Y-135907200D02*
X165951428Y-135954819D01*
X165951428Y-135954819D02*
X165760952Y-135954819D01*
X165760952Y-135954819D02*
X165665714Y-135907200D01*
X165665714Y-135907200D02*
X165618095Y-135859580D01*
X165618095Y-135859580D02*
X165570476Y-135764342D01*
X165570476Y-135764342D02*
X165570476Y-134954819D01*
X165141904Y-135907200D02*
X164999047Y-135954819D01*
X164999047Y-135954819D02*
X164760952Y-135954819D01*
X164760952Y-135954819D02*
X164665714Y-135907200D01*
X164665714Y-135907200D02*
X164618095Y-135859580D01*
X164618095Y-135859580D02*
X164570476Y-135764342D01*
X164570476Y-135764342D02*
X164570476Y-135669104D01*
X164570476Y-135669104D02*
X164618095Y-135573866D01*
X164618095Y-135573866D02*
X164665714Y-135526247D01*
X164665714Y-135526247D02*
X164760952Y-135478628D01*
X164760952Y-135478628D02*
X164951428Y-135431009D01*
X164951428Y-135431009D02*
X165046666Y-135383390D01*
X165046666Y-135383390D02*
X165094285Y-135335771D01*
X165094285Y-135335771D02*
X165141904Y-135240533D01*
X165141904Y-135240533D02*
X165141904Y-135145295D01*
X165141904Y-135145295D02*
X165094285Y-135050057D01*
X165094285Y-135050057D02*
X165046666Y-135002438D01*
X165046666Y-135002438D02*
X164951428Y-134954819D01*
X164951428Y-134954819D02*
X164713333Y-134954819D01*
X164713333Y-134954819D02*
X164570476Y-135002438D01*
X163808571Y-135431009D02*
X163665714Y-135478628D01*
X163665714Y-135478628D02*
X163618095Y-135526247D01*
X163618095Y-135526247D02*
X163570476Y-135621485D01*
X163570476Y-135621485D02*
X163570476Y-135764342D01*
X163570476Y-135764342D02*
X163618095Y-135859580D01*
X163618095Y-135859580D02*
X163665714Y-135907200D01*
X163665714Y-135907200D02*
X163760952Y-135954819D01*
X163760952Y-135954819D02*
X164141904Y-135954819D01*
X164141904Y-135954819D02*
X164141904Y-134954819D01*
X164141904Y-134954819D02*
X163808571Y-134954819D01*
X163808571Y-134954819D02*
X163713333Y-135002438D01*
X163713333Y-135002438D02*
X163665714Y-135050057D01*
X163665714Y-135050057D02*
X163618095Y-135145295D01*
X163618095Y-135145295D02*
X163618095Y-135240533D01*
X163618095Y-135240533D02*
X163665714Y-135335771D01*
X163665714Y-135335771D02*
X163713333Y-135383390D01*
X163713333Y-135383390D02*
X163808571Y-135431009D01*
X163808571Y-135431009D02*
X164141904Y-135431009D01*
X150454819Y-76904761D02*
X149978628Y-76571428D01*
X150454819Y-76333333D02*
X149454819Y-76333333D01*
X149454819Y-76333333D02*
X149454819Y-76714285D01*
X149454819Y-76714285D02*
X149502438Y-76809523D01*
X149502438Y-76809523D02*
X149550057Y-76857142D01*
X149550057Y-76857142D02*
X149645295Y-76904761D01*
X149645295Y-76904761D02*
X149788152Y-76904761D01*
X149788152Y-76904761D02*
X149883390Y-76857142D01*
X149883390Y-76857142D02*
X149931009Y-76809523D01*
X149931009Y-76809523D02*
X149978628Y-76714285D01*
X149978628Y-76714285D02*
X149978628Y-76333333D01*
X149454819Y-77190476D02*
X150454819Y-77523809D01*
X150454819Y-77523809D02*
X149454819Y-77857142D01*
X149788152Y-78619047D02*
X150454819Y-78619047D01*
X149407200Y-78380952D02*
X150121485Y-78142857D01*
X150121485Y-78142857D02*
X150121485Y-78761904D01*
X114454819Y-76904761D02*
X113978628Y-76571428D01*
X114454819Y-76333333D02*
X113454819Y-76333333D01*
X113454819Y-76333333D02*
X113454819Y-76714285D01*
X113454819Y-76714285D02*
X113502438Y-76809523D01*
X113502438Y-76809523D02*
X113550057Y-76857142D01*
X113550057Y-76857142D02*
X113645295Y-76904761D01*
X113645295Y-76904761D02*
X113788152Y-76904761D01*
X113788152Y-76904761D02*
X113883390Y-76857142D01*
X113883390Y-76857142D02*
X113931009Y-76809523D01*
X113931009Y-76809523D02*
X113978628Y-76714285D01*
X113978628Y-76714285D02*
X113978628Y-76333333D01*
X113454819Y-77190476D02*
X114454819Y-77523809D01*
X114454819Y-77523809D02*
X113454819Y-77857142D01*
X113550057Y-78142857D02*
X113502438Y-78190476D01*
X113502438Y-78190476D02*
X113454819Y-78285714D01*
X113454819Y-78285714D02*
X113454819Y-78523809D01*
X113454819Y-78523809D02*
X113502438Y-78619047D01*
X113502438Y-78619047D02*
X113550057Y-78666666D01*
X113550057Y-78666666D02*
X113645295Y-78714285D01*
X113645295Y-78714285D02*
X113740533Y-78714285D01*
X113740533Y-78714285D02*
X113883390Y-78666666D01*
X113883390Y-78666666D02*
X114454819Y-78095238D01*
X114454819Y-78095238D02*
X114454819Y-78714285D01*
X132454819Y-76904761D02*
X131978628Y-76571428D01*
X132454819Y-76333333D02*
X131454819Y-76333333D01*
X131454819Y-76333333D02*
X131454819Y-76714285D01*
X131454819Y-76714285D02*
X131502438Y-76809523D01*
X131502438Y-76809523D02*
X131550057Y-76857142D01*
X131550057Y-76857142D02*
X131645295Y-76904761D01*
X131645295Y-76904761D02*
X131788152Y-76904761D01*
X131788152Y-76904761D02*
X131883390Y-76857142D01*
X131883390Y-76857142D02*
X131931009Y-76809523D01*
X131931009Y-76809523D02*
X131978628Y-76714285D01*
X131978628Y-76714285D02*
X131978628Y-76333333D01*
X131454819Y-77190476D02*
X132454819Y-77523809D01*
X132454819Y-77523809D02*
X131454819Y-77857142D01*
X131454819Y-78095238D02*
X131454819Y-78714285D01*
X131454819Y-78714285D02*
X131835771Y-78380952D01*
X131835771Y-78380952D02*
X131835771Y-78523809D01*
X131835771Y-78523809D02*
X131883390Y-78619047D01*
X131883390Y-78619047D02*
X131931009Y-78666666D01*
X131931009Y-78666666D02*
X132026247Y-78714285D01*
X132026247Y-78714285D02*
X132264342Y-78714285D01*
X132264342Y-78714285D02*
X132359580Y-78666666D01*
X132359580Y-78666666D02*
X132407200Y-78619047D01*
X132407200Y-78619047D02*
X132454819Y-78523809D01*
X132454819Y-78523809D02*
X132454819Y-78238095D01*
X132454819Y-78238095D02*
X132407200Y-78142857D01*
X132407200Y-78142857D02*
X132359580Y-78095238D01*
X204954819Y-76904761D02*
X204478628Y-76571428D01*
X204954819Y-76333333D02*
X203954819Y-76333333D01*
X203954819Y-76333333D02*
X203954819Y-76714285D01*
X203954819Y-76714285D02*
X204002438Y-76809523D01*
X204002438Y-76809523D02*
X204050057Y-76857142D01*
X204050057Y-76857142D02*
X204145295Y-76904761D01*
X204145295Y-76904761D02*
X204288152Y-76904761D01*
X204288152Y-76904761D02*
X204383390Y-76857142D01*
X204383390Y-76857142D02*
X204431009Y-76809523D01*
X204431009Y-76809523D02*
X204478628Y-76714285D01*
X204478628Y-76714285D02*
X204478628Y-76333333D01*
X203954819Y-77190476D02*
X204954819Y-77523809D01*
X204954819Y-77523809D02*
X203954819Y-77857142D01*
X203954819Y-78619047D02*
X203954819Y-78428571D01*
X203954819Y-78428571D02*
X204002438Y-78333333D01*
X204002438Y-78333333D02*
X204050057Y-78285714D01*
X204050057Y-78285714D02*
X204192914Y-78190476D01*
X204192914Y-78190476D02*
X204383390Y-78142857D01*
X204383390Y-78142857D02*
X204764342Y-78142857D01*
X204764342Y-78142857D02*
X204859580Y-78190476D01*
X204859580Y-78190476D02*
X204907200Y-78238095D01*
X204907200Y-78238095D02*
X204954819Y-78333333D01*
X204954819Y-78333333D02*
X204954819Y-78523809D01*
X204954819Y-78523809D02*
X204907200Y-78619047D01*
X204907200Y-78619047D02*
X204859580Y-78666666D01*
X204859580Y-78666666D02*
X204764342Y-78714285D01*
X204764342Y-78714285D02*
X204526247Y-78714285D01*
X204526247Y-78714285D02*
X204431009Y-78666666D01*
X204431009Y-78666666D02*
X204383390Y-78619047D01*
X204383390Y-78619047D02*
X204335771Y-78523809D01*
X204335771Y-78523809D02*
X204335771Y-78333333D01*
X204335771Y-78333333D02*
X204383390Y-78238095D01*
X204383390Y-78238095D02*
X204431009Y-78190476D01*
X204431009Y-78190476D02*
X204526247Y-78142857D01*
X96454819Y-76904761D02*
X95978628Y-76571428D01*
X96454819Y-76333333D02*
X95454819Y-76333333D01*
X95454819Y-76333333D02*
X95454819Y-76714285D01*
X95454819Y-76714285D02*
X95502438Y-76809523D01*
X95502438Y-76809523D02*
X95550057Y-76857142D01*
X95550057Y-76857142D02*
X95645295Y-76904761D01*
X95645295Y-76904761D02*
X95788152Y-76904761D01*
X95788152Y-76904761D02*
X95883390Y-76857142D01*
X95883390Y-76857142D02*
X95931009Y-76809523D01*
X95931009Y-76809523D02*
X95978628Y-76714285D01*
X95978628Y-76714285D02*
X95978628Y-76333333D01*
X95454819Y-77190476D02*
X96454819Y-77523809D01*
X96454819Y-77523809D02*
X95454819Y-77857142D01*
X96454819Y-78714285D02*
X96454819Y-78142857D01*
X96454819Y-78428571D02*
X95454819Y-78428571D01*
X95454819Y-78428571D02*
X95597676Y-78333333D01*
X95597676Y-78333333D02*
X95692914Y-78238095D01*
X95692914Y-78238095D02*
X95740533Y-78142857D01*
X186954819Y-76904761D02*
X186478628Y-76571428D01*
X186954819Y-76333333D02*
X185954819Y-76333333D01*
X185954819Y-76333333D02*
X185954819Y-76714285D01*
X185954819Y-76714285D02*
X186002438Y-76809523D01*
X186002438Y-76809523D02*
X186050057Y-76857142D01*
X186050057Y-76857142D02*
X186145295Y-76904761D01*
X186145295Y-76904761D02*
X186288152Y-76904761D01*
X186288152Y-76904761D02*
X186383390Y-76857142D01*
X186383390Y-76857142D02*
X186431009Y-76809523D01*
X186431009Y-76809523D02*
X186478628Y-76714285D01*
X186478628Y-76714285D02*
X186478628Y-76333333D01*
X185954819Y-77190476D02*
X186954819Y-77523809D01*
X186954819Y-77523809D02*
X185954819Y-77857142D01*
X185954819Y-78666666D02*
X185954819Y-78190476D01*
X185954819Y-78190476D02*
X186431009Y-78142857D01*
X186431009Y-78142857D02*
X186383390Y-78190476D01*
X186383390Y-78190476D02*
X186335771Y-78285714D01*
X186335771Y-78285714D02*
X186335771Y-78523809D01*
X186335771Y-78523809D02*
X186383390Y-78619047D01*
X186383390Y-78619047D02*
X186431009Y-78666666D01*
X186431009Y-78666666D02*
X186526247Y-78714285D01*
X186526247Y-78714285D02*
X186764342Y-78714285D01*
X186764342Y-78714285D02*
X186859580Y-78666666D01*
X186859580Y-78666666D02*
X186907200Y-78619047D01*
X186907200Y-78619047D02*
X186954819Y-78523809D01*
X186954819Y-78523809D02*
X186954819Y-78285714D01*
X186954819Y-78285714D02*
X186907200Y-78190476D01*
X186907200Y-78190476D02*
X186859580Y-78142857D01*
D11*
X155860000Y-96000000D02*
X155860000Y-139440000D01*
X155860000Y-98670000D02*
X158530000Y-98670000D01*
X155860000Y-136770000D02*
X158530000Y-136770000D01*
X155860000Y-139440000D02*
X173900000Y-139440000D01*
X158530000Y-136770000D02*
X158530000Y-98670000D01*
X171230000Y-98670000D02*
X171230000Y-101210000D01*
X171230000Y-136770000D02*
X171230000Y-101210000D01*
X173900000Y-96000000D02*
X155860000Y-96000000D01*
X173900000Y-98670000D02*
X171230000Y-98670000D01*
X173900000Y-98670000D02*
X173900000Y-96000000D01*
X173900000Y-101210000D02*
X171230000Y-101210000D01*
X173900000Y-136770000D02*
X171230000Y-136770000D01*
X173900000Y-139440000D02*
X173900000Y-101210000D01*
X148000000Y-125000000D02*
X145000000Y-125000000D01*
X145000000Y-65000000D01*
X148000000Y-65000000D01*
X148000000Y-125000000D01*
X153000000Y-139500000D02*
X140000000Y-139500000D01*
X140000000Y-50500000D01*
X153000000Y-50500000D01*
X153000000Y-139500000D01*
X146750000Y-55000000D02*
G75*
G02*
X146250000Y-55000000I-250000J0D01*
G01*
X146250000Y-55000000D02*
G75*
G02*
X146750000Y-55000000I250000J0D01*
G01*
X146750000Y-135000000D02*
G75*
G02*
X146250000Y-135000000I-250000J0D01*
G01*
X146250000Y-135000000D02*
G75*
G02*
X146750000Y-135000000I250000J0D01*
G01*
X112000000Y-125000000D02*
X109000000Y-125000000D01*
X109000000Y-65000000D01*
X112000000Y-65000000D01*
X112000000Y-125000000D01*
X117000000Y-139500000D02*
X104000000Y-139500000D01*
X104000000Y-50500000D01*
X117000000Y-50500000D01*
X117000000Y-139500000D01*
X110750000Y-55000000D02*
G75*
G02*
X110250000Y-55000000I-250000J0D01*
G01*
X110250000Y-55000000D02*
G75*
G02*
X110750000Y-55000000I250000J0D01*
G01*
X110750000Y-135000000D02*
G75*
G02*
X110250000Y-135000000I-250000J0D01*
G01*
X110250000Y-135000000D02*
G75*
G02*
X110750000Y-135000000I250000J0D01*
G01*
X130000000Y-125000000D02*
X127000000Y-125000000D01*
X127000000Y-65000000D01*
X130000000Y-65000000D01*
X130000000Y-125000000D01*
X135000000Y-139500000D02*
X122000000Y-139500000D01*
X122000000Y-50500000D01*
X135000000Y-50500000D01*
X135000000Y-139500000D01*
X128750000Y-55000000D02*
G75*
G02*
X128250000Y-55000000I-250000J0D01*
G01*
X128250000Y-55000000D02*
G75*
G02*
X128750000Y-55000000I250000J0D01*
G01*
X128750000Y-135000000D02*
G75*
G02*
X128250000Y-135000000I-250000J0D01*
G01*
X128250000Y-135000000D02*
G75*
G02*
X128750000Y-135000000I250000J0D01*
G01*
X202500000Y-125000000D02*
X199500000Y-125000000D01*
X199500000Y-65000000D01*
X202500000Y-65000000D01*
X202500000Y-125000000D01*
X207500000Y-139500000D02*
X194500000Y-139500000D01*
X194500000Y-50500000D01*
X207500000Y-50500000D01*
X207500000Y-139500000D01*
X201250000Y-55000000D02*
G75*
G02*
X200750000Y-55000000I-250000J0D01*
G01*
X200750000Y-55000000D02*
G75*
G02*
X201250000Y-55000000I250000J0D01*
G01*
X201250000Y-135000000D02*
G75*
G02*
X200750000Y-135000000I-250000J0D01*
G01*
X200750000Y-135000000D02*
G75*
G02*
X201250000Y-135000000I250000J0D01*
G01*
X94000000Y-125000000D02*
X91000000Y-125000000D01*
X91000000Y-65000000D01*
X94000000Y-65000000D01*
X94000000Y-125000000D01*
X99000000Y-139500000D02*
X86000000Y-139500000D01*
X86000000Y-50500000D01*
X99000000Y-50500000D01*
X99000000Y-139500000D01*
X92750000Y-55000000D02*
G75*
G02*
X92250000Y-55000000I-250000J0D01*
G01*
X92250000Y-55000000D02*
G75*
G02*
X92750000Y-55000000I250000J0D01*
G01*
X92750000Y-135000000D02*
G75*
G02*
X92250000Y-135000000I-250000J0D01*
G01*
X92250000Y-135000000D02*
G75*
G02*
X92750000Y-135000000I250000J0D01*
G01*
X184500000Y-125000000D02*
X181500000Y-125000000D01*
X181500000Y-65000000D01*
X184500000Y-65000000D01*
X184500000Y-125000000D01*
X189500000Y-139500000D02*
X176500000Y-139500000D01*
X176500000Y-50500000D01*
X189500000Y-50500000D01*
X189500000Y-139500000D01*
X183250000Y-55000000D02*
G75*
G02*
X182750000Y-55000000I-250000J0D01*
G01*
X182750000Y-55000000D02*
G75*
G02*
X183250000Y-55000000I250000J0D01*
G01*
X183250000Y-135000000D02*
G75*
G02*
X182750000Y-135000000I-250000J0D01*
G01*
X182750000Y-135000000D02*
G75*
G02*
X183250000Y-135000000I250000J0D01*
G01*
%LPC*%
D12*
X213000000Y-140000000D03*
X80000000Y-140000000D03*
X80000000Y-50000000D03*
X213000000Y-50000000D03*
D13*
X172500000Y-99940000D03*
D14*
X172500000Y-102480000D03*
X172500000Y-105020000D03*
X172500000Y-107560000D03*
X172500000Y-110100000D03*
X172500000Y-112640000D03*
X172500000Y-115180000D03*
X172500000Y-117720000D03*
X172500000Y-120260000D03*
X172500000Y-122800000D03*
X172500000Y-125340000D03*
X172500000Y-127880000D03*
X172500000Y-130420000D03*
X172500000Y-132960000D03*
X172500000Y-135500000D03*
X157260000Y-135500000D03*
X157260000Y-132960000D03*
X157260000Y-130420000D03*
X157260000Y-127880000D03*
X157260000Y-125340000D03*
X157260000Y-122800000D03*
X157260000Y-120260000D03*
X157260000Y-117720000D03*
X157260000Y-115180000D03*
X157260000Y-112640000D03*
X157260000Y-110100000D03*
X157260000Y-107560000D03*
X157260000Y-105020000D03*
X157260000Y-102480000D03*
X157260000Y-99940000D03*
D15*
X144000000Y-60000000D03*
X149000000Y-55000000D03*
X149000000Y-135000000D03*
X144000000Y-130000000D03*
X108000000Y-60000000D03*
X113000000Y-55000000D03*
X113000000Y-135000000D03*
X108000000Y-130000000D03*
X126000000Y-60000000D03*
X131000000Y-55000000D03*
X131000000Y-135000000D03*
X126000000Y-130000000D03*
X198500000Y-60000000D03*
X203500000Y-55000000D03*
X203500000Y-135000000D03*
X198500000Y-130000000D03*
X90000000Y-60000000D03*
X95000000Y-55000000D03*
X95000000Y-135000000D03*
X90000000Y-130000000D03*
X180500000Y-60000000D03*
X185500000Y-55000000D03*
X185500000Y-135000000D03*
X180500000Y-130000000D03*
%LPD*%
M02*
