G04 #@! TF.GenerationSoftware,KiCad,Pcbnew,8.0.1-8.0.1-1~ubuntu22.04.1*
G04 #@! TF.CreationDate,2024-03-31T13:35:32+01:00*
G04 #@! TF.ProjectId,Arduino_Mixer,41726475-696e-46f5-9f4d-697865722e6b,1.0*
G04 #@! TF.SameCoordinates,Original*
G04 #@! TF.FileFunction,Legend,Bot*
G04 #@! TF.FilePolarity,Positive*
%FSLAX46Y46*%
G04 Gerber Fmt 4.6, Leading zero omitted, Abs format (unit mm)*
G04 Created by KiCad (PCBNEW 8.0.1-8.0.1-1~ubuntu22.04.1) date 2024-03-31 13:35:32*
%MOMM*%
%LPD*%
G01*
G04 APERTURE LIST*
%ADD10C,0.150000*%
%ADD11C,0.120000*%
%ADD12C,3.200000*%
%ADD13R,1.600000X1.600000*%
%ADD14O,1.600000X1.600000*%
%ADD15C,4.000000*%
G04 APERTURE END LIST*
D10*
X211869819Y-90622493D02*
X212584104Y-90622493D01*
X212584104Y-90622493D02*
X212726961Y-90574874D01*
X212726961Y-90574874D02*
X212822200Y-90479636D01*
X212822200Y-90479636D02*
X212869819Y-90336779D01*
X212869819Y-90336779D02*
X212869819Y-90241541D01*
X212869819Y-91574874D02*
X212869819Y-91098684D01*
X212869819Y-91098684D02*
X211869819Y-91098684D01*
X212774580Y-92479636D02*
X212822200Y-92432017D01*
X212822200Y-92432017D02*
X212869819Y-92289160D01*
X212869819Y-92289160D02*
X212869819Y-92193922D01*
X212869819Y-92193922D02*
X212822200Y-92051065D01*
X212822200Y-92051065D02*
X212726961Y-91955827D01*
X212726961Y-91955827D02*
X212631723Y-91908208D01*
X212631723Y-91908208D02*
X212441247Y-91860589D01*
X212441247Y-91860589D02*
X212298390Y-91860589D01*
X212298390Y-91860589D02*
X212107914Y-91908208D01*
X212107914Y-91908208D02*
X212012676Y-91955827D01*
X212012676Y-91955827D02*
X211917438Y-92051065D01*
X211917438Y-92051065D02*
X211869819Y-92193922D01*
X211869819Y-92193922D02*
X211869819Y-92289160D01*
X211869819Y-92289160D02*
X211917438Y-92432017D01*
X211917438Y-92432017D02*
X211965057Y-92479636D01*
X211869819Y-93193922D02*
X212584104Y-93193922D01*
X212584104Y-93193922D02*
X212726961Y-93146303D01*
X212726961Y-93146303D02*
X212822200Y-93051065D01*
X212822200Y-93051065D02*
X212869819Y-92908208D01*
X212869819Y-92908208D02*
X212869819Y-92812970D01*
X212869819Y-94146303D02*
X212869819Y-93670113D01*
X212869819Y-93670113D02*
X211869819Y-93670113D01*
X212774580Y-95051065D02*
X212822200Y-95003446D01*
X212822200Y-95003446D02*
X212869819Y-94860589D01*
X212869819Y-94860589D02*
X212869819Y-94765351D01*
X212869819Y-94765351D02*
X212822200Y-94622494D01*
X212822200Y-94622494D02*
X212726961Y-94527256D01*
X212726961Y-94527256D02*
X212631723Y-94479637D01*
X212631723Y-94479637D02*
X212441247Y-94432018D01*
X212441247Y-94432018D02*
X212298390Y-94432018D01*
X212298390Y-94432018D02*
X212107914Y-94479637D01*
X212107914Y-94479637D02*
X212012676Y-94527256D01*
X212012676Y-94527256D02*
X211917438Y-94622494D01*
X211917438Y-94622494D02*
X211869819Y-94765351D01*
X211869819Y-94765351D02*
X211869819Y-94860589D01*
X211869819Y-94860589D02*
X211917438Y-95003446D01*
X211917438Y-95003446D02*
X211965057Y-95051065D01*
X211869819Y-95765351D02*
X212584104Y-95765351D01*
X212584104Y-95765351D02*
X212726961Y-95717732D01*
X212726961Y-95717732D02*
X212822200Y-95622494D01*
X212822200Y-95622494D02*
X212869819Y-95479637D01*
X212869819Y-95479637D02*
X212869819Y-95384399D01*
X212869819Y-96717732D02*
X212869819Y-96241542D01*
X212869819Y-96241542D02*
X211869819Y-96241542D01*
X212774580Y-97622494D02*
X212822200Y-97574875D01*
X212822200Y-97574875D02*
X212869819Y-97432018D01*
X212869819Y-97432018D02*
X212869819Y-97336780D01*
X212869819Y-97336780D02*
X212822200Y-97193923D01*
X212822200Y-97193923D02*
X212726961Y-97098685D01*
X212726961Y-97098685D02*
X212631723Y-97051066D01*
X212631723Y-97051066D02*
X212441247Y-97003447D01*
X212441247Y-97003447D02*
X212298390Y-97003447D01*
X212298390Y-97003447D02*
X212107914Y-97051066D01*
X212107914Y-97051066D02*
X212012676Y-97098685D01*
X212012676Y-97098685D02*
X211917438Y-97193923D01*
X211917438Y-97193923D02*
X211869819Y-97336780D01*
X211869819Y-97336780D02*
X211869819Y-97432018D01*
X211869819Y-97432018D02*
X211917438Y-97574875D01*
X211917438Y-97574875D02*
X211965057Y-97622494D01*
X211869819Y-98336780D02*
X212584104Y-98336780D01*
X212584104Y-98336780D02*
X212726961Y-98289161D01*
X212726961Y-98289161D02*
X212822200Y-98193923D01*
X212822200Y-98193923D02*
X212869819Y-98051066D01*
X212869819Y-98051066D02*
X212869819Y-97955828D01*
X212869819Y-99289161D02*
X212869819Y-98812971D01*
X212869819Y-98812971D02*
X211869819Y-98812971D01*
X212774580Y-100193923D02*
X212822200Y-100146304D01*
X212822200Y-100146304D02*
X212869819Y-100003447D01*
X212869819Y-100003447D02*
X212869819Y-99908209D01*
X212869819Y-99908209D02*
X212822200Y-99765352D01*
X212822200Y-99765352D02*
X212726961Y-99670114D01*
X212726961Y-99670114D02*
X212631723Y-99622495D01*
X212631723Y-99622495D02*
X212441247Y-99574876D01*
X212441247Y-99574876D02*
X212298390Y-99574876D01*
X212298390Y-99574876D02*
X212107914Y-99622495D01*
X212107914Y-99622495D02*
X212012676Y-99670114D01*
X212012676Y-99670114D02*
X211917438Y-99765352D01*
X211917438Y-99765352D02*
X211869819Y-99908209D01*
X211869819Y-99908209D02*
X211869819Y-100003447D01*
X211869819Y-100003447D02*
X211917438Y-100146304D01*
X211917438Y-100146304D02*
X211965057Y-100193923D01*
X213761904Y-137704819D02*
X213761904Y-136704819D01*
X213761904Y-137181009D02*
X213190476Y-137181009D01*
X213190476Y-137704819D02*
X213190476Y-136704819D01*
X212761904Y-136800057D02*
X212714285Y-136752438D01*
X212714285Y-136752438D02*
X212619047Y-136704819D01*
X212619047Y-136704819D02*
X212380952Y-136704819D01*
X212380952Y-136704819D02*
X212285714Y-136752438D01*
X212285714Y-136752438D02*
X212238095Y-136800057D01*
X212238095Y-136800057D02*
X212190476Y-136895295D01*
X212190476Y-136895295D02*
X212190476Y-136990533D01*
X212190476Y-136990533D02*
X212238095Y-137133390D01*
X212238095Y-137133390D02*
X212809523Y-137704819D01*
X212809523Y-137704819D02*
X212190476Y-137704819D01*
X80761904Y-137454819D02*
X80761904Y-136454819D01*
X80761904Y-136931009D02*
X80190476Y-136931009D01*
X80190476Y-137454819D02*
X80190476Y-136454819D01*
X79809523Y-136454819D02*
X79190476Y-136454819D01*
X79190476Y-136454819D02*
X79523809Y-136835771D01*
X79523809Y-136835771D02*
X79380952Y-136835771D01*
X79380952Y-136835771D02*
X79285714Y-136883390D01*
X79285714Y-136883390D02*
X79238095Y-136931009D01*
X79238095Y-136931009D02*
X79190476Y-137026247D01*
X79190476Y-137026247D02*
X79190476Y-137264342D01*
X79190476Y-137264342D02*
X79238095Y-137359580D01*
X79238095Y-137359580D02*
X79285714Y-137407200D01*
X79285714Y-137407200D02*
X79380952Y-137454819D01*
X79380952Y-137454819D02*
X79666666Y-137454819D01*
X79666666Y-137454819D02*
X79761904Y-137407200D01*
X79761904Y-137407200D02*
X79809523Y-137359580D01*
X80761904Y-53704819D02*
X80761904Y-52704819D01*
X80761904Y-53181009D02*
X80190476Y-53181009D01*
X80190476Y-53704819D02*
X80190476Y-52704819D01*
X79285714Y-53038152D02*
X79285714Y-53704819D01*
X79523809Y-52657200D02*
X79761904Y-53371485D01*
X79761904Y-53371485D02*
X79142857Y-53371485D01*
X213761904Y-53454819D02*
X213761904Y-52454819D01*
X213761904Y-52931009D02*
X213190476Y-52931009D01*
X213190476Y-53454819D02*
X213190476Y-52454819D01*
X212190476Y-53454819D02*
X212761904Y-53454819D01*
X212476190Y-53454819D02*
X212476190Y-52454819D01*
X212476190Y-52454819D02*
X212571428Y-52597676D01*
X212571428Y-52597676D02*
X212666666Y-52692914D01*
X212666666Y-52692914D02*
X212761904Y-52740533D01*
X165594285Y-95029104D02*
X165118095Y-95029104D01*
X165689523Y-95314819D02*
X165356190Y-94314819D01*
X165356190Y-94314819D02*
X165022857Y-95314819D01*
X164165714Y-95314819D02*
X164737142Y-95314819D01*
X164451428Y-95314819D02*
X164451428Y-94314819D01*
X164451428Y-94314819D02*
X164546666Y-94457676D01*
X164546666Y-94457676D02*
X164641904Y-94552914D01*
X164641904Y-94552914D02*
X164737142Y-94600533D01*
X166141904Y-134954819D02*
X166141904Y-135764342D01*
X166141904Y-135764342D02*
X166094285Y-135859580D01*
X166094285Y-135859580D02*
X166046666Y-135907200D01*
X166046666Y-135907200D02*
X165951428Y-135954819D01*
X165951428Y-135954819D02*
X165760952Y-135954819D01*
X165760952Y-135954819D02*
X165665714Y-135907200D01*
X165665714Y-135907200D02*
X165618095Y-135859580D01*
X165618095Y-135859580D02*
X165570476Y-135764342D01*
X165570476Y-135764342D02*
X165570476Y-134954819D01*
X165141904Y-135907200D02*
X164999047Y-135954819D01*
X164999047Y-135954819D02*
X164760952Y-135954819D01*
X164760952Y-135954819D02*
X164665714Y-135907200D01*
X164665714Y-135907200D02*
X164618095Y-135859580D01*
X164618095Y-135859580D02*
X164570476Y-135764342D01*
X164570476Y-135764342D02*
X164570476Y-135669104D01*
X164570476Y-135669104D02*
X164618095Y-135573866D01*
X164618095Y-135573866D02*
X164665714Y-135526247D01*
X164665714Y-135526247D02*
X164760952Y-135478628D01*
X164760952Y-135478628D02*
X164951428Y-135431009D01*
X164951428Y-135431009D02*
X165046666Y-135383390D01*
X165046666Y-135383390D02*
X165094285Y-135335771D01*
X165094285Y-135335771D02*
X165141904Y-135240533D01*
X165141904Y-135240533D02*
X165141904Y-135145295D01*
X165141904Y-135145295D02*
X165094285Y-135050057D01*
X165094285Y-135050057D02*
X165046666Y-135002438D01*
X165046666Y-135002438D02*
X164951428Y-134954819D01*
X164951428Y-134954819D02*
X164713333Y-134954819D01*
X164713333Y-134954819D02*
X164570476Y-135002438D01*
X163808571Y-135431009D02*
X163665714Y-135478628D01*
X163665714Y-135478628D02*
X163618095Y-135526247D01*
X163618095Y-135526247D02*
X163570476Y-135621485D01*
X163570476Y-135621485D02*
X163570476Y-135764342D01*
X163570476Y-135764342D02*
X163618095Y-135859580D01*
X163618095Y-135859580D02*
X163665714Y-135907200D01*
X163665714Y-135907200D02*
X163760952Y-135954819D01*
X163760952Y-135954819D02*
X164141904Y-135954819D01*
X164141904Y-135954819D02*
X164141904Y-134954819D01*
X164141904Y-134954819D02*
X163808571Y-134954819D01*
X163808571Y-134954819D02*
X163713333Y-135002438D01*
X163713333Y-135002438D02*
X163665714Y-135050057D01*
X163665714Y-135050057D02*
X163618095Y-135145295D01*
X163618095Y-135145295D02*
X163618095Y-135240533D01*
X163618095Y-135240533D02*
X163665714Y-135335771D01*
X163665714Y-135335771D02*
X163713333Y-135383390D01*
X163713333Y-135383390D02*
X163808571Y-135431009D01*
X163808571Y-135431009D02*
X164141904Y-135431009D01*
X150454819Y-76904761D02*
X149978628Y-76571428D01*
X150454819Y-76333333D02*
X149454819Y-76333333D01*
X149454819Y-76333333D02*
X149454819Y-76714285D01*
X149454819Y-76714285D02*
X149502438Y-76809523D01*
X149502438Y-76809523D02*
X149550057Y-76857142D01*
X149550057Y-76857142D02*
X149645295Y-76904761D01*
X149645295Y-76904761D02*
X149788152Y-76904761D01*
X149788152Y-76904761D02*
X149883390Y-76857142D01*
X149883390Y-76857142D02*
X149931009Y-76809523D01*
X149931009Y-76809523D02*
X149978628Y-76714285D01*
X149978628Y-76714285D02*
X149978628Y-76333333D01*
X149454819Y-77190476D02*
X150454819Y-77523809D01*
X150454819Y-77523809D02*
X149454819Y-77857142D01*
X149788152Y-78619047D02*
X150454819Y-78619047D01*
X149407200Y-78380952D02*
X150121485Y-78142857D01*
X150121485Y-78142857D02*
X150121485Y-78761904D01*
X114454819Y-76904761D02*
X113978628Y-76571428D01*
X114454819Y-76333333D02*
X113454819Y-76333333D01*
X113454819Y-76333333D02*
X113454819Y-76714285D01*
X113454819Y-76714285D02*
X113502438Y-76809523D01*
X113502438Y-76809523D02*
X113550057Y-76857142D01*
X113550057Y-76857142D02*
X113645295Y-76904761D01*
X113645295Y-76904761D02*
X113788152Y-76904761D01*
X113788152Y-76904761D02*
X113883390Y-76857142D01*
X113883390Y-76857142D02*
X113931009Y-76809523D01*
X113931009Y-76809523D02*
X113978628Y-76714285D01*
X113978628Y-76714285D02*
X113978628Y-76333333D01*
X113454819Y-77190476D02*
X114454819Y-77523809D01*
X114454819Y-77523809D02*
X113454819Y-77857142D01*
X113550057Y-78142857D02*
X113502438Y-78190476D01*
X113502438Y-78190476D02*
X113454819Y-78285714D01*
X113454819Y-78285714D02*
X113454819Y-78523809D01*
X113454819Y-78523809D02*
X113502438Y-78619047D01*
X113502438Y-78619047D02*
X113550057Y-78666666D01*
X113550057Y-78666666D02*
X113645295Y-78714285D01*
X113645295Y-78714285D02*
X113740533Y-78714285D01*
X113740533Y-78714285D02*
X113883390Y-78666666D01*
X113883390Y-78666666D02*
X114454819Y-78095238D01*
X114454819Y-78095238D02*
X114454819Y-78714285D01*
X132454819Y-76904761D02*
X131978628Y-76571428D01*
X132454819Y-76333333D02*
X131454819Y-76333333D01*
X131454819Y-76333333D02*
X131454819Y-76714285D01*
X131454819Y-76714285D02*
X131502438Y-76809523D01*
X131502438Y-76809523D02*
X131550057Y-76857142D01*
X131550057Y-76857142D02*
X131645295Y-76904761D01*
X131645295Y-76904761D02*
X131788152Y-76904761D01*
X131788152Y-76904761D02*
X131883390Y-76857142D01*
X131883390Y-76857142D02*
X131931009Y-76809523D01*
X131931009Y-76809523D02*
X131978628Y-76714285D01*
X131978628Y-76714285D02*
X131978628Y-76333333D01*
X131454819Y-77190476D02*
X132454819Y-77523809D01*
X132454819Y-77523809D02*
X131454819Y-77857142D01*
X131454819Y-78095238D02*
X131454819Y-78714285D01*
X131454819Y-78714285D02*
X131835771Y-78380952D01*
X131835771Y-78380952D02*
X131835771Y-78523809D01*
X131835771Y-78523809D02*
X131883390Y-78619047D01*
X131883390Y-78619047D02*
X131931009Y-78666666D01*
X131931009Y-78666666D02*
X132026247Y-78714285D01*
X132026247Y-78714285D02*
X132264342Y-78714285D01*
X132264342Y-78714285D02*
X132359580Y-78666666D01*
X132359580Y-78666666D02*
X132407200Y-78619047D01*
X132407200Y-78619047D02*
X132454819Y-78523809D01*
X132454819Y-78523809D02*
X132454819Y-78238095D01*
X132454819Y-78238095D02*
X132407200Y-78142857D01*
X132407200Y-78142857D02*
X132359580Y-78095238D01*
X204954819Y-76904761D02*
X204478628Y-76571428D01*
X204954819Y-76333333D02*
X203954819Y-76333333D01*
X203954819Y-76333333D02*
X203954819Y-76714285D01*
X203954819Y-76714285D02*
X204002438Y-76809523D01*
X204002438Y-76809523D02*
X204050057Y-76857142D01*
X204050057Y-76857142D02*
X204145295Y-76904761D01*
X204145295Y-76904761D02*
X204288152Y-76904761D01*
X204288152Y-76904761D02*
X204383390Y-76857142D01*
X204383390Y-76857142D02*
X204431009Y-76809523D01*
X204431009Y-76809523D02*
X204478628Y-76714285D01*
X204478628Y-76714285D02*
X204478628Y-76333333D01*
X203954819Y-77190476D02*
X204954819Y-77523809D01*
X204954819Y-77523809D02*
X203954819Y-77857142D01*
X203954819Y-78619047D02*
X203954819Y-78428571D01*
X203954819Y-78428571D02*
X204002438Y-78333333D01*
X204002438Y-78333333D02*
X204050057Y-78285714D01*
X204050057Y-78285714D02*
X204192914Y-78190476D01*
X204192914Y-78190476D02*
X204383390Y-78142857D01*
X204383390Y-78142857D02*
X204764342Y-78142857D01*
X204764342Y-78142857D02*
X204859580Y-78190476D01*
X204859580Y-78190476D02*
X204907200Y-78238095D01*
X204907200Y-78238095D02*
X204954819Y-78333333D01*
X204954819Y-78333333D02*
X204954819Y-78523809D01*
X204954819Y-78523809D02*
X204907200Y-78619047D01*
X204907200Y-78619047D02*
X204859580Y-78666666D01*
X204859580Y-78666666D02*
X204764342Y-78714285D01*
X204764342Y-78714285D02*
X204526247Y-78714285D01*
X204526247Y-78714285D02*
X204431009Y-78666666D01*
X204431009Y-78666666D02*
X204383390Y-78619047D01*
X204383390Y-78619047D02*
X204335771Y-78523809D01*
X204335771Y-78523809D02*
X204335771Y-78333333D01*
X204335771Y-78333333D02*
X204383390Y-78238095D01*
X204383390Y-78238095D02*
X204431009Y-78190476D01*
X204431009Y-78190476D02*
X204526247Y-78142857D01*
X96454819Y-76904761D02*
X95978628Y-76571428D01*
X96454819Y-76333333D02*
X95454819Y-76333333D01*
X95454819Y-76333333D02*
X95454819Y-76714285D01*
X95454819Y-76714285D02*
X95502438Y-76809523D01*
X95502438Y-76809523D02*
X95550057Y-76857142D01*
X95550057Y-76857142D02*
X95645295Y-76904761D01*
X95645295Y-76904761D02*
X95788152Y-76904761D01*
X95788152Y-76904761D02*
X95883390Y-76857142D01*
X95883390Y-76857142D02*
X95931009Y-76809523D01*
X95931009Y-76809523D02*
X95978628Y-76714285D01*
X95978628Y-76714285D02*
X95978628Y-76333333D01*
X95454819Y-77190476D02*
X96454819Y-77523809D01*
X96454819Y-77523809D02*
X95454819Y-77857142D01*
X96454819Y-78714285D02*
X96454819Y-78142857D01*
X96454819Y-78428571D02*
X95454819Y-78428571D01*
X95454819Y-78428571D02*
X95597676Y-78333333D01*
X95597676Y-78333333D02*
X95692914Y-78238095D01*
X95692914Y-78238095D02*
X95740533Y-78142857D01*
X186954819Y-76904761D02*
X186478628Y-76571428D01*
X186954819Y-76333333D02*
X185954819Y-76333333D01*
X185954819Y-76333333D02*
X185954819Y-76714285D01*
X185954819Y-76714285D02*
X186002438Y-76809523D01*
X186002438Y-76809523D02*
X186050057Y-76857142D01*
X186050057Y-76857142D02*
X186145295Y-76904761D01*
X186145295Y-76904761D02*
X186288152Y-76904761D01*
X186288152Y-76904761D02*
X186383390Y-76857142D01*
X186383390Y-76857142D02*
X186431009Y-76809523D01*
X186431009Y-76809523D02*
X186478628Y-76714285D01*
X186478628Y-76714285D02*
X186478628Y-76333333D01*
X185954819Y-77190476D02*
X186954819Y-77523809D01*
X186954819Y-77523809D02*
X185954819Y-77857142D01*
X185954819Y-78666666D02*
X185954819Y-78190476D01*
X185954819Y-78190476D02*
X186431009Y-78142857D01*
X186431009Y-78142857D02*
X186383390Y-78190476D01*
X186383390Y-78190476D02*
X186335771Y-78285714D01*
X186335771Y-78285714D02*
X186335771Y-78523809D01*
X186335771Y-78523809D02*
X186383390Y-78619047D01*
X186383390Y-78619047D02*
X186431009Y-78666666D01*
X186431009Y-78666666D02*
X186526247Y-78714285D01*
X186526247Y-78714285D02*
X186764342Y-78714285D01*
X186764342Y-78714285D02*
X186859580Y-78666666D01*
X186859580Y-78666666D02*
X186907200Y-78619047D01*
X186907200Y-78619047D02*
X186954819Y-78523809D01*
X186954819Y-78523809D02*
X186954819Y-78285714D01*
X186954819Y-78285714D02*
X186907200Y-78190476D01*
X186907200Y-78190476D02*
X186859580Y-78142857D01*
D11*
X155860000Y-96000000D02*
X155860000Y-139440000D01*
X155860000Y-98670000D02*
X158530000Y-98670000D01*
X155860000Y-136770000D02*
X158530000Y-136770000D01*
X155860000Y-139440000D02*
X173900000Y-139440000D01*
X158530000Y-136770000D02*
X158530000Y-98670000D01*
X171230000Y-98670000D02*
X171230000Y-101210000D01*
X171230000Y-136770000D02*
X171230000Y-101210000D01*
X173900000Y-96000000D02*
X155860000Y-96000000D01*
X173900000Y-98670000D02*
X171230000Y-98670000D01*
X173900000Y-98670000D02*
X173900000Y-96000000D01*
X173900000Y-101210000D02*
X171230000Y-101210000D01*
X173900000Y-136770000D02*
X171230000Y-136770000D01*
X173900000Y-139440000D02*
X173900000Y-101210000D01*
X148000000Y-125000000D02*
X145000000Y-125000000D01*
X145000000Y-65000000D01*
X148000000Y-65000000D01*
X148000000Y-125000000D01*
X153000000Y-139500000D02*
X140000000Y-139500000D01*
X140000000Y-50500000D01*
X153000000Y-50500000D01*
X153000000Y-139500000D01*
X146750000Y-55000000D02*
G75*
G02*
X146250000Y-55000000I-250000J0D01*
G01*
X146250000Y-55000000D02*
G75*
G02*
X146750000Y-55000000I250000J0D01*
G01*
X146750000Y-135000000D02*
G75*
G02*
X146250000Y-135000000I-250000J0D01*
G01*
X146250000Y-135000000D02*
G75*
G02*
X146750000Y-135000000I250000J0D01*
G01*
X112000000Y-125000000D02*
X109000000Y-125000000D01*
X109000000Y-65000000D01*
X112000000Y-65000000D01*
X112000000Y-125000000D01*
X117000000Y-139500000D02*
X104000000Y-139500000D01*
X104000000Y-50500000D01*
X117000000Y-50500000D01*
X117000000Y-139500000D01*
X110750000Y-55000000D02*
G75*
G02*
X110250000Y-55000000I-250000J0D01*
G01*
X110250000Y-55000000D02*
G75*
G02*
X110750000Y-55000000I250000J0D01*
G01*
X110750000Y-135000000D02*
G75*
G02*
X110250000Y-135000000I-250000J0D01*
G01*
X110250000Y-135000000D02*
G75*
G02*
X110750000Y-135000000I250000J0D01*
G01*
X130000000Y-125000000D02*
X127000000Y-125000000D01*
X127000000Y-65000000D01*
X130000000Y-65000000D01*
X130000000Y-125000000D01*
X135000000Y-139500000D02*
X122000000Y-139500000D01*
X122000000Y-50500000D01*
X135000000Y-50500000D01*
X135000000Y-139500000D01*
X128750000Y-55000000D02*
G75*
G02*
X128250000Y-55000000I-250000J0D01*
G01*
X128250000Y-55000000D02*
G75*
G02*
X128750000Y-55000000I250000J0D01*
G01*
X128750000Y-135000000D02*
G75*
G02*
X128250000Y-135000000I-250000J0D01*
G01*
X128250000Y-135000000D02*
G75*
G02*
X128750000Y-135000000I250000J0D01*
G01*
X202500000Y-125000000D02*
X199500000Y-125000000D01*
X199500000Y-65000000D01*
X202500000Y-65000000D01*
X202500000Y-125000000D01*
X207500000Y-139500000D02*
X194500000Y-139500000D01*
X194500000Y-50500000D01*
X207500000Y-50500000D01*
X207500000Y-139500000D01*
X201250000Y-55000000D02*
G75*
G02*
X200750000Y-55000000I-250000J0D01*
G01*
X200750000Y-55000000D02*
G75*
G02*
X201250000Y-55000000I250000J0D01*
G01*
X201250000Y-135000000D02*
G75*
G02*
X200750000Y-135000000I-250000J0D01*
G01*
X200750000Y-135000000D02*
G75*
G02*
X201250000Y-135000000I250000J0D01*
G01*
X94000000Y-125000000D02*
X91000000Y-125000000D01*
X91000000Y-65000000D01*
X94000000Y-65000000D01*
X94000000Y-125000000D01*
X99000000Y-139500000D02*
X86000000Y-139500000D01*
X86000000Y-50500000D01*
X99000000Y-50500000D01*
X99000000Y-139500000D01*
X92750000Y-55000000D02*
G75*
G02*
X92250000Y-55000000I-250000J0D01*
G01*
X92250000Y-55000000D02*
G75*
G02*
X92750000Y-55000000I250000J0D01*
G01*
X92750000Y-135000000D02*
G75*
G02*
X92250000Y-135000000I-250000J0D01*
G01*
X92250000Y-135000000D02*
G75*
G02*
X92750000Y-135000000I250000J0D01*
G01*
X184500000Y-125000000D02*
X181500000Y-125000000D01*
X181500000Y-65000000D01*
X184500000Y-65000000D01*
X184500000Y-125000000D01*
X189500000Y-139500000D02*
X176500000Y-139500000D01*
X176500000Y-50500000D01*
X189500000Y-50500000D01*
X189500000Y-139500000D01*
X183250000Y-55000000D02*
G75*
G02*
X182750000Y-55000000I-250000J0D01*
G01*
X182750000Y-55000000D02*
G75*
G02*
X183250000Y-55000000I250000J0D01*
G01*
X183250000Y-135000000D02*
G75*
G02*
X182750000Y-135000000I-250000J0D01*
G01*
X182750000Y-135000000D02*
G75*
G02*
X183250000Y-135000000I250000J0D01*
G01*
%LPC*%
D12*
X213000000Y-140000000D03*
X80000000Y-140000000D03*
X80000000Y-50000000D03*
X213000000Y-50000000D03*
D13*
X172500000Y-99940000D03*
D14*
X172500000Y-102480000D03*
X172500000Y-105020000D03*
X172500000Y-107560000D03*
X172500000Y-110100000D03*
X172500000Y-112640000D03*
X172500000Y-115180000D03*
X172500000Y-117720000D03*
X172500000Y-120260000D03*
X172500000Y-122800000D03*
X172500000Y-125340000D03*
X172500000Y-127880000D03*
X172500000Y-130420000D03*
X172500000Y-132960000D03*
X172500000Y-135500000D03*
X157260000Y-135500000D03*
X157260000Y-132960000D03*
X157260000Y-130420000D03*
X157260000Y-127880000D03*
X157260000Y-125340000D03*
X157260000Y-122800000D03*
X157260000Y-120260000D03*
X157260000Y-117720000D03*
X157260000Y-115180000D03*
X157260000Y-112640000D03*
X157260000Y-110100000D03*
X157260000Y-107560000D03*
X157260000Y-105020000D03*
X157260000Y-102480000D03*
X157260000Y-99940000D03*
D15*
X144000000Y-60000000D03*
X149000000Y-55000000D03*
X149000000Y-135000000D03*
X144000000Y-130000000D03*
X108000000Y-60000000D03*
X113000000Y-55000000D03*
X113000000Y-135000000D03*
X108000000Y-130000000D03*
X126000000Y-60000000D03*
X131000000Y-55000000D03*
X131000000Y-135000000D03*
X126000000Y-130000000D03*
X198500000Y-60000000D03*
X203500000Y-55000000D03*
X203500000Y-135000000D03*
X198500000Y-130000000D03*
X90000000Y-60000000D03*
X95000000Y-55000000D03*
X95000000Y-135000000D03*
X90000000Y-130000000D03*
X180500000Y-60000000D03*
X185500000Y-55000000D03*
X185500000Y-135000000D03*
X180500000Y-130000000D03*
%LPD*%
M02*
