%TF.GenerationSoftware,KiCad,Pcbnew,8.0.1-8.0.1-1~ubuntu22.04.1*%
%TF.CreationDate,2024-03-31T13:35:39+01:00*%
%TF.ProjectId,Arduino_Mixer,41726475-696e-46f5-9f4d-697865722e6b,1.0*%
%TF.SameCoordinates,Original*%
%TF.FileFunction,Drillmap*%
%TF.FilePolarity,Positive*%
%FSLAX45Y45*%
G04 Gerber Fmt 4.5, Leading zero omitted, Abs format (unit mm)*
G04 Created by KiCad (PCBNEW 8.0.1-8.0.1-1~ubuntu22.04.1) date 2024-03-31 13:35:39*
%MOMM*%
%LPD*%
G01*
G04 APERTURE LIST*
%ADD10C,0.100000*%
%ADD11C,0.200000*%
G04 APERTURE END LIST*
D10*
X9136100Y-6527800D02*
X9359900Y-6527800D01*
X9359900Y-12471400D01*
X9136100Y-12471400D01*
X9136100Y-6527800D01*
X10939500Y-6527800D02*
X11163300Y-6527800D01*
X11163300Y-12471400D01*
X10939500Y-12471400D01*
X10939500Y-6527800D01*
X12742900Y-6527800D02*
X12966700Y-6527800D01*
X12966700Y-12471400D01*
X12742900Y-12471400D01*
X12742900Y-6527800D01*
X18191200Y-6527800D02*
X18415000Y-6527800D01*
X18415000Y-12471400D01*
X18191200Y-12471400D01*
X18191200Y-6527800D01*
X19989800Y-6527800D02*
X20213600Y-6527800D01*
X20213600Y-12471400D01*
X19989800Y-12471400D01*
X19989800Y-6527800D01*
X7518400Y-4546600D02*
X21767800Y-4546600D01*
X21767800Y-14478000D01*
X7518400Y-14478000D01*
X7518400Y-4546600D01*
X14533600Y-6527800D02*
X14757400Y-6527800D01*
X14757400Y-12471400D01*
X14533600Y-12471400D01*
X14533600Y-6527800D01*
D11*
D10*
X15676000Y-9944000D02*
X15776000Y-10044000D01*
X15776000Y-9944000D02*
X15676000Y-10044000D01*
X15676000Y-10198000D02*
X15776000Y-10298000D01*
X15776000Y-10198000D02*
X15676000Y-10298000D01*
X15676000Y-10452000D02*
X15776000Y-10552000D01*
X15776000Y-10452000D02*
X15676000Y-10552000D01*
X15676000Y-10706000D02*
X15776000Y-10806000D01*
X15776000Y-10706000D02*
X15676000Y-10806000D01*
X15676000Y-10960000D02*
X15776000Y-11060000D01*
X15776000Y-10960000D02*
X15676000Y-11060000D01*
X15676000Y-11214000D02*
X15776000Y-11314000D01*
X15776000Y-11214000D02*
X15676000Y-11314000D01*
X15676000Y-11468000D02*
X15776000Y-11568000D01*
X15776000Y-11468000D02*
X15676000Y-11568000D01*
X15676000Y-11722000D02*
X15776000Y-11822000D01*
X15776000Y-11722000D02*
X15676000Y-11822000D01*
X15676000Y-11976000D02*
X15776000Y-12076000D01*
X15776000Y-11976000D02*
X15676000Y-12076000D01*
X15676000Y-12230000D02*
X15776000Y-12330000D01*
X15776000Y-12230000D02*
X15676000Y-12330000D01*
X15676000Y-12484000D02*
X15776000Y-12584000D01*
X15776000Y-12484000D02*
X15676000Y-12584000D01*
X15676000Y-12738000D02*
X15776000Y-12838000D01*
X15776000Y-12738000D02*
X15676000Y-12838000D01*
X15676000Y-12992000D02*
X15776000Y-13092000D01*
X15776000Y-12992000D02*
X15676000Y-13092000D01*
X15676000Y-13246000D02*
X15776000Y-13346000D01*
X15776000Y-13246000D02*
X15676000Y-13346000D01*
X15676000Y-13500000D02*
X15776000Y-13600000D01*
X15776000Y-13500000D02*
X15676000Y-13600000D01*
X17200000Y-9944000D02*
X17300000Y-10044000D01*
X17300000Y-9944000D02*
X17200000Y-10044000D01*
X17200000Y-10198000D02*
X17300000Y-10298000D01*
X17300000Y-10198000D02*
X17200000Y-10298000D01*
X17200000Y-10452000D02*
X17300000Y-10552000D01*
X17300000Y-10452000D02*
X17200000Y-10552000D01*
X17200000Y-10706000D02*
X17300000Y-10806000D01*
X17300000Y-10706000D02*
X17200000Y-10806000D01*
X17200000Y-10960000D02*
X17300000Y-11060000D01*
X17300000Y-10960000D02*
X17200000Y-11060000D01*
X17200000Y-11214000D02*
X17300000Y-11314000D01*
X17300000Y-11214000D02*
X17200000Y-11314000D01*
X17200000Y-11468000D02*
X17300000Y-11568000D01*
X17300000Y-11468000D02*
X17200000Y-11568000D01*
X17200000Y-11722000D02*
X17300000Y-11822000D01*
X17300000Y-11722000D02*
X17200000Y-11822000D01*
X17200000Y-11976000D02*
X17300000Y-12076000D01*
X17300000Y-11976000D02*
X17200000Y-12076000D01*
X17200000Y-12230000D02*
X17300000Y-12330000D01*
X17300000Y-12230000D02*
X17200000Y-12330000D01*
X17200000Y-12484000D02*
X17300000Y-12584000D01*
X17300000Y-12484000D02*
X17200000Y-12584000D01*
X17200000Y-12738000D02*
X17300000Y-12838000D01*
X17300000Y-12738000D02*
X17200000Y-12838000D01*
X17200000Y-12992000D02*
X17300000Y-13092000D01*
X17300000Y-12992000D02*
X17200000Y-13092000D01*
X17200000Y-13246000D02*
X17300000Y-13346000D01*
X17300000Y-13246000D02*
X17200000Y-13346000D01*
X17200000Y-13500000D02*
X17300000Y-13600000D01*
X17300000Y-13500000D02*
X17200000Y-13600000D01*
D11*
X9100000Y-6000000D02*
G75*
G02*
X8900000Y-6000000I-100000J0D01*
G01*
X8900000Y-6000000D02*
G75*
G02*
X9100000Y-6000000I100000J0D01*
G01*
X9100000Y-13000000D02*
G75*
G02*
X8900000Y-13000000I-100000J0D01*
G01*
X8900000Y-13000000D02*
G75*
G02*
X9100000Y-13000000I100000J0D01*
G01*
X9600000Y-5500000D02*
G75*
G02*
X9400000Y-5500000I-100000J0D01*
G01*
X9400000Y-5500000D02*
G75*
G02*
X9600000Y-5500000I100000J0D01*
G01*
X9600000Y-13500000D02*
G75*
G02*
X9400000Y-13500000I-100000J0D01*
G01*
X9400000Y-13500000D02*
G75*
G02*
X9600000Y-13500000I100000J0D01*
G01*
X10900000Y-6000000D02*
G75*
G02*
X10700000Y-6000000I-100000J0D01*
G01*
X10700000Y-6000000D02*
G75*
G02*
X10900000Y-6000000I100000J0D01*
G01*
X10900000Y-13000000D02*
G75*
G02*
X10700000Y-13000000I-100000J0D01*
G01*
X10700000Y-13000000D02*
G75*
G02*
X10900000Y-13000000I100000J0D01*
G01*
X11400000Y-5500000D02*
G75*
G02*
X11200000Y-5500000I-100000J0D01*
G01*
X11200000Y-5500000D02*
G75*
G02*
X11400000Y-5500000I100000J0D01*
G01*
X11400000Y-13500000D02*
G75*
G02*
X11200000Y-13500000I-100000J0D01*
G01*
X11200000Y-13500000D02*
G75*
G02*
X11400000Y-13500000I100000J0D01*
G01*
X12700000Y-6000000D02*
G75*
G02*
X12500000Y-6000000I-100000J0D01*
G01*
X12500000Y-6000000D02*
G75*
G02*
X12700000Y-6000000I100000J0D01*
G01*
X12700000Y-13000000D02*
G75*
G02*
X12500000Y-13000000I-100000J0D01*
G01*
X12500000Y-13000000D02*
G75*
G02*
X12700000Y-13000000I100000J0D01*
G01*
X13200000Y-5500000D02*
G75*
G02*
X13000000Y-5500000I-100000J0D01*
G01*
X13000000Y-5500000D02*
G75*
G02*
X13200000Y-5500000I100000J0D01*
G01*
X13200000Y-13500000D02*
G75*
G02*
X13000000Y-13500000I-100000J0D01*
G01*
X13000000Y-13500000D02*
G75*
G02*
X13200000Y-13500000I100000J0D01*
G01*
X14500000Y-6000000D02*
G75*
G02*
X14300000Y-6000000I-100000J0D01*
G01*
X14300000Y-6000000D02*
G75*
G02*
X14500000Y-6000000I100000J0D01*
G01*
X14500000Y-13000000D02*
G75*
G02*
X14300000Y-13000000I-100000J0D01*
G01*
X14300000Y-13000000D02*
G75*
G02*
X14500000Y-13000000I100000J0D01*
G01*
X15000000Y-5500000D02*
G75*
G02*
X14800000Y-5500000I-100000J0D01*
G01*
X14800000Y-5500000D02*
G75*
G02*
X15000000Y-5500000I100000J0D01*
G01*
X15000000Y-13500000D02*
G75*
G02*
X14800000Y-13500000I-100000J0D01*
G01*
X14800000Y-13500000D02*
G75*
G02*
X15000000Y-13500000I100000J0D01*
G01*
X18150000Y-6000000D02*
G75*
G02*
X17950000Y-6000000I-100000J0D01*
G01*
X17950000Y-6000000D02*
G75*
G02*
X18150000Y-6000000I100000J0D01*
G01*
X18150000Y-13000000D02*
G75*
G02*
X17950000Y-13000000I-100000J0D01*
G01*
X17950000Y-13000000D02*
G75*
G02*
X18150000Y-13000000I100000J0D01*
G01*
X18650000Y-5500000D02*
G75*
G02*
X18450000Y-5500000I-100000J0D01*
G01*
X18450000Y-5500000D02*
G75*
G02*
X18650000Y-5500000I100000J0D01*
G01*
X18650000Y-13500000D02*
G75*
G02*
X18450000Y-13500000I-100000J0D01*
G01*
X18450000Y-13500000D02*
G75*
G02*
X18650000Y-13500000I100000J0D01*
G01*
X19950000Y-6000000D02*
G75*
G02*
X19750000Y-6000000I-100000J0D01*
G01*
X19750000Y-6000000D02*
G75*
G02*
X19950000Y-6000000I100000J0D01*
G01*
X19950000Y-13000000D02*
G75*
G02*
X19750000Y-13000000I-100000J0D01*
G01*
X19750000Y-13000000D02*
G75*
G02*
X19950000Y-13000000I100000J0D01*
G01*
X20450000Y-5500000D02*
G75*
G02*
X20250000Y-5500000I-100000J0D01*
G01*
X20250000Y-5500000D02*
G75*
G02*
X20450000Y-5500000I100000J0D01*
G01*
X20450000Y-13500000D02*
G75*
G02*
X20250000Y-13500000I-100000J0D01*
G01*
X20250000Y-13500000D02*
G75*
G02*
X20450000Y-13500000I100000J0D01*
G01*
X7774177Y-14794484D02*
X7774177Y-14594484D01*
X7774177Y-14594484D02*
X7821796Y-14594484D01*
X7821796Y-14594484D02*
X7850367Y-14604008D01*
X7850367Y-14604008D02*
X7869415Y-14623055D01*
X7869415Y-14623055D02*
X7878939Y-14642103D01*
X7878939Y-14642103D02*
X7888462Y-14680198D01*
X7888462Y-14680198D02*
X7888462Y-14708769D01*
X7888462Y-14708769D02*
X7878939Y-14746865D01*
X7878939Y-14746865D02*
X7869415Y-14765912D01*
X7869415Y-14765912D02*
X7850367Y-14784960D01*
X7850367Y-14784960D02*
X7821796Y-14794484D01*
X7821796Y-14794484D02*
X7774177Y-14794484D01*
X7974177Y-14794484D02*
X7974177Y-14661150D01*
X7974177Y-14699246D02*
X7983701Y-14680198D01*
X7983701Y-14680198D02*
X7993224Y-14670674D01*
X7993224Y-14670674D02*
X8012272Y-14661150D01*
X8012272Y-14661150D02*
X8031320Y-14661150D01*
X8097986Y-14794484D02*
X8097986Y-14661150D01*
X8097986Y-14594484D02*
X8088462Y-14604008D01*
X8088462Y-14604008D02*
X8097986Y-14613531D01*
X8097986Y-14613531D02*
X8107510Y-14604008D01*
X8107510Y-14604008D02*
X8097986Y-14594484D01*
X8097986Y-14594484D02*
X8097986Y-14613531D01*
X8221796Y-14794484D02*
X8202748Y-14784960D01*
X8202748Y-14784960D02*
X8193224Y-14765912D01*
X8193224Y-14765912D02*
X8193224Y-14594484D01*
X8326558Y-14794484D02*
X8307510Y-14784960D01*
X8307510Y-14784960D02*
X8297986Y-14765912D01*
X8297986Y-14765912D02*
X8297986Y-14594484D01*
X8555129Y-14794484D02*
X8555129Y-14594484D01*
X8555129Y-14594484D02*
X8621796Y-14737341D01*
X8621796Y-14737341D02*
X8688463Y-14594484D01*
X8688463Y-14594484D02*
X8688463Y-14794484D01*
X8869415Y-14794484D02*
X8869415Y-14689722D01*
X8869415Y-14689722D02*
X8859891Y-14670674D01*
X8859891Y-14670674D02*
X8840844Y-14661150D01*
X8840844Y-14661150D02*
X8802748Y-14661150D01*
X8802748Y-14661150D02*
X8783701Y-14670674D01*
X8869415Y-14784960D02*
X8850367Y-14794484D01*
X8850367Y-14794484D02*
X8802748Y-14794484D01*
X8802748Y-14794484D02*
X8783701Y-14784960D01*
X8783701Y-14784960D02*
X8774177Y-14765912D01*
X8774177Y-14765912D02*
X8774177Y-14746865D01*
X8774177Y-14746865D02*
X8783701Y-14727817D01*
X8783701Y-14727817D02*
X8802748Y-14718293D01*
X8802748Y-14718293D02*
X8850367Y-14718293D01*
X8850367Y-14718293D02*
X8869415Y-14708769D01*
X8964653Y-14661150D02*
X8964653Y-14861150D01*
X8964653Y-14670674D02*
X8983701Y-14661150D01*
X8983701Y-14661150D02*
X9021796Y-14661150D01*
X9021796Y-14661150D02*
X9040844Y-14670674D01*
X9040844Y-14670674D02*
X9050367Y-14680198D01*
X9050367Y-14680198D02*
X9059891Y-14699246D01*
X9059891Y-14699246D02*
X9059891Y-14756388D01*
X9059891Y-14756388D02*
X9050367Y-14775436D01*
X9050367Y-14775436D02*
X9040844Y-14784960D01*
X9040844Y-14784960D02*
X9021796Y-14794484D01*
X9021796Y-14794484D02*
X8983701Y-14794484D01*
X8983701Y-14794484D02*
X8964653Y-14784960D01*
X9145605Y-14775436D02*
X9155129Y-14784960D01*
X9155129Y-14784960D02*
X9145605Y-14794484D01*
X9145605Y-14794484D02*
X9136082Y-14784960D01*
X9136082Y-14784960D02*
X9145605Y-14775436D01*
X9145605Y-14775436D02*
X9145605Y-14794484D01*
X9145605Y-14670674D02*
X9155129Y-14680198D01*
X9155129Y-14680198D02*
X9145605Y-14689722D01*
X9145605Y-14689722D02*
X9136082Y-14680198D01*
X9136082Y-14680198D02*
X9145605Y-14670674D01*
X9145605Y-14670674D02*
X9145605Y-14689722D01*
D10*
X7413400Y-15073000D02*
X7513400Y-15173000D01*
X7513400Y-15073000D02*
X7413400Y-15173000D01*
D11*
X7878939Y-15214484D02*
X7764653Y-15214484D01*
X7821796Y-15214484D02*
X7821796Y-15014484D01*
X7821796Y-15014484D02*
X7802748Y-15043055D01*
X7802748Y-15043055D02*
X7783701Y-15062103D01*
X7783701Y-15062103D02*
X7764653Y-15071627D01*
X7964653Y-15195436D02*
X7974177Y-15204960D01*
X7974177Y-15204960D02*
X7964653Y-15214484D01*
X7964653Y-15214484D02*
X7955129Y-15204960D01*
X7955129Y-15204960D02*
X7964653Y-15195436D01*
X7964653Y-15195436D02*
X7964653Y-15214484D01*
X8097986Y-15014484D02*
X8117034Y-15014484D01*
X8117034Y-15014484D02*
X8136082Y-15024008D01*
X8136082Y-15024008D02*
X8145605Y-15033531D01*
X8145605Y-15033531D02*
X8155129Y-15052579D01*
X8155129Y-15052579D02*
X8164653Y-15090674D01*
X8164653Y-15090674D02*
X8164653Y-15138293D01*
X8164653Y-15138293D02*
X8155129Y-15176388D01*
X8155129Y-15176388D02*
X8145605Y-15195436D01*
X8145605Y-15195436D02*
X8136082Y-15204960D01*
X8136082Y-15204960D02*
X8117034Y-15214484D01*
X8117034Y-15214484D02*
X8097986Y-15214484D01*
X8097986Y-15214484D02*
X8078939Y-15204960D01*
X8078939Y-15204960D02*
X8069415Y-15195436D01*
X8069415Y-15195436D02*
X8059891Y-15176388D01*
X8059891Y-15176388D02*
X8050367Y-15138293D01*
X8050367Y-15138293D02*
X8050367Y-15090674D01*
X8050367Y-15090674D02*
X8059891Y-15052579D01*
X8059891Y-15052579D02*
X8069415Y-15033531D01*
X8069415Y-15033531D02*
X8078939Y-15024008D01*
X8078939Y-15024008D02*
X8097986Y-15014484D01*
X8288462Y-15014484D02*
X8307510Y-15014484D01*
X8307510Y-15014484D02*
X8326558Y-15024008D01*
X8326558Y-15024008D02*
X8336082Y-15033531D01*
X8336082Y-15033531D02*
X8345605Y-15052579D01*
X8345605Y-15052579D02*
X8355129Y-15090674D01*
X8355129Y-15090674D02*
X8355129Y-15138293D01*
X8355129Y-15138293D02*
X8345605Y-15176388D01*
X8345605Y-15176388D02*
X8336082Y-15195436D01*
X8336082Y-15195436D02*
X8326558Y-15204960D01*
X8326558Y-15204960D02*
X8307510Y-15214484D01*
X8307510Y-15214484D02*
X8288462Y-15214484D01*
X8288462Y-15214484D02*
X8269415Y-15204960D01*
X8269415Y-15204960D02*
X8259891Y-15195436D01*
X8259891Y-15195436D02*
X8250367Y-15176388D01*
X8250367Y-15176388D02*
X8240843Y-15138293D01*
X8240843Y-15138293D02*
X8240843Y-15090674D01*
X8240843Y-15090674D02*
X8250367Y-15052579D01*
X8250367Y-15052579D02*
X8259891Y-15033531D01*
X8259891Y-15033531D02*
X8269415Y-15024008D01*
X8269415Y-15024008D02*
X8288462Y-15014484D01*
X8478939Y-15014484D02*
X8497986Y-15014484D01*
X8497986Y-15014484D02*
X8517034Y-15024008D01*
X8517034Y-15024008D02*
X8526558Y-15033531D01*
X8526558Y-15033531D02*
X8536082Y-15052579D01*
X8536082Y-15052579D02*
X8545605Y-15090674D01*
X8545605Y-15090674D02*
X8545605Y-15138293D01*
X8545605Y-15138293D02*
X8536082Y-15176388D01*
X8536082Y-15176388D02*
X8526558Y-15195436D01*
X8526558Y-15195436D02*
X8517034Y-15204960D01*
X8517034Y-15204960D02*
X8497986Y-15214484D01*
X8497986Y-15214484D02*
X8478939Y-15214484D01*
X8478939Y-15214484D02*
X8459891Y-15204960D01*
X8459891Y-15204960D02*
X8450367Y-15195436D01*
X8450367Y-15195436D02*
X8440844Y-15176388D01*
X8440844Y-15176388D02*
X8431320Y-15138293D01*
X8431320Y-15138293D02*
X8431320Y-15090674D01*
X8431320Y-15090674D02*
X8440844Y-15052579D01*
X8440844Y-15052579D02*
X8450367Y-15033531D01*
X8450367Y-15033531D02*
X8459891Y-15024008D01*
X8459891Y-15024008D02*
X8478939Y-15014484D01*
X8631320Y-15214484D02*
X8631320Y-15081150D01*
X8631320Y-15100198D02*
X8640844Y-15090674D01*
X8640844Y-15090674D02*
X8659891Y-15081150D01*
X8659891Y-15081150D02*
X8688463Y-15081150D01*
X8688463Y-15081150D02*
X8707510Y-15090674D01*
X8707510Y-15090674D02*
X8717034Y-15109722D01*
X8717034Y-15109722D02*
X8717034Y-15214484D01*
X8717034Y-15109722D02*
X8726558Y-15090674D01*
X8726558Y-15090674D02*
X8745605Y-15081150D01*
X8745605Y-15081150D02*
X8774177Y-15081150D01*
X8774177Y-15081150D02*
X8793225Y-15090674D01*
X8793225Y-15090674D02*
X8802748Y-15109722D01*
X8802748Y-15109722D02*
X8802748Y-15214484D01*
X8897986Y-15214484D02*
X8897986Y-15081150D01*
X8897986Y-15100198D02*
X8907510Y-15090674D01*
X8907510Y-15090674D02*
X8926558Y-15081150D01*
X8926558Y-15081150D02*
X8955129Y-15081150D01*
X8955129Y-15081150D02*
X8974177Y-15090674D01*
X8974177Y-15090674D02*
X8983701Y-15109722D01*
X8983701Y-15109722D02*
X8983701Y-15214484D01*
X8983701Y-15109722D02*
X8993225Y-15090674D01*
X8993225Y-15090674D02*
X9012272Y-15081150D01*
X9012272Y-15081150D02*
X9040844Y-15081150D01*
X9040844Y-15081150D02*
X9059891Y-15090674D01*
X9059891Y-15090674D02*
X9069415Y-15109722D01*
X9069415Y-15109722D02*
X9069415Y-15214484D01*
X9459891Y-15004960D02*
X9288463Y-15262103D01*
X9717034Y-15014484D02*
X9736082Y-15014484D01*
X9736082Y-15014484D02*
X9755129Y-15024008D01*
X9755129Y-15024008D02*
X9764653Y-15033531D01*
X9764653Y-15033531D02*
X9774177Y-15052579D01*
X9774177Y-15052579D02*
X9783701Y-15090674D01*
X9783701Y-15090674D02*
X9783701Y-15138293D01*
X9783701Y-15138293D02*
X9774177Y-15176388D01*
X9774177Y-15176388D02*
X9764653Y-15195436D01*
X9764653Y-15195436D02*
X9755129Y-15204960D01*
X9755129Y-15204960D02*
X9736082Y-15214484D01*
X9736082Y-15214484D02*
X9717034Y-15214484D01*
X9717034Y-15214484D02*
X9697987Y-15204960D01*
X9697987Y-15204960D02*
X9688463Y-15195436D01*
X9688463Y-15195436D02*
X9678939Y-15176388D01*
X9678939Y-15176388D02*
X9669415Y-15138293D01*
X9669415Y-15138293D02*
X9669415Y-15090674D01*
X9669415Y-15090674D02*
X9678939Y-15052579D01*
X9678939Y-15052579D02*
X9688463Y-15033531D01*
X9688463Y-15033531D02*
X9697987Y-15024008D01*
X9697987Y-15024008D02*
X9717034Y-15014484D01*
X9869415Y-15195436D02*
X9878939Y-15204960D01*
X9878939Y-15204960D02*
X9869415Y-15214484D01*
X9869415Y-15214484D02*
X9859891Y-15204960D01*
X9859891Y-15204960D02*
X9869415Y-15195436D01*
X9869415Y-15195436D02*
X9869415Y-15214484D01*
X10002748Y-15014484D02*
X10021796Y-15014484D01*
X10021796Y-15014484D02*
X10040844Y-15024008D01*
X10040844Y-15024008D02*
X10050368Y-15033531D01*
X10050368Y-15033531D02*
X10059891Y-15052579D01*
X10059891Y-15052579D02*
X10069415Y-15090674D01*
X10069415Y-15090674D02*
X10069415Y-15138293D01*
X10069415Y-15138293D02*
X10059891Y-15176388D01*
X10059891Y-15176388D02*
X10050368Y-15195436D01*
X10050368Y-15195436D02*
X10040844Y-15204960D01*
X10040844Y-15204960D02*
X10021796Y-15214484D01*
X10021796Y-15214484D02*
X10002748Y-15214484D01*
X10002748Y-15214484D02*
X9983701Y-15204960D01*
X9983701Y-15204960D02*
X9974177Y-15195436D01*
X9974177Y-15195436D02*
X9964653Y-15176388D01*
X9964653Y-15176388D02*
X9955129Y-15138293D01*
X9955129Y-15138293D02*
X9955129Y-15090674D01*
X9955129Y-15090674D02*
X9964653Y-15052579D01*
X9964653Y-15052579D02*
X9974177Y-15033531D01*
X9974177Y-15033531D02*
X9983701Y-15024008D01*
X9983701Y-15024008D02*
X10002748Y-15014484D01*
X10136082Y-15014484D02*
X10259891Y-15014484D01*
X10259891Y-15014484D02*
X10193225Y-15090674D01*
X10193225Y-15090674D02*
X10221796Y-15090674D01*
X10221796Y-15090674D02*
X10240844Y-15100198D01*
X10240844Y-15100198D02*
X10250368Y-15109722D01*
X10250368Y-15109722D02*
X10259891Y-15128769D01*
X10259891Y-15128769D02*
X10259891Y-15176388D01*
X10259891Y-15176388D02*
X10250368Y-15195436D01*
X10250368Y-15195436D02*
X10240844Y-15204960D01*
X10240844Y-15204960D02*
X10221796Y-15214484D01*
X10221796Y-15214484D02*
X10164653Y-15214484D01*
X10164653Y-15214484D02*
X10145606Y-15204960D01*
X10145606Y-15204960D02*
X10136082Y-15195436D01*
X10355129Y-15214484D02*
X10393225Y-15214484D01*
X10393225Y-15214484D02*
X10412272Y-15204960D01*
X10412272Y-15204960D02*
X10421796Y-15195436D01*
X10421796Y-15195436D02*
X10440844Y-15166865D01*
X10440844Y-15166865D02*
X10450368Y-15128769D01*
X10450368Y-15128769D02*
X10450368Y-15052579D01*
X10450368Y-15052579D02*
X10440844Y-15033531D01*
X10440844Y-15033531D02*
X10431320Y-15024008D01*
X10431320Y-15024008D02*
X10412272Y-15014484D01*
X10412272Y-15014484D02*
X10374177Y-15014484D01*
X10374177Y-15014484D02*
X10355129Y-15024008D01*
X10355129Y-15024008D02*
X10345606Y-15033531D01*
X10345606Y-15033531D02*
X10336082Y-15052579D01*
X10336082Y-15052579D02*
X10336082Y-15100198D01*
X10336082Y-15100198D02*
X10345606Y-15119246D01*
X10345606Y-15119246D02*
X10355129Y-15128769D01*
X10355129Y-15128769D02*
X10374177Y-15138293D01*
X10374177Y-15138293D02*
X10412272Y-15138293D01*
X10412272Y-15138293D02*
X10431320Y-15128769D01*
X10431320Y-15128769D02*
X10440844Y-15119246D01*
X10440844Y-15119246D02*
X10450368Y-15100198D01*
X10621796Y-15081150D02*
X10621796Y-15214484D01*
X10574177Y-15004960D02*
X10526558Y-15147817D01*
X10526558Y-15147817D02*
X10650368Y-15147817D01*
X10717034Y-15014484D02*
X10717034Y-15052579D01*
X10793225Y-15014484D02*
X10793225Y-15052579D01*
X11088463Y-15290674D02*
X11078939Y-15281150D01*
X11078939Y-15281150D02*
X11059891Y-15252579D01*
X11059891Y-15252579D02*
X11050368Y-15233531D01*
X11050368Y-15233531D02*
X11040844Y-15204960D01*
X11040844Y-15204960D02*
X11031320Y-15157341D01*
X11031320Y-15157341D02*
X11031320Y-15119246D01*
X11031320Y-15119246D02*
X11040844Y-15071627D01*
X11040844Y-15071627D02*
X11050368Y-15043055D01*
X11050368Y-15043055D02*
X11059891Y-15024008D01*
X11059891Y-15024008D02*
X11078939Y-14995436D01*
X11078939Y-14995436D02*
X11088463Y-14985912D01*
X11145606Y-15014484D02*
X11269415Y-15014484D01*
X11269415Y-15014484D02*
X11202748Y-15090674D01*
X11202748Y-15090674D02*
X11231320Y-15090674D01*
X11231320Y-15090674D02*
X11250368Y-15100198D01*
X11250368Y-15100198D02*
X11259891Y-15109722D01*
X11259891Y-15109722D02*
X11269415Y-15128769D01*
X11269415Y-15128769D02*
X11269415Y-15176388D01*
X11269415Y-15176388D02*
X11259891Y-15195436D01*
X11259891Y-15195436D02*
X11250368Y-15204960D01*
X11250368Y-15204960D02*
X11231320Y-15214484D01*
X11231320Y-15214484D02*
X11174177Y-15214484D01*
X11174177Y-15214484D02*
X11155130Y-15204960D01*
X11155130Y-15204960D02*
X11145606Y-15195436D01*
X11393225Y-15014484D02*
X11412272Y-15014484D01*
X11412272Y-15014484D02*
X11431320Y-15024008D01*
X11431320Y-15024008D02*
X11440844Y-15033531D01*
X11440844Y-15033531D02*
X11450368Y-15052579D01*
X11450368Y-15052579D02*
X11459891Y-15090674D01*
X11459891Y-15090674D02*
X11459891Y-15138293D01*
X11459891Y-15138293D02*
X11450368Y-15176388D01*
X11450368Y-15176388D02*
X11440844Y-15195436D01*
X11440844Y-15195436D02*
X11431320Y-15204960D01*
X11431320Y-15204960D02*
X11412272Y-15214484D01*
X11412272Y-15214484D02*
X11393225Y-15214484D01*
X11393225Y-15214484D02*
X11374177Y-15204960D01*
X11374177Y-15204960D02*
X11364653Y-15195436D01*
X11364653Y-15195436D02*
X11355129Y-15176388D01*
X11355129Y-15176388D02*
X11345606Y-15138293D01*
X11345606Y-15138293D02*
X11345606Y-15090674D01*
X11345606Y-15090674D02*
X11355129Y-15052579D01*
X11355129Y-15052579D02*
X11364653Y-15033531D01*
X11364653Y-15033531D02*
X11374177Y-15024008D01*
X11374177Y-15024008D02*
X11393225Y-15014484D01*
X11697987Y-15214484D02*
X11697987Y-15014484D01*
X11783701Y-15214484D02*
X11783701Y-15109722D01*
X11783701Y-15109722D02*
X11774177Y-15090674D01*
X11774177Y-15090674D02*
X11755130Y-15081150D01*
X11755130Y-15081150D02*
X11726558Y-15081150D01*
X11726558Y-15081150D02*
X11707510Y-15090674D01*
X11707510Y-15090674D02*
X11697987Y-15100198D01*
X11907510Y-15214484D02*
X11888463Y-15204960D01*
X11888463Y-15204960D02*
X11878939Y-15195436D01*
X11878939Y-15195436D02*
X11869415Y-15176388D01*
X11869415Y-15176388D02*
X11869415Y-15119246D01*
X11869415Y-15119246D02*
X11878939Y-15100198D01*
X11878939Y-15100198D02*
X11888463Y-15090674D01*
X11888463Y-15090674D02*
X11907510Y-15081150D01*
X11907510Y-15081150D02*
X11936082Y-15081150D01*
X11936082Y-15081150D02*
X11955130Y-15090674D01*
X11955130Y-15090674D02*
X11964653Y-15100198D01*
X11964653Y-15100198D02*
X11974177Y-15119246D01*
X11974177Y-15119246D02*
X11974177Y-15176388D01*
X11974177Y-15176388D02*
X11964653Y-15195436D01*
X11964653Y-15195436D02*
X11955130Y-15204960D01*
X11955130Y-15204960D02*
X11936082Y-15214484D01*
X11936082Y-15214484D02*
X11907510Y-15214484D01*
X12088463Y-15214484D02*
X12069415Y-15204960D01*
X12069415Y-15204960D02*
X12059891Y-15185912D01*
X12059891Y-15185912D02*
X12059891Y-15014484D01*
X12240844Y-15204960D02*
X12221796Y-15214484D01*
X12221796Y-15214484D02*
X12183701Y-15214484D01*
X12183701Y-15214484D02*
X12164653Y-15204960D01*
X12164653Y-15204960D02*
X12155130Y-15185912D01*
X12155130Y-15185912D02*
X12155130Y-15109722D01*
X12155130Y-15109722D02*
X12164653Y-15090674D01*
X12164653Y-15090674D02*
X12183701Y-15081150D01*
X12183701Y-15081150D02*
X12221796Y-15081150D01*
X12221796Y-15081150D02*
X12240844Y-15090674D01*
X12240844Y-15090674D02*
X12250368Y-15109722D01*
X12250368Y-15109722D02*
X12250368Y-15128769D01*
X12250368Y-15128769D02*
X12155130Y-15147817D01*
X12326558Y-15204960D02*
X12345606Y-15214484D01*
X12345606Y-15214484D02*
X12383701Y-15214484D01*
X12383701Y-15214484D02*
X12402749Y-15204960D01*
X12402749Y-15204960D02*
X12412272Y-15185912D01*
X12412272Y-15185912D02*
X12412272Y-15176388D01*
X12412272Y-15176388D02*
X12402749Y-15157341D01*
X12402749Y-15157341D02*
X12383701Y-15147817D01*
X12383701Y-15147817D02*
X12355130Y-15147817D01*
X12355130Y-15147817D02*
X12336082Y-15138293D01*
X12336082Y-15138293D02*
X12326558Y-15119246D01*
X12326558Y-15119246D02*
X12326558Y-15109722D01*
X12326558Y-15109722D02*
X12336082Y-15090674D01*
X12336082Y-15090674D02*
X12355130Y-15081150D01*
X12355130Y-15081150D02*
X12383701Y-15081150D01*
X12383701Y-15081150D02*
X12402749Y-15090674D01*
X12478939Y-15290674D02*
X12488463Y-15281150D01*
X12488463Y-15281150D02*
X12507511Y-15252579D01*
X12507511Y-15252579D02*
X12517034Y-15233531D01*
X12517034Y-15233531D02*
X12526558Y-15204960D01*
X12526558Y-15204960D02*
X12536082Y-15157341D01*
X12536082Y-15157341D02*
X12536082Y-15119246D01*
X12536082Y-15119246D02*
X12526558Y-15071627D01*
X12526558Y-15071627D02*
X12517034Y-15043055D01*
X12517034Y-15043055D02*
X12507511Y-15024008D01*
X12507511Y-15024008D02*
X12488463Y-14995436D01*
X12488463Y-14995436D02*
X12478939Y-14985912D01*
X7513400Y-15387000D02*
G75*
G02*
X7313400Y-15387000I-100000J0D01*
G01*
X7313400Y-15387000D02*
G75*
G02*
X7513400Y-15387000I100000J0D01*
G01*
X7764653Y-15297531D02*
X7774177Y-15288008D01*
X7774177Y-15288008D02*
X7793224Y-15278484D01*
X7793224Y-15278484D02*
X7840843Y-15278484D01*
X7840843Y-15278484D02*
X7859891Y-15288008D01*
X7859891Y-15288008D02*
X7869415Y-15297531D01*
X7869415Y-15297531D02*
X7878939Y-15316579D01*
X7878939Y-15316579D02*
X7878939Y-15335627D01*
X7878939Y-15335627D02*
X7869415Y-15364198D01*
X7869415Y-15364198D02*
X7755129Y-15478484D01*
X7755129Y-15478484D02*
X7878939Y-15478484D01*
X7964653Y-15459436D02*
X7974177Y-15468960D01*
X7974177Y-15468960D02*
X7964653Y-15478484D01*
X7964653Y-15478484D02*
X7955129Y-15468960D01*
X7955129Y-15468960D02*
X7964653Y-15459436D01*
X7964653Y-15459436D02*
X7964653Y-15478484D01*
X8097986Y-15278484D02*
X8117034Y-15278484D01*
X8117034Y-15278484D02*
X8136082Y-15288008D01*
X8136082Y-15288008D02*
X8145605Y-15297531D01*
X8145605Y-15297531D02*
X8155129Y-15316579D01*
X8155129Y-15316579D02*
X8164653Y-15354674D01*
X8164653Y-15354674D02*
X8164653Y-15402293D01*
X8164653Y-15402293D02*
X8155129Y-15440388D01*
X8155129Y-15440388D02*
X8145605Y-15459436D01*
X8145605Y-15459436D02*
X8136082Y-15468960D01*
X8136082Y-15468960D02*
X8117034Y-15478484D01*
X8117034Y-15478484D02*
X8097986Y-15478484D01*
X8097986Y-15478484D02*
X8078939Y-15468960D01*
X8078939Y-15468960D02*
X8069415Y-15459436D01*
X8069415Y-15459436D02*
X8059891Y-15440388D01*
X8059891Y-15440388D02*
X8050367Y-15402293D01*
X8050367Y-15402293D02*
X8050367Y-15354674D01*
X8050367Y-15354674D02*
X8059891Y-15316579D01*
X8059891Y-15316579D02*
X8069415Y-15297531D01*
X8069415Y-15297531D02*
X8078939Y-15288008D01*
X8078939Y-15288008D02*
X8097986Y-15278484D01*
X8288462Y-15278484D02*
X8307510Y-15278484D01*
X8307510Y-15278484D02*
X8326558Y-15288008D01*
X8326558Y-15288008D02*
X8336082Y-15297531D01*
X8336082Y-15297531D02*
X8345605Y-15316579D01*
X8345605Y-15316579D02*
X8355129Y-15354674D01*
X8355129Y-15354674D02*
X8355129Y-15402293D01*
X8355129Y-15402293D02*
X8345605Y-15440388D01*
X8345605Y-15440388D02*
X8336082Y-15459436D01*
X8336082Y-15459436D02*
X8326558Y-15468960D01*
X8326558Y-15468960D02*
X8307510Y-15478484D01*
X8307510Y-15478484D02*
X8288462Y-15478484D01*
X8288462Y-15478484D02*
X8269415Y-15468960D01*
X8269415Y-15468960D02*
X8259891Y-15459436D01*
X8259891Y-15459436D02*
X8250367Y-15440388D01*
X8250367Y-15440388D02*
X8240843Y-15402293D01*
X8240843Y-15402293D02*
X8240843Y-15354674D01*
X8240843Y-15354674D02*
X8250367Y-15316579D01*
X8250367Y-15316579D02*
X8259891Y-15297531D01*
X8259891Y-15297531D02*
X8269415Y-15288008D01*
X8269415Y-15288008D02*
X8288462Y-15278484D01*
X8478939Y-15278484D02*
X8497986Y-15278484D01*
X8497986Y-15278484D02*
X8517034Y-15288008D01*
X8517034Y-15288008D02*
X8526558Y-15297531D01*
X8526558Y-15297531D02*
X8536082Y-15316579D01*
X8536082Y-15316579D02*
X8545605Y-15354674D01*
X8545605Y-15354674D02*
X8545605Y-15402293D01*
X8545605Y-15402293D02*
X8536082Y-15440388D01*
X8536082Y-15440388D02*
X8526558Y-15459436D01*
X8526558Y-15459436D02*
X8517034Y-15468960D01*
X8517034Y-15468960D02*
X8497986Y-15478484D01*
X8497986Y-15478484D02*
X8478939Y-15478484D01*
X8478939Y-15478484D02*
X8459891Y-15468960D01*
X8459891Y-15468960D02*
X8450367Y-15459436D01*
X8450367Y-15459436D02*
X8440844Y-15440388D01*
X8440844Y-15440388D02*
X8431320Y-15402293D01*
X8431320Y-15402293D02*
X8431320Y-15354674D01*
X8431320Y-15354674D02*
X8440844Y-15316579D01*
X8440844Y-15316579D02*
X8450367Y-15297531D01*
X8450367Y-15297531D02*
X8459891Y-15288008D01*
X8459891Y-15288008D02*
X8478939Y-15278484D01*
X8631320Y-15478484D02*
X8631320Y-15345150D01*
X8631320Y-15364198D02*
X8640844Y-15354674D01*
X8640844Y-15354674D02*
X8659891Y-15345150D01*
X8659891Y-15345150D02*
X8688463Y-15345150D01*
X8688463Y-15345150D02*
X8707510Y-15354674D01*
X8707510Y-15354674D02*
X8717034Y-15373722D01*
X8717034Y-15373722D02*
X8717034Y-15478484D01*
X8717034Y-15373722D02*
X8726558Y-15354674D01*
X8726558Y-15354674D02*
X8745605Y-15345150D01*
X8745605Y-15345150D02*
X8774177Y-15345150D01*
X8774177Y-15345150D02*
X8793225Y-15354674D01*
X8793225Y-15354674D02*
X8802748Y-15373722D01*
X8802748Y-15373722D02*
X8802748Y-15478484D01*
X8897986Y-15478484D02*
X8897986Y-15345150D01*
X8897986Y-15364198D02*
X8907510Y-15354674D01*
X8907510Y-15354674D02*
X8926558Y-15345150D01*
X8926558Y-15345150D02*
X8955129Y-15345150D01*
X8955129Y-15345150D02*
X8974177Y-15354674D01*
X8974177Y-15354674D02*
X8983701Y-15373722D01*
X8983701Y-15373722D02*
X8983701Y-15478484D01*
X8983701Y-15373722D02*
X8993225Y-15354674D01*
X8993225Y-15354674D02*
X9012272Y-15345150D01*
X9012272Y-15345150D02*
X9040844Y-15345150D01*
X9040844Y-15345150D02*
X9059891Y-15354674D01*
X9059891Y-15354674D02*
X9069415Y-15373722D01*
X9069415Y-15373722D02*
X9069415Y-15478484D01*
X9459891Y-15268960D02*
X9288463Y-15526103D01*
X9717034Y-15278484D02*
X9736082Y-15278484D01*
X9736082Y-15278484D02*
X9755129Y-15288008D01*
X9755129Y-15288008D02*
X9764653Y-15297531D01*
X9764653Y-15297531D02*
X9774177Y-15316579D01*
X9774177Y-15316579D02*
X9783701Y-15354674D01*
X9783701Y-15354674D02*
X9783701Y-15402293D01*
X9783701Y-15402293D02*
X9774177Y-15440388D01*
X9774177Y-15440388D02*
X9764653Y-15459436D01*
X9764653Y-15459436D02*
X9755129Y-15468960D01*
X9755129Y-15468960D02*
X9736082Y-15478484D01*
X9736082Y-15478484D02*
X9717034Y-15478484D01*
X9717034Y-15478484D02*
X9697987Y-15468960D01*
X9697987Y-15468960D02*
X9688463Y-15459436D01*
X9688463Y-15459436D02*
X9678939Y-15440388D01*
X9678939Y-15440388D02*
X9669415Y-15402293D01*
X9669415Y-15402293D02*
X9669415Y-15354674D01*
X9669415Y-15354674D02*
X9678939Y-15316579D01*
X9678939Y-15316579D02*
X9688463Y-15297531D01*
X9688463Y-15297531D02*
X9697987Y-15288008D01*
X9697987Y-15288008D02*
X9717034Y-15278484D01*
X9869415Y-15459436D02*
X9878939Y-15468960D01*
X9878939Y-15468960D02*
X9869415Y-15478484D01*
X9869415Y-15478484D02*
X9859891Y-15468960D01*
X9859891Y-15468960D02*
X9869415Y-15459436D01*
X9869415Y-15459436D02*
X9869415Y-15478484D01*
X10002748Y-15278484D02*
X10021796Y-15278484D01*
X10021796Y-15278484D02*
X10040844Y-15288008D01*
X10040844Y-15288008D02*
X10050368Y-15297531D01*
X10050368Y-15297531D02*
X10059891Y-15316579D01*
X10059891Y-15316579D02*
X10069415Y-15354674D01*
X10069415Y-15354674D02*
X10069415Y-15402293D01*
X10069415Y-15402293D02*
X10059891Y-15440388D01*
X10059891Y-15440388D02*
X10050368Y-15459436D01*
X10050368Y-15459436D02*
X10040844Y-15468960D01*
X10040844Y-15468960D02*
X10021796Y-15478484D01*
X10021796Y-15478484D02*
X10002748Y-15478484D01*
X10002748Y-15478484D02*
X9983701Y-15468960D01*
X9983701Y-15468960D02*
X9974177Y-15459436D01*
X9974177Y-15459436D02*
X9964653Y-15440388D01*
X9964653Y-15440388D02*
X9955129Y-15402293D01*
X9955129Y-15402293D02*
X9955129Y-15354674D01*
X9955129Y-15354674D02*
X9964653Y-15316579D01*
X9964653Y-15316579D02*
X9974177Y-15297531D01*
X9974177Y-15297531D02*
X9983701Y-15288008D01*
X9983701Y-15288008D02*
X10002748Y-15278484D01*
X10136082Y-15278484D02*
X10269415Y-15278484D01*
X10269415Y-15278484D02*
X10183701Y-15478484D01*
X10374177Y-15364198D02*
X10355129Y-15354674D01*
X10355129Y-15354674D02*
X10345606Y-15345150D01*
X10345606Y-15345150D02*
X10336082Y-15326103D01*
X10336082Y-15326103D02*
X10336082Y-15316579D01*
X10336082Y-15316579D02*
X10345606Y-15297531D01*
X10345606Y-15297531D02*
X10355129Y-15288008D01*
X10355129Y-15288008D02*
X10374177Y-15278484D01*
X10374177Y-15278484D02*
X10412272Y-15278484D01*
X10412272Y-15278484D02*
X10431320Y-15288008D01*
X10431320Y-15288008D02*
X10440844Y-15297531D01*
X10440844Y-15297531D02*
X10450368Y-15316579D01*
X10450368Y-15316579D02*
X10450368Y-15326103D01*
X10450368Y-15326103D02*
X10440844Y-15345150D01*
X10440844Y-15345150D02*
X10431320Y-15354674D01*
X10431320Y-15354674D02*
X10412272Y-15364198D01*
X10412272Y-15364198D02*
X10374177Y-15364198D01*
X10374177Y-15364198D02*
X10355129Y-15373722D01*
X10355129Y-15373722D02*
X10345606Y-15383246D01*
X10345606Y-15383246D02*
X10336082Y-15402293D01*
X10336082Y-15402293D02*
X10336082Y-15440388D01*
X10336082Y-15440388D02*
X10345606Y-15459436D01*
X10345606Y-15459436D02*
X10355129Y-15468960D01*
X10355129Y-15468960D02*
X10374177Y-15478484D01*
X10374177Y-15478484D02*
X10412272Y-15478484D01*
X10412272Y-15478484D02*
X10431320Y-15468960D01*
X10431320Y-15468960D02*
X10440844Y-15459436D01*
X10440844Y-15459436D02*
X10450368Y-15440388D01*
X10450368Y-15440388D02*
X10450368Y-15402293D01*
X10450368Y-15402293D02*
X10440844Y-15383246D01*
X10440844Y-15383246D02*
X10431320Y-15373722D01*
X10431320Y-15373722D02*
X10412272Y-15364198D01*
X10517034Y-15278484D02*
X10650368Y-15278484D01*
X10650368Y-15278484D02*
X10564653Y-15478484D01*
X10717034Y-15278484D02*
X10717034Y-15316579D01*
X10793225Y-15278484D02*
X10793225Y-15316579D01*
X11088463Y-15554674D02*
X11078939Y-15545150D01*
X11078939Y-15545150D02*
X11059891Y-15516579D01*
X11059891Y-15516579D02*
X11050368Y-15497531D01*
X11050368Y-15497531D02*
X11040844Y-15468960D01*
X11040844Y-15468960D02*
X11031320Y-15421341D01*
X11031320Y-15421341D02*
X11031320Y-15383246D01*
X11031320Y-15383246D02*
X11040844Y-15335627D01*
X11040844Y-15335627D02*
X11050368Y-15307055D01*
X11050368Y-15307055D02*
X11059891Y-15288008D01*
X11059891Y-15288008D02*
X11078939Y-15259436D01*
X11078939Y-15259436D02*
X11088463Y-15249912D01*
X11155130Y-15297531D02*
X11164653Y-15288008D01*
X11164653Y-15288008D02*
X11183701Y-15278484D01*
X11183701Y-15278484D02*
X11231320Y-15278484D01*
X11231320Y-15278484D02*
X11250368Y-15288008D01*
X11250368Y-15288008D02*
X11259891Y-15297531D01*
X11259891Y-15297531D02*
X11269415Y-15316579D01*
X11269415Y-15316579D02*
X11269415Y-15335627D01*
X11269415Y-15335627D02*
X11259891Y-15364198D01*
X11259891Y-15364198D02*
X11145606Y-15478484D01*
X11145606Y-15478484D02*
X11269415Y-15478484D01*
X11440844Y-15345150D02*
X11440844Y-15478484D01*
X11393225Y-15268960D02*
X11345606Y-15411817D01*
X11345606Y-15411817D02*
X11469415Y-15411817D01*
X11697987Y-15478484D02*
X11697987Y-15278484D01*
X11783701Y-15478484D02*
X11783701Y-15373722D01*
X11783701Y-15373722D02*
X11774177Y-15354674D01*
X11774177Y-15354674D02*
X11755130Y-15345150D01*
X11755130Y-15345150D02*
X11726558Y-15345150D01*
X11726558Y-15345150D02*
X11707510Y-15354674D01*
X11707510Y-15354674D02*
X11697987Y-15364198D01*
X11907510Y-15478484D02*
X11888463Y-15468960D01*
X11888463Y-15468960D02*
X11878939Y-15459436D01*
X11878939Y-15459436D02*
X11869415Y-15440388D01*
X11869415Y-15440388D02*
X11869415Y-15383246D01*
X11869415Y-15383246D02*
X11878939Y-15364198D01*
X11878939Y-15364198D02*
X11888463Y-15354674D01*
X11888463Y-15354674D02*
X11907510Y-15345150D01*
X11907510Y-15345150D02*
X11936082Y-15345150D01*
X11936082Y-15345150D02*
X11955130Y-15354674D01*
X11955130Y-15354674D02*
X11964653Y-15364198D01*
X11964653Y-15364198D02*
X11974177Y-15383246D01*
X11974177Y-15383246D02*
X11974177Y-15440388D01*
X11974177Y-15440388D02*
X11964653Y-15459436D01*
X11964653Y-15459436D02*
X11955130Y-15468960D01*
X11955130Y-15468960D02*
X11936082Y-15478484D01*
X11936082Y-15478484D02*
X11907510Y-15478484D01*
X12088463Y-15478484D02*
X12069415Y-15468960D01*
X12069415Y-15468960D02*
X12059891Y-15449912D01*
X12059891Y-15449912D02*
X12059891Y-15278484D01*
X12240844Y-15468960D02*
X12221796Y-15478484D01*
X12221796Y-15478484D02*
X12183701Y-15478484D01*
X12183701Y-15478484D02*
X12164653Y-15468960D01*
X12164653Y-15468960D02*
X12155130Y-15449912D01*
X12155130Y-15449912D02*
X12155130Y-15373722D01*
X12155130Y-15373722D02*
X12164653Y-15354674D01*
X12164653Y-15354674D02*
X12183701Y-15345150D01*
X12183701Y-15345150D02*
X12221796Y-15345150D01*
X12221796Y-15345150D02*
X12240844Y-15354674D01*
X12240844Y-15354674D02*
X12250368Y-15373722D01*
X12250368Y-15373722D02*
X12250368Y-15392769D01*
X12250368Y-15392769D02*
X12155130Y-15411817D01*
X12326558Y-15468960D02*
X12345606Y-15478484D01*
X12345606Y-15478484D02*
X12383701Y-15478484D01*
X12383701Y-15478484D02*
X12402749Y-15468960D01*
X12402749Y-15468960D02*
X12412272Y-15449912D01*
X12412272Y-15449912D02*
X12412272Y-15440388D01*
X12412272Y-15440388D02*
X12402749Y-15421341D01*
X12402749Y-15421341D02*
X12383701Y-15411817D01*
X12383701Y-15411817D02*
X12355130Y-15411817D01*
X12355130Y-15411817D02*
X12336082Y-15402293D01*
X12336082Y-15402293D02*
X12326558Y-15383246D01*
X12326558Y-15383246D02*
X12326558Y-15373722D01*
X12326558Y-15373722D02*
X12336082Y-15354674D01*
X12336082Y-15354674D02*
X12355130Y-15345150D01*
X12355130Y-15345150D02*
X12383701Y-15345150D01*
X12383701Y-15345150D02*
X12402749Y-15354674D01*
X12478939Y-15554674D02*
X12488463Y-15545150D01*
X12488463Y-15545150D02*
X12507511Y-15516579D01*
X12507511Y-15516579D02*
X12517034Y-15497531D01*
X12517034Y-15497531D02*
X12526558Y-15468960D01*
X12526558Y-15468960D02*
X12536082Y-15421341D01*
X12536082Y-15421341D02*
X12536082Y-15383246D01*
X12536082Y-15383246D02*
X12526558Y-15335627D01*
X12526558Y-15335627D02*
X12517034Y-15307055D01*
X12517034Y-15307055D02*
X12507511Y-15288008D01*
X12507511Y-15288008D02*
X12488463Y-15259436D01*
X12488463Y-15259436D02*
X12478939Y-15249912D01*
M02*
