G04 #@! TF.GenerationSoftware,KiCad,Pcbnew,8.0.1-8.0.1-1~ubuntu22.04.1*
G04 #@! TF.CreationDate,2024-03-31T12:28:40+01:00*
G04 #@! TF.ProjectId,Arduino_Mixer,41726475-696e-46f5-9f4d-697865722e6b,1.0*
G04 #@! TF.SameCoordinates,Original*
G04 #@! TF.FileFunction,Legend,Top*
G04 #@! TF.FilePolarity,Positive*
%FSLAX46Y46*%
G04 Gerber Fmt 4.6, Leading zero omitted, Abs format (unit mm)*
G04 Created by KiCad (PCBNEW 8.0.1-8.0.1-1~ubuntu22.04.1) date 2024-03-31 12:28:40*
%MOMM*%
%LPD*%
G01*
G04 APERTURE LIST*
%ADD10C,0.150000*%
%ADD11C,0.750000*%
%ADD12C,1.000000*%
%ADD13C,0.250000*%
%ADD14C,0.300000*%
%ADD15C,3.200000*%
%ADD16R,1.600000X1.600000*%
%ADD17O,1.600000X1.600000*%
%ADD18C,4.000000*%
G04 APERTURE END LIST*
D10*
X156000000Y-50500000D02*
X173750000Y-50500000D01*
X173750000Y-59250000D01*
X156000000Y-59250000D01*
X156000000Y-50500000D01*
D11*
G36*
X164577110Y-51239404D02*
G01*
X164577110Y-54905001D01*
X163773551Y-54905001D01*
X163773551Y-51239404D01*
X164577110Y-51239404D01*
G37*
G36*
X168342725Y-52333612D02*
G01*
X167734926Y-54905001D01*
X167051046Y-54905001D01*
X166625331Y-53381658D01*
X166191922Y-54905001D01*
X165512316Y-54905001D01*
X164900244Y-52333612D01*
X165673028Y-52333612D01*
X165928628Y-53883455D01*
X166339811Y-52333612D01*
X166902302Y-52333612D01*
X167311775Y-53854390D01*
X167569940Y-52333612D01*
X168342725Y-52333612D01*
G37*
G36*
X165302878Y-58405001D02*
G01*
X165278942Y-58132303D01*
X165159070Y-58259877D01*
X165000536Y-58367308D01*
X164819027Y-58433812D01*
X164641361Y-58458432D01*
X164587369Y-58459711D01*
X164403576Y-58445713D01*
X164237735Y-58403718D01*
X164072622Y-58323010D01*
X163959909Y-58235740D01*
X163843377Y-58087104D01*
X163771810Y-57916949D01*
X163733908Y-57738698D01*
X163719783Y-57564099D01*
X163718841Y-57501424D01*
X163718841Y-55833612D01*
X164522400Y-55833612D01*
X164522400Y-57506553D01*
X164554540Y-57682365D01*
X164677959Y-57807387D01*
X164851517Y-57839945D01*
X165027509Y-57816005D01*
X165183146Y-57725982D01*
X165250732Y-57637345D01*
X165250732Y-55833612D01*
X166054291Y-55833612D01*
X166054291Y-58405001D01*
X165302878Y-58405001D01*
G37*
G36*
X168762456Y-58405001D02*
G01*
X168041817Y-58405001D01*
X168004204Y-58132303D01*
X167887196Y-58259877D01*
X167738946Y-58367308D01*
X167575202Y-58433812D01*
X167395964Y-58459391D01*
X167372470Y-58459711D01*
X167196758Y-58446728D01*
X167012728Y-58398763D01*
X166851279Y-58315455D01*
X166712409Y-58196804D01*
X166627041Y-58090416D01*
X166527780Y-57919645D01*
X166462103Y-57758620D01*
X166414338Y-57584070D01*
X166384485Y-57395996D01*
X166372544Y-57194399D01*
X166372295Y-57159484D01*
X166372295Y-57150081D01*
X167175854Y-57150081D01*
X167184119Y-57323705D01*
X167212302Y-57493673D01*
X167260484Y-57641619D01*
X167372508Y-57783972D01*
X167536038Y-57838202D01*
X167578489Y-57839945D01*
X167757406Y-57808689D01*
X167902125Y-57704287D01*
X167958897Y-57617684D01*
X167958897Y-56623493D01*
X167855514Y-56486490D01*
X167692508Y-56409426D01*
X167582763Y-56398668D01*
X167411145Y-56436628D01*
X167284646Y-56561550D01*
X167266468Y-56596993D01*
X167211250Y-56767736D01*
X167184703Y-56943631D01*
X167175943Y-57128061D01*
X167175854Y-57150081D01*
X166372295Y-57150081D01*
X166372295Y-57099645D01*
X166378536Y-56920806D01*
X166402498Y-56720691D01*
X166444433Y-56536384D01*
X166504339Y-56367886D01*
X166582217Y-56215195D01*
X166627896Y-56144777D01*
X166751174Y-56002214D01*
X166897360Y-55894667D01*
X167066454Y-55822135D01*
X167258454Y-55784618D01*
X167378454Y-55778901D01*
X167563995Y-55800202D01*
X167732091Y-55864103D01*
X167882741Y-55970604D01*
X167958897Y-56048179D01*
X167958897Y-54739404D01*
X168762456Y-54739404D01*
X168762456Y-58405001D01*
G37*
G36*
X169237752Y-55122377D02*
G01*
X169276161Y-54952816D01*
X169359141Y-54847115D01*
X169509291Y-54763071D01*
X169675436Y-54739404D01*
X169851321Y-54766332D01*
X169990875Y-54847115D01*
X170089721Y-54987224D01*
X170113119Y-55122377D01*
X170074440Y-55291937D01*
X169990875Y-55397638D01*
X169841393Y-55481682D01*
X169675436Y-55505349D01*
X169499337Y-55478422D01*
X169359141Y-55397638D01*
X169260987Y-55257530D01*
X169237752Y-55122377D01*
G37*
G36*
X170096022Y-55778901D02*
G01*
X170096022Y-58350290D01*
X169292463Y-58350290D01*
X169292463Y-55778901D01*
X170096022Y-55778901D01*
G37*
G36*
X171907073Y-55788063D02*
G01*
X172076382Y-55815550D01*
X172260929Y-55872721D01*
X172425161Y-55956279D01*
X172569076Y-56066224D01*
X172653733Y-56154181D01*
X172762967Y-56301352D01*
X172849600Y-56462047D01*
X172913634Y-56636266D01*
X172955068Y-56824009D01*
X172973901Y-57025276D01*
X172975157Y-57095370D01*
X172975157Y-57144952D01*
X172967309Y-57317370D01*
X172937176Y-57511875D01*
X172884442Y-57692856D01*
X172809109Y-57860313D01*
X172711175Y-58014246D01*
X172653733Y-58086141D01*
X172523332Y-58213097D01*
X172372554Y-58313785D01*
X172201400Y-58388207D01*
X172009871Y-58436363D01*
X171834697Y-58456428D01*
X171722801Y-58459711D01*
X171540595Y-58450820D01*
X171340239Y-58416680D01*
X171159839Y-58356934D01*
X170999395Y-58271582D01*
X170858905Y-58160625D01*
X170796144Y-58095545D01*
X170687201Y-57952020D01*
X170600797Y-57795212D01*
X170536934Y-57625120D01*
X170495611Y-57441745D01*
X170476827Y-57245086D01*
X170475575Y-57176581D01*
X170475575Y-57144952D01*
X171279134Y-57144952D01*
X171288150Y-57319194D01*
X171318895Y-57490034D01*
X171371458Y-57639055D01*
X171485550Y-57776382D01*
X171649804Y-57835040D01*
X171727930Y-57839945D01*
X171896910Y-57811815D01*
X172036621Y-57707890D01*
X172077564Y-57639910D01*
X172134866Y-57469568D01*
X172162415Y-57296577D01*
X172171506Y-57116761D01*
X172171598Y-57095370D01*
X172160587Y-56908571D01*
X172127556Y-56740761D01*
X172078419Y-56604686D01*
X171964911Y-56463853D01*
X171800907Y-56403697D01*
X171722801Y-56398668D01*
X171553822Y-56427399D01*
X171414110Y-56533544D01*
X171373168Y-56602977D01*
X171315866Y-56774962D01*
X171288317Y-56946934D01*
X171279226Y-57123978D01*
X171279134Y-57144952D01*
X170475575Y-57144952D01*
X170475575Y-57095370D01*
X170483381Y-56922952D01*
X170513354Y-56728447D01*
X170565807Y-56547466D01*
X170640740Y-56380009D01*
X170738153Y-56226076D01*
X170795289Y-56154181D01*
X170925600Y-56026644D01*
X171076107Y-55925495D01*
X171246810Y-55850732D01*
X171437709Y-55802356D01*
X171612218Y-55782200D01*
X171723656Y-55778901D01*
X171907073Y-55788063D01*
G37*
D12*
G36*
X160543548Y-51078649D02*
G01*
X161060315Y-51174018D01*
X161534773Y-51332967D01*
X162025205Y-51592475D01*
X162194870Y-51711200D01*
X162581690Y-52085044D01*
X162857990Y-52542236D01*
X163009091Y-53010650D01*
X163075576Y-53542878D01*
X163079030Y-53706664D01*
X163079030Y-56950209D01*
X163103373Y-57484428D01*
X163187522Y-57993713D01*
X163367842Y-58487732D01*
X163386775Y-58523133D01*
X161100662Y-58523133D01*
X160916994Y-58049213D01*
X160890614Y-57944277D01*
X160487921Y-58312645D01*
X160005243Y-58560456D01*
X159509048Y-58679525D01*
X159095429Y-58706315D01*
X158595494Y-58667236D01*
X158075765Y-58529849D01*
X157601244Y-58293545D01*
X157310013Y-58081053D01*
X156948730Y-57700170D01*
X156705684Y-57260941D01*
X156580877Y-56763365D01*
X156562630Y-56461723D01*
X156568513Y-56400662D01*
X158858513Y-56400662D01*
X159015005Y-56870782D01*
X159078332Y-56937997D01*
X159529904Y-57138152D01*
X159630321Y-57143161D01*
X160119379Y-57068743D01*
X160360607Y-56952651D01*
X160729595Y-56612438D01*
X160783147Y-56525226D01*
X160783147Y-55267376D01*
X160038206Y-55267376D01*
X159533310Y-55334228D01*
X159114968Y-55616643D01*
X158900838Y-56060356D01*
X158858513Y-56400662D01*
X156568513Y-56400662D01*
X156614532Y-55923015D01*
X156770237Y-55445062D01*
X157029745Y-55027865D01*
X157393056Y-54671423D01*
X157867650Y-54385048D01*
X158378340Y-54201590D01*
X158886956Y-54094199D01*
X159461003Y-54032833D01*
X159989357Y-54016852D01*
X160783147Y-54016852D01*
X160783147Y-53626064D01*
X160710697Y-53134907D01*
X160388697Y-52730074D01*
X159867236Y-52610013D01*
X159381930Y-52704677D01*
X159055618Y-53098976D01*
X159014829Y-53411130D01*
X156718946Y-53411130D01*
X156789077Y-52868818D01*
X156999472Y-52379442D01*
X157304241Y-51988883D01*
X157605547Y-51723412D01*
X158022420Y-51459794D01*
X158497263Y-51260925D01*
X159030075Y-51126803D01*
X159532910Y-51063377D01*
X159984473Y-51046859D01*
X160543548Y-51078649D01*
G37*
D13*
X148500000Y-118333328D02*
X153500000Y-118333328D01*
X130500000Y-71750002D02*
X135500000Y-71750002D01*
X112500000Y-71750002D02*
X117500000Y-71750002D01*
X94500000Y-84999998D02*
X99500000Y-84999998D01*
X121500000Y-91666664D02*
X126500000Y-91666664D01*
X121500000Y-78333332D02*
X126500000Y-78333332D01*
X176000000Y-78333332D02*
X181000000Y-78333332D01*
X130500000Y-65083336D02*
X135500000Y-65083336D01*
X185000000Y-111666662D02*
X190000000Y-111666662D01*
X121500000Y-71666666D02*
X126500000Y-71666666D01*
X112500000Y-118416664D02*
X117500000Y-118416664D01*
X185000000Y-125000000D02*
X190000000Y-125000000D01*
X94500000Y-71666666D02*
X99500000Y-71666666D01*
X112500000Y-65083336D02*
X117500000Y-65083336D01*
X103500000Y-65000000D02*
X108500000Y-65000000D01*
X139500000Y-111666662D02*
X144500000Y-111666662D01*
X194000000Y-71666666D02*
X199000000Y-71666666D01*
X148500000Y-78333332D02*
X153500000Y-78333332D01*
X94500000Y-125000000D02*
X99500000Y-125000000D01*
X103500000Y-78333332D02*
X108500000Y-78333332D01*
X203000000Y-125000000D02*
X208000000Y-125000000D01*
X203000000Y-104999996D02*
X208000000Y-104999996D01*
X130500000Y-98416666D02*
X135500000Y-98416666D01*
X103500000Y-84999998D02*
X108500000Y-84999998D01*
X148500000Y-125000000D02*
X153500000Y-125000000D01*
X176000000Y-84999998D02*
X181000000Y-84999998D01*
X185000000Y-104999996D02*
X190000000Y-104999996D01*
X194000000Y-111666662D02*
X199000000Y-111666662D01*
X103500000Y-118333328D02*
X108500000Y-118333328D01*
X130500000Y-91750000D02*
X135500000Y-91750000D01*
X85500000Y-84999998D02*
X90500000Y-84999998D01*
X121500000Y-84999998D02*
X126500000Y-84999998D01*
X194000000Y-98333330D02*
X199000000Y-98333330D01*
X130500000Y-125083336D02*
X135500000Y-125083336D01*
X85500000Y-104999996D02*
X90500000Y-104999996D01*
X130500000Y-105083332D02*
X135500000Y-105083332D01*
X121500000Y-118333328D02*
X126500000Y-118333328D01*
X185000000Y-118333328D02*
X190000000Y-118333328D01*
X203000000Y-78333332D02*
X208000000Y-78333332D01*
X148500000Y-111666662D02*
X153500000Y-111666662D01*
X85500000Y-98333330D02*
X90500000Y-98333330D01*
X121500000Y-125000000D02*
X126500000Y-125000000D01*
X85500000Y-65000000D02*
X90500000Y-65000000D01*
X203000000Y-65000000D02*
X208000000Y-65000000D01*
X85500000Y-78333332D02*
X90500000Y-78333332D01*
X94500000Y-91666664D02*
X99500000Y-91666664D01*
X194000000Y-118333328D02*
X199000000Y-118333328D01*
X94500000Y-111666662D02*
X99500000Y-111666662D01*
X94500000Y-118333328D02*
X99500000Y-118333328D01*
X103500000Y-98333330D02*
X108500000Y-98333330D01*
X85500000Y-111666662D02*
X90500000Y-111666662D01*
X176000000Y-104999996D02*
X181000000Y-104999996D01*
X130500000Y-111749998D02*
X135500000Y-111749998D01*
X94500000Y-78333332D02*
X99500000Y-78333332D01*
X194000000Y-65000000D02*
X199000000Y-65000000D01*
X85500000Y-71666666D02*
X90500000Y-71666666D01*
X103500000Y-104999996D02*
X108500000Y-104999996D01*
X194000000Y-104999996D02*
X199000000Y-104999996D01*
X139500000Y-71666666D02*
X144500000Y-71666666D01*
X194000000Y-125000000D02*
X199000000Y-125000000D01*
X121500000Y-104999996D02*
X126500000Y-104999996D01*
X203000000Y-111666662D02*
X208000000Y-111666662D01*
X139500000Y-78333332D02*
X144500000Y-78333332D01*
X185000000Y-84999998D02*
X190000000Y-84999998D01*
X176000000Y-91666664D02*
X181000000Y-91666664D01*
X176000000Y-65000000D02*
X181000000Y-65000000D01*
X130500000Y-118416664D02*
X135500000Y-118416664D01*
X194000000Y-84999998D02*
X199000000Y-84999998D01*
X112500000Y-85083334D02*
X117500000Y-85083334D01*
X112500000Y-125083336D02*
X117500000Y-125083336D01*
X176000000Y-71666666D02*
X181000000Y-71666666D01*
X176000000Y-111666662D02*
X181000000Y-111666662D01*
X203000000Y-118333328D02*
X208000000Y-118333328D01*
X85500000Y-118333328D02*
X90500000Y-118333328D01*
X112500000Y-78416668D02*
X117500000Y-78416668D01*
X203000000Y-71666666D02*
X208000000Y-71666666D01*
X139500000Y-118333328D02*
X144500000Y-118333328D01*
X103500000Y-91666664D02*
X108500000Y-91666664D01*
X112500000Y-105083332D02*
X117500000Y-105083332D01*
X139500000Y-65000000D02*
X144500000Y-65000000D01*
X130500000Y-85083334D02*
X135500000Y-85083334D01*
X103500000Y-71666666D02*
X108500000Y-71666666D01*
X176000000Y-98333330D02*
X181000000Y-98333330D01*
X194000000Y-91666664D02*
X199000000Y-91666664D01*
X203000000Y-98333330D02*
X208000000Y-98333330D01*
X121500000Y-98333330D02*
X126500000Y-98333330D01*
X130500000Y-78416668D02*
X135500000Y-78416668D01*
X148500000Y-104999996D02*
X153500000Y-104999996D01*
X121500000Y-65000000D02*
X126500000Y-65000000D01*
X185000000Y-98333330D02*
X190000000Y-98333330D01*
X203000000Y-91666664D02*
X208000000Y-91666664D01*
X148500000Y-91666664D02*
X153500000Y-91666664D01*
X94500000Y-98333330D02*
X99500000Y-98333330D01*
X103500000Y-111666662D02*
X108500000Y-111666662D01*
X139500000Y-98333330D02*
X144500000Y-98333330D01*
X148500000Y-84999998D02*
X153500000Y-84999998D01*
X94500000Y-65000000D02*
X99500000Y-65000000D01*
X121500000Y-111666662D02*
X126500000Y-111666662D01*
X176000000Y-125000000D02*
X181000000Y-125000000D01*
X203000000Y-84999998D02*
X208000000Y-84999998D01*
X139500000Y-104999996D02*
X144500000Y-104999996D01*
X148500000Y-98333330D02*
X153500000Y-98333330D01*
X139500000Y-91666664D02*
X144500000Y-91666664D01*
X185000000Y-78333332D02*
X190000000Y-78333332D01*
X139500000Y-84999998D02*
X144500000Y-84999998D01*
X85500000Y-91666664D02*
X90500000Y-91666664D01*
X94500000Y-104999996D02*
X99500000Y-104999996D01*
X176000000Y-118333328D02*
X181000000Y-118333328D01*
X194000000Y-78333332D02*
X199000000Y-78333332D01*
X103500000Y-125000000D02*
X108500000Y-125000000D01*
X112500000Y-111749998D02*
X117500000Y-111749998D01*
X185000000Y-65000000D02*
X190000000Y-65000000D01*
X148500000Y-65000000D02*
X153500000Y-65000000D01*
X148500000Y-71666666D02*
X153500000Y-71666666D01*
X185000000Y-71666666D02*
X190000000Y-71666666D01*
X185000000Y-91666664D02*
X190000000Y-91666664D01*
X112500000Y-98416666D02*
X117500000Y-98416666D01*
X85500000Y-125000000D02*
X90500000Y-125000000D01*
X112500000Y-91750000D02*
X117500000Y-91750000D01*
X139500000Y-125000000D02*
X144500000Y-125000000D01*
D14*
X101840225Y-125800828D02*
X100983082Y-125800828D01*
X101411653Y-125800828D02*
X101411653Y-124300828D01*
X101411653Y-124300828D02*
X101268796Y-124515114D01*
X101268796Y-124515114D02*
X101125939Y-124657971D01*
X101125939Y-124657971D02*
X100983082Y-124729400D01*
X191411653Y-84300826D02*
X192411653Y-84300826D01*
X192411653Y-84300826D02*
X191768796Y-85800826D01*
X137125939Y-72467494D02*
X137411653Y-72467494D01*
X137411653Y-72467494D02*
X137554510Y-72396066D01*
X137554510Y-72396066D02*
X137625939Y-72324637D01*
X137625939Y-72324637D02*
X137768796Y-72110351D01*
X137768796Y-72110351D02*
X137840225Y-71824637D01*
X137840225Y-71824637D02*
X137840225Y-71253208D01*
X137840225Y-71253208D02*
X137768796Y-71110351D01*
X137768796Y-71110351D02*
X137697368Y-71038923D01*
X137697368Y-71038923D02*
X137554510Y-70967494D01*
X137554510Y-70967494D02*
X137268796Y-70967494D01*
X137268796Y-70967494D02*
X137125939Y-71038923D01*
X137125939Y-71038923D02*
X137054510Y-71110351D01*
X137054510Y-71110351D02*
X136983082Y-71253208D01*
X136983082Y-71253208D02*
X136983082Y-71610351D01*
X136983082Y-71610351D02*
X137054510Y-71753208D01*
X137054510Y-71753208D02*
X137125939Y-71824637D01*
X137125939Y-71824637D02*
X137268796Y-71896066D01*
X137268796Y-71896066D02*
X137554510Y-71896066D01*
X137554510Y-71896066D02*
X137697368Y-71824637D01*
X137697368Y-71824637D02*
X137768796Y-71753208D01*
X137768796Y-71753208D02*
X137840225Y-71610351D01*
X191625939Y-65800828D02*
X190768796Y-65800828D01*
X191197367Y-65800828D02*
X191197367Y-64300828D01*
X191197367Y-64300828D02*
X191054510Y-64515114D01*
X191054510Y-64515114D02*
X190911653Y-64657971D01*
X190911653Y-64657971D02*
X190768796Y-64729400D01*
X192554510Y-64300828D02*
X192697367Y-64300828D01*
X192697367Y-64300828D02*
X192840224Y-64372257D01*
X192840224Y-64372257D02*
X192911653Y-64443685D01*
X192911653Y-64443685D02*
X192983081Y-64586542D01*
X192983081Y-64586542D02*
X193054510Y-64872257D01*
X193054510Y-64872257D02*
X193054510Y-65229400D01*
X193054510Y-65229400D02*
X192983081Y-65515114D01*
X192983081Y-65515114D02*
X192911653Y-65657971D01*
X192911653Y-65657971D02*
X192840224Y-65729400D01*
X192840224Y-65729400D02*
X192697367Y-65800828D01*
X192697367Y-65800828D02*
X192554510Y-65800828D01*
X192554510Y-65800828D02*
X192411653Y-65729400D01*
X192411653Y-65729400D02*
X192340224Y-65657971D01*
X192340224Y-65657971D02*
X192268795Y-65515114D01*
X192268795Y-65515114D02*
X192197367Y-65229400D01*
X192197367Y-65229400D02*
X192197367Y-64872257D01*
X192197367Y-64872257D02*
X192268795Y-64586542D01*
X192268795Y-64586542D02*
X192340224Y-64443685D01*
X192340224Y-64443685D02*
X192411653Y-64372257D01*
X192411653Y-64372257D02*
X192554510Y-64300828D01*
X101268796Y-78277017D02*
X101125939Y-78205589D01*
X101125939Y-78205589D02*
X101054510Y-78134160D01*
X101054510Y-78134160D02*
X100983082Y-77991303D01*
X100983082Y-77991303D02*
X100983082Y-77919874D01*
X100983082Y-77919874D02*
X101054510Y-77777017D01*
X101054510Y-77777017D02*
X101125939Y-77705589D01*
X101125939Y-77705589D02*
X101268796Y-77634160D01*
X101268796Y-77634160D02*
X101554510Y-77634160D01*
X101554510Y-77634160D02*
X101697368Y-77705589D01*
X101697368Y-77705589D02*
X101768796Y-77777017D01*
X101768796Y-77777017D02*
X101840225Y-77919874D01*
X101840225Y-77919874D02*
X101840225Y-77991303D01*
X101840225Y-77991303D02*
X101768796Y-78134160D01*
X101768796Y-78134160D02*
X101697368Y-78205589D01*
X101697368Y-78205589D02*
X101554510Y-78277017D01*
X101554510Y-78277017D02*
X101268796Y-78277017D01*
X101268796Y-78277017D02*
X101125939Y-78348446D01*
X101125939Y-78348446D02*
X101054510Y-78419874D01*
X101054510Y-78419874D02*
X100983082Y-78562732D01*
X100983082Y-78562732D02*
X100983082Y-78848446D01*
X100983082Y-78848446D02*
X101054510Y-78991303D01*
X101054510Y-78991303D02*
X101125939Y-79062732D01*
X101125939Y-79062732D02*
X101268796Y-79134160D01*
X101268796Y-79134160D02*
X101554510Y-79134160D01*
X101554510Y-79134160D02*
X101697368Y-79062732D01*
X101697368Y-79062732D02*
X101768796Y-78991303D01*
X101768796Y-78991303D02*
X101840225Y-78848446D01*
X101840225Y-78848446D02*
X101840225Y-78562732D01*
X101840225Y-78562732D02*
X101768796Y-78419874D01*
X101768796Y-78419874D02*
X101697368Y-78348446D01*
X101697368Y-78348446D02*
X101554510Y-78277017D01*
X119697368Y-104800824D02*
X119697368Y-105800824D01*
X119340225Y-104229396D02*
X118983082Y-105300824D01*
X118983082Y-105300824D02*
X119911653Y-105300824D01*
X118911653Y-84300826D02*
X119911653Y-84300826D01*
X119911653Y-84300826D02*
X119268796Y-85800826D01*
X101125939Y-72467494D02*
X101411653Y-72467494D01*
X101411653Y-72467494D02*
X101554510Y-72396066D01*
X101554510Y-72396066D02*
X101625939Y-72324637D01*
X101625939Y-72324637D02*
X101768796Y-72110351D01*
X101768796Y-72110351D02*
X101840225Y-71824637D01*
X101840225Y-71824637D02*
X101840225Y-71253208D01*
X101840225Y-71253208D02*
X101768796Y-71110351D01*
X101768796Y-71110351D02*
X101697368Y-71038923D01*
X101697368Y-71038923D02*
X101554510Y-70967494D01*
X101554510Y-70967494D02*
X101268796Y-70967494D01*
X101268796Y-70967494D02*
X101125939Y-71038923D01*
X101125939Y-71038923D02*
X101054510Y-71110351D01*
X101054510Y-71110351D02*
X100983082Y-71253208D01*
X100983082Y-71253208D02*
X100983082Y-71610351D01*
X100983082Y-71610351D02*
X101054510Y-71753208D01*
X101054510Y-71753208D02*
X101125939Y-71824637D01*
X101125939Y-71824637D02*
X101268796Y-71896066D01*
X101268796Y-71896066D02*
X101554510Y-71896066D01*
X101554510Y-71896066D02*
X101697368Y-71824637D01*
X101697368Y-71824637D02*
X101768796Y-71753208D01*
X101768796Y-71753208D02*
X101840225Y-71610351D01*
X118983082Y-117777013D02*
X119054510Y-117705585D01*
X119054510Y-117705585D02*
X119197368Y-117634156D01*
X119197368Y-117634156D02*
X119554510Y-117634156D01*
X119554510Y-117634156D02*
X119697368Y-117705585D01*
X119697368Y-117705585D02*
X119768796Y-117777013D01*
X119768796Y-117777013D02*
X119840225Y-117919870D01*
X119840225Y-117919870D02*
X119840225Y-118062728D01*
X119840225Y-118062728D02*
X119768796Y-118277013D01*
X119768796Y-118277013D02*
X118911653Y-119134156D01*
X118911653Y-119134156D02*
X119840225Y-119134156D01*
X119697368Y-90967492D02*
X119411653Y-90967492D01*
X119411653Y-90967492D02*
X119268796Y-91038921D01*
X119268796Y-91038921D02*
X119197368Y-91110349D01*
X119197368Y-91110349D02*
X119054510Y-91324635D01*
X119054510Y-91324635D02*
X118983082Y-91610349D01*
X118983082Y-91610349D02*
X118983082Y-92181778D01*
X118983082Y-92181778D02*
X119054510Y-92324635D01*
X119054510Y-92324635D02*
X119125939Y-92396064D01*
X119125939Y-92396064D02*
X119268796Y-92467492D01*
X119268796Y-92467492D02*
X119554510Y-92467492D01*
X119554510Y-92467492D02*
X119697368Y-92396064D01*
X119697368Y-92396064D02*
X119768796Y-92324635D01*
X119768796Y-92324635D02*
X119840225Y-92181778D01*
X119840225Y-92181778D02*
X119840225Y-91824635D01*
X119840225Y-91824635D02*
X119768796Y-91681778D01*
X119768796Y-91681778D02*
X119697368Y-91610349D01*
X119697368Y-91610349D02*
X119554510Y-91538921D01*
X119554510Y-91538921D02*
X119268796Y-91538921D01*
X119268796Y-91538921D02*
X119125939Y-91610349D01*
X119125939Y-91610349D02*
X119054510Y-91681778D01*
X119054510Y-91681778D02*
X118983082Y-91824635D01*
X137840225Y-125800828D02*
X136983082Y-125800828D01*
X137411653Y-125800828D02*
X137411653Y-124300828D01*
X137411653Y-124300828D02*
X137268796Y-124515114D01*
X137268796Y-124515114D02*
X137125939Y-124657971D01*
X137125939Y-124657971D02*
X136983082Y-124729400D01*
X100911653Y-110967490D02*
X101840225Y-110967490D01*
X101840225Y-110967490D02*
X101340225Y-111538919D01*
X101340225Y-111538919D02*
X101554510Y-111538919D01*
X101554510Y-111538919D02*
X101697368Y-111610347D01*
X101697368Y-111610347D02*
X101768796Y-111681776D01*
X101768796Y-111681776D02*
X101840225Y-111824633D01*
X101840225Y-111824633D02*
X101840225Y-112181776D01*
X101840225Y-112181776D02*
X101768796Y-112324633D01*
X101768796Y-112324633D02*
X101697368Y-112396062D01*
X101697368Y-112396062D02*
X101554510Y-112467490D01*
X101554510Y-112467490D02*
X101125939Y-112467490D01*
X101125939Y-112467490D02*
X100983082Y-112396062D01*
X100983082Y-112396062D02*
X100911653Y-112324633D01*
X137697368Y-90967492D02*
X137411653Y-90967492D01*
X137411653Y-90967492D02*
X137268796Y-91038921D01*
X137268796Y-91038921D02*
X137197368Y-91110349D01*
X137197368Y-91110349D02*
X137054510Y-91324635D01*
X137054510Y-91324635D02*
X136983082Y-91610349D01*
X136983082Y-91610349D02*
X136983082Y-92181778D01*
X136983082Y-92181778D02*
X137054510Y-92324635D01*
X137054510Y-92324635D02*
X137125939Y-92396064D01*
X137125939Y-92396064D02*
X137268796Y-92467492D01*
X137268796Y-92467492D02*
X137554510Y-92467492D01*
X137554510Y-92467492D02*
X137697368Y-92396064D01*
X137697368Y-92396064D02*
X137768796Y-92324635D01*
X137768796Y-92324635D02*
X137840225Y-92181778D01*
X137840225Y-92181778D02*
X137840225Y-91824635D01*
X137840225Y-91824635D02*
X137768796Y-91681778D01*
X137768796Y-91681778D02*
X137697368Y-91610349D01*
X137697368Y-91610349D02*
X137554510Y-91538921D01*
X137554510Y-91538921D02*
X137268796Y-91538921D01*
X137268796Y-91538921D02*
X137125939Y-91610349D01*
X137125939Y-91610349D02*
X137054510Y-91681778D01*
X137054510Y-91681778D02*
X136983082Y-91824635D01*
X137697368Y-104800824D02*
X137697368Y-105800824D01*
X137340225Y-104229396D02*
X136983082Y-105300824D01*
X136983082Y-105300824D02*
X137911653Y-105300824D01*
X137268796Y-78277017D02*
X137125939Y-78205589D01*
X137125939Y-78205589D02*
X137054510Y-78134160D01*
X137054510Y-78134160D02*
X136983082Y-77991303D01*
X136983082Y-77991303D02*
X136983082Y-77919874D01*
X136983082Y-77919874D02*
X137054510Y-77777017D01*
X137054510Y-77777017D02*
X137125939Y-77705589D01*
X137125939Y-77705589D02*
X137268796Y-77634160D01*
X137268796Y-77634160D02*
X137554510Y-77634160D01*
X137554510Y-77634160D02*
X137697368Y-77705589D01*
X137697368Y-77705589D02*
X137768796Y-77777017D01*
X137768796Y-77777017D02*
X137840225Y-77919874D01*
X137840225Y-77919874D02*
X137840225Y-77991303D01*
X137840225Y-77991303D02*
X137768796Y-78134160D01*
X137768796Y-78134160D02*
X137697368Y-78205589D01*
X137697368Y-78205589D02*
X137554510Y-78277017D01*
X137554510Y-78277017D02*
X137268796Y-78277017D01*
X137268796Y-78277017D02*
X137125939Y-78348446D01*
X137125939Y-78348446D02*
X137054510Y-78419874D01*
X137054510Y-78419874D02*
X136983082Y-78562732D01*
X136983082Y-78562732D02*
X136983082Y-78848446D01*
X136983082Y-78848446D02*
X137054510Y-78991303D01*
X137054510Y-78991303D02*
X137125939Y-79062732D01*
X137125939Y-79062732D02*
X137268796Y-79134160D01*
X137268796Y-79134160D02*
X137554510Y-79134160D01*
X137554510Y-79134160D02*
X137697368Y-79062732D01*
X137697368Y-79062732D02*
X137768796Y-78991303D01*
X137768796Y-78991303D02*
X137840225Y-78848446D01*
X137840225Y-78848446D02*
X137840225Y-78562732D01*
X137840225Y-78562732D02*
X137768796Y-78419874D01*
X137768796Y-78419874D02*
X137697368Y-78348446D01*
X137697368Y-78348446D02*
X137554510Y-78277017D01*
X101125939Y-65800828D02*
X100268796Y-65800828D01*
X100697367Y-65800828D02*
X100697367Y-64300828D01*
X100697367Y-64300828D02*
X100554510Y-64515114D01*
X100554510Y-64515114D02*
X100411653Y-64657971D01*
X100411653Y-64657971D02*
X100268796Y-64729400D01*
X102054510Y-64300828D02*
X102197367Y-64300828D01*
X102197367Y-64300828D02*
X102340224Y-64372257D01*
X102340224Y-64372257D02*
X102411653Y-64443685D01*
X102411653Y-64443685D02*
X102483081Y-64586542D01*
X102483081Y-64586542D02*
X102554510Y-64872257D01*
X102554510Y-64872257D02*
X102554510Y-65229400D01*
X102554510Y-65229400D02*
X102483081Y-65515114D01*
X102483081Y-65515114D02*
X102411653Y-65657971D01*
X102411653Y-65657971D02*
X102340224Y-65729400D01*
X102340224Y-65729400D02*
X102197367Y-65800828D01*
X102197367Y-65800828D02*
X102054510Y-65800828D01*
X102054510Y-65800828D02*
X101911653Y-65729400D01*
X101911653Y-65729400D02*
X101840224Y-65657971D01*
X101840224Y-65657971D02*
X101768795Y-65515114D01*
X101768795Y-65515114D02*
X101697367Y-65229400D01*
X101697367Y-65229400D02*
X101697367Y-64872257D01*
X101697367Y-64872257D02*
X101768795Y-64586542D01*
X101768795Y-64586542D02*
X101840224Y-64443685D01*
X101840224Y-64443685D02*
X101911653Y-64372257D01*
X101911653Y-64372257D02*
X102054510Y-64300828D01*
X119768796Y-97634158D02*
X119054510Y-97634158D01*
X119054510Y-97634158D02*
X118983082Y-98348444D01*
X118983082Y-98348444D02*
X119054510Y-98277015D01*
X119054510Y-98277015D02*
X119197368Y-98205587D01*
X119197368Y-98205587D02*
X119554510Y-98205587D01*
X119554510Y-98205587D02*
X119697368Y-98277015D01*
X119697368Y-98277015D02*
X119768796Y-98348444D01*
X119768796Y-98348444D02*
X119840225Y-98491301D01*
X119840225Y-98491301D02*
X119840225Y-98848444D01*
X119840225Y-98848444D02*
X119768796Y-98991301D01*
X119768796Y-98991301D02*
X119697368Y-99062730D01*
X119697368Y-99062730D02*
X119554510Y-99134158D01*
X119554510Y-99134158D02*
X119197368Y-99134158D01*
X119197368Y-99134158D02*
X119054510Y-99062730D01*
X119054510Y-99062730D02*
X118983082Y-98991301D01*
X101768796Y-97634158D02*
X101054510Y-97634158D01*
X101054510Y-97634158D02*
X100983082Y-98348444D01*
X100983082Y-98348444D02*
X101054510Y-98277015D01*
X101054510Y-98277015D02*
X101197368Y-98205587D01*
X101197368Y-98205587D02*
X101554510Y-98205587D01*
X101554510Y-98205587D02*
X101697368Y-98277015D01*
X101697368Y-98277015D02*
X101768796Y-98348444D01*
X101768796Y-98348444D02*
X101840225Y-98491301D01*
X101840225Y-98491301D02*
X101840225Y-98848444D01*
X101840225Y-98848444D02*
X101768796Y-98991301D01*
X101768796Y-98991301D02*
X101697368Y-99062730D01*
X101697368Y-99062730D02*
X101554510Y-99134158D01*
X101554510Y-99134158D02*
X101197368Y-99134158D01*
X101197368Y-99134158D02*
X101054510Y-99062730D01*
X101054510Y-99062730D02*
X100983082Y-98991301D01*
X101697368Y-104800824D02*
X101697368Y-105800824D01*
X101340225Y-104229396D02*
X100983082Y-105300824D01*
X100983082Y-105300824D02*
X101911653Y-105300824D01*
X192197368Y-104800824D02*
X192197368Y-105800824D01*
X191840225Y-104229396D02*
X191483082Y-105300824D01*
X191483082Y-105300824D02*
X192411653Y-105300824D01*
X191625939Y-72467494D02*
X191911653Y-72467494D01*
X191911653Y-72467494D02*
X192054510Y-72396066D01*
X192054510Y-72396066D02*
X192125939Y-72324637D01*
X192125939Y-72324637D02*
X192268796Y-72110351D01*
X192268796Y-72110351D02*
X192340225Y-71824637D01*
X192340225Y-71824637D02*
X192340225Y-71253208D01*
X192340225Y-71253208D02*
X192268796Y-71110351D01*
X192268796Y-71110351D02*
X192197368Y-71038923D01*
X192197368Y-71038923D02*
X192054510Y-70967494D01*
X192054510Y-70967494D02*
X191768796Y-70967494D01*
X191768796Y-70967494D02*
X191625939Y-71038923D01*
X191625939Y-71038923D02*
X191554510Y-71110351D01*
X191554510Y-71110351D02*
X191483082Y-71253208D01*
X191483082Y-71253208D02*
X191483082Y-71610351D01*
X191483082Y-71610351D02*
X191554510Y-71753208D01*
X191554510Y-71753208D02*
X191625939Y-71824637D01*
X191625939Y-71824637D02*
X191768796Y-71896066D01*
X191768796Y-71896066D02*
X192054510Y-71896066D01*
X192054510Y-71896066D02*
X192197368Y-71824637D01*
X192197368Y-71824637D02*
X192268796Y-71753208D01*
X192268796Y-71753208D02*
X192340225Y-71610351D01*
X137125939Y-65800828D02*
X136268796Y-65800828D01*
X136697367Y-65800828D02*
X136697367Y-64300828D01*
X136697367Y-64300828D02*
X136554510Y-64515114D01*
X136554510Y-64515114D02*
X136411653Y-64657971D01*
X136411653Y-64657971D02*
X136268796Y-64729400D01*
X138054510Y-64300828D02*
X138197367Y-64300828D01*
X138197367Y-64300828D02*
X138340224Y-64372257D01*
X138340224Y-64372257D02*
X138411653Y-64443685D01*
X138411653Y-64443685D02*
X138483081Y-64586542D01*
X138483081Y-64586542D02*
X138554510Y-64872257D01*
X138554510Y-64872257D02*
X138554510Y-65229400D01*
X138554510Y-65229400D02*
X138483081Y-65515114D01*
X138483081Y-65515114D02*
X138411653Y-65657971D01*
X138411653Y-65657971D02*
X138340224Y-65729400D01*
X138340224Y-65729400D02*
X138197367Y-65800828D01*
X138197367Y-65800828D02*
X138054510Y-65800828D01*
X138054510Y-65800828D02*
X137911653Y-65729400D01*
X137911653Y-65729400D02*
X137840224Y-65657971D01*
X137840224Y-65657971D02*
X137768795Y-65515114D01*
X137768795Y-65515114D02*
X137697367Y-65229400D01*
X137697367Y-65229400D02*
X137697367Y-64872257D01*
X137697367Y-64872257D02*
X137768795Y-64586542D01*
X137768795Y-64586542D02*
X137840224Y-64443685D01*
X137840224Y-64443685D02*
X137911653Y-64372257D01*
X137911653Y-64372257D02*
X138054510Y-64300828D01*
X119840225Y-125800828D02*
X118983082Y-125800828D01*
X119411653Y-125800828D02*
X119411653Y-124300828D01*
X119411653Y-124300828D02*
X119268796Y-124515114D01*
X119268796Y-124515114D02*
X119125939Y-124657971D01*
X119125939Y-124657971D02*
X118983082Y-124729400D01*
X100983082Y-117777013D02*
X101054510Y-117705585D01*
X101054510Y-117705585D02*
X101197368Y-117634156D01*
X101197368Y-117634156D02*
X101554510Y-117634156D01*
X101554510Y-117634156D02*
X101697368Y-117705585D01*
X101697368Y-117705585D02*
X101768796Y-117777013D01*
X101768796Y-117777013D02*
X101840225Y-117919870D01*
X101840225Y-117919870D02*
X101840225Y-118062728D01*
X101840225Y-118062728D02*
X101768796Y-118277013D01*
X101768796Y-118277013D02*
X100911653Y-119134156D01*
X100911653Y-119134156D02*
X101840225Y-119134156D01*
X136983082Y-117777013D02*
X137054510Y-117705585D01*
X137054510Y-117705585D02*
X137197368Y-117634156D01*
X137197368Y-117634156D02*
X137554510Y-117634156D01*
X137554510Y-117634156D02*
X137697368Y-117705585D01*
X137697368Y-117705585D02*
X137768796Y-117777013D01*
X137768796Y-117777013D02*
X137840225Y-117919870D01*
X137840225Y-117919870D02*
X137840225Y-118062728D01*
X137840225Y-118062728D02*
X137768796Y-118277013D01*
X137768796Y-118277013D02*
X136911653Y-119134156D01*
X136911653Y-119134156D02*
X137840225Y-119134156D01*
X136911653Y-84300826D02*
X137911653Y-84300826D01*
X137911653Y-84300826D02*
X137268796Y-85800826D01*
X192197368Y-90967492D02*
X191911653Y-90967492D01*
X191911653Y-90967492D02*
X191768796Y-91038921D01*
X191768796Y-91038921D02*
X191697368Y-91110349D01*
X191697368Y-91110349D02*
X191554510Y-91324635D01*
X191554510Y-91324635D02*
X191483082Y-91610349D01*
X191483082Y-91610349D02*
X191483082Y-92181778D01*
X191483082Y-92181778D02*
X191554510Y-92324635D01*
X191554510Y-92324635D02*
X191625939Y-92396064D01*
X191625939Y-92396064D02*
X191768796Y-92467492D01*
X191768796Y-92467492D02*
X192054510Y-92467492D01*
X192054510Y-92467492D02*
X192197368Y-92396064D01*
X192197368Y-92396064D02*
X192268796Y-92324635D01*
X192268796Y-92324635D02*
X192340225Y-92181778D01*
X192340225Y-92181778D02*
X192340225Y-91824635D01*
X192340225Y-91824635D02*
X192268796Y-91681778D01*
X192268796Y-91681778D02*
X192197368Y-91610349D01*
X192197368Y-91610349D02*
X192054510Y-91538921D01*
X192054510Y-91538921D02*
X191768796Y-91538921D01*
X191768796Y-91538921D02*
X191625939Y-91610349D01*
X191625939Y-91610349D02*
X191554510Y-91681778D01*
X191554510Y-91681778D02*
X191483082Y-91824635D01*
X119268796Y-78277017D02*
X119125939Y-78205589D01*
X119125939Y-78205589D02*
X119054510Y-78134160D01*
X119054510Y-78134160D02*
X118983082Y-77991303D01*
X118983082Y-77991303D02*
X118983082Y-77919874D01*
X118983082Y-77919874D02*
X119054510Y-77777017D01*
X119054510Y-77777017D02*
X119125939Y-77705589D01*
X119125939Y-77705589D02*
X119268796Y-77634160D01*
X119268796Y-77634160D02*
X119554510Y-77634160D01*
X119554510Y-77634160D02*
X119697368Y-77705589D01*
X119697368Y-77705589D02*
X119768796Y-77777017D01*
X119768796Y-77777017D02*
X119840225Y-77919874D01*
X119840225Y-77919874D02*
X119840225Y-77991303D01*
X119840225Y-77991303D02*
X119768796Y-78134160D01*
X119768796Y-78134160D02*
X119697368Y-78205589D01*
X119697368Y-78205589D02*
X119554510Y-78277017D01*
X119554510Y-78277017D02*
X119268796Y-78277017D01*
X119268796Y-78277017D02*
X119125939Y-78348446D01*
X119125939Y-78348446D02*
X119054510Y-78419874D01*
X119054510Y-78419874D02*
X118983082Y-78562732D01*
X118983082Y-78562732D02*
X118983082Y-78848446D01*
X118983082Y-78848446D02*
X119054510Y-78991303D01*
X119054510Y-78991303D02*
X119125939Y-79062732D01*
X119125939Y-79062732D02*
X119268796Y-79134160D01*
X119268796Y-79134160D02*
X119554510Y-79134160D01*
X119554510Y-79134160D02*
X119697368Y-79062732D01*
X119697368Y-79062732D02*
X119768796Y-78991303D01*
X119768796Y-78991303D02*
X119840225Y-78848446D01*
X119840225Y-78848446D02*
X119840225Y-78562732D01*
X119840225Y-78562732D02*
X119768796Y-78419874D01*
X119768796Y-78419874D02*
X119697368Y-78348446D01*
X119697368Y-78348446D02*
X119554510Y-78277017D01*
X118911653Y-110967490D02*
X119840225Y-110967490D01*
X119840225Y-110967490D02*
X119340225Y-111538919D01*
X119340225Y-111538919D02*
X119554510Y-111538919D01*
X119554510Y-111538919D02*
X119697368Y-111610347D01*
X119697368Y-111610347D02*
X119768796Y-111681776D01*
X119768796Y-111681776D02*
X119840225Y-111824633D01*
X119840225Y-111824633D02*
X119840225Y-112181776D01*
X119840225Y-112181776D02*
X119768796Y-112324633D01*
X119768796Y-112324633D02*
X119697368Y-112396062D01*
X119697368Y-112396062D02*
X119554510Y-112467490D01*
X119554510Y-112467490D02*
X119125939Y-112467490D01*
X119125939Y-112467490D02*
X118983082Y-112396062D01*
X118983082Y-112396062D02*
X118911653Y-112324633D01*
X192340225Y-125800828D02*
X191483082Y-125800828D01*
X191911653Y-125800828D02*
X191911653Y-124300828D01*
X191911653Y-124300828D02*
X191768796Y-124515114D01*
X191768796Y-124515114D02*
X191625939Y-124657971D01*
X191625939Y-124657971D02*
X191483082Y-124729400D01*
X192268796Y-97634158D02*
X191554510Y-97634158D01*
X191554510Y-97634158D02*
X191483082Y-98348444D01*
X191483082Y-98348444D02*
X191554510Y-98277015D01*
X191554510Y-98277015D02*
X191697368Y-98205587D01*
X191697368Y-98205587D02*
X192054510Y-98205587D01*
X192054510Y-98205587D02*
X192197368Y-98277015D01*
X192197368Y-98277015D02*
X192268796Y-98348444D01*
X192268796Y-98348444D02*
X192340225Y-98491301D01*
X192340225Y-98491301D02*
X192340225Y-98848444D01*
X192340225Y-98848444D02*
X192268796Y-98991301D01*
X192268796Y-98991301D02*
X192197368Y-99062730D01*
X192197368Y-99062730D02*
X192054510Y-99134158D01*
X192054510Y-99134158D02*
X191697368Y-99134158D01*
X191697368Y-99134158D02*
X191554510Y-99062730D01*
X191554510Y-99062730D02*
X191483082Y-98991301D01*
X137768796Y-97634158D02*
X137054510Y-97634158D01*
X137054510Y-97634158D02*
X136983082Y-98348444D01*
X136983082Y-98348444D02*
X137054510Y-98277015D01*
X137054510Y-98277015D02*
X137197368Y-98205587D01*
X137197368Y-98205587D02*
X137554510Y-98205587D01*
X137554510Y-98205587D02*
X137697368Y-98277015D01*
X137697368Y-98277015D02*
X137768796Y-98348444D01*
X137768796Y-98348444D02*
X137840225Y-98491301D01*
X137840225Y-98491301D02*
X137840225Y-98848444D01*
X137840225Y-98848444D02*
X137768796Y-98991301D01*
X137768796Y-98991301D02*
X137697368Y-99062730D01*
X137697368Y-99062730D02*
X137554510Y-99134158D01*
X137554510Y-99134158D02*
X137197368Y-99134158D01*
X137197368Y-99134158D02*
X137054510Y-99062730D01*
X137054510Y-99062730D02*
X136983082Y-98991301D01*
X191768796Y-78277017D02*
X191625939Y-78205589D01*
X191625939Y-78205589D02*
X191554510Y-78134160D01*
X191554510Y-78134160D02*
X191483082Y-77991303D01*
X191483082Y-77991303D02*
X191483082Y-77919874D01*
X191483082Y-77919874D02*
X191554510Y-77777017D01*
X191554510Y-77777017D02*
X191625939Y-77705589D01*
X191625939Y-77705589D02*
X191768796Y-77634160D01*
X191768796Y-77634160D02*
X192054510Y-77634160D01*
X192054510Y-77634160D02*
X192197368Y-77705589D01*
X192197368Y-77705589D02*
X192268796Y-77777017D01*
X192268796Y-77777017D02*
X192340225Y-77919874D01*
X192340225Y-77919874D02*
X192340225Y-77991303D01*
X192340225Y-77991303D02*
X192268796Y-78134160D01*
X192268796Y-78134160D02*
X192197368Y-78205589D01*
X192197368Y-78205589D02*
X192054510Y-78277017D01*
X192054510Y-78277017D02*
X191768796Y-78277017D01*
X191768796Y-78277017D02*
X191625939Y-78348446D01*
X191625939Y-78348446D02*
X191554510Y-78419874D01*
X191554510Y-78419874D02*
X191483082Y-78562732D01*
X191483082Y-78562732D02*
X191483082Y-78848446D01*
X191483082Y-78848446D02*
X191554510Y-78991303D01*
X191554510Y-78991303D02*
X191625939Y-79062732D01*
X191625939Y-79062732D02*
X191768796Y-79134160D01*
X191768796Y-79134160D02*
X192054510Y-79134160D01*
X192054510Y-79134160D02*
X192197368Y-79062732D01*
X192197368Y-79062732D02*
X192268796Y-78991303D01*
X192268796Y-78991303D02*
X192340225Y-78848446D01*
X192340225Y-78848446D02*
X192340225Y-78562732D01*
X192340225Y-78562732D02*
X192268796Y-78419874D01*
X192268796Y-78419874D02*
X192197368Y-78348446D01*
X192197368Y-78348446D02*
X192054510Y-78277017D01*
X119125939Y-65800828D02*
X118268796Y-65800828D01*
X118697367Y-65800828D02*
X118697367Y-64300828D01*
X118697367Y-64300828D02*
X118554510Y-64515114D01*
X118554510Y-64515114D02*
X118411653Y-64657971D01*
X118411653Y-64657971D02*
X118268796Y-64729400D01*
X120054510Y-64300828D02*
X120197367Y-64300828D01*
X120197367Y-64300828D02*
X120340224Y-64372257D01*
X120340224Y-64372257D02*
X120411653Y-64443685D01*
X120411653Y-64443685D02*
X120483081Y-64586542D01*
X120483081Y-64586542D02*
X120554510Y-64872257D01*
X120554510Y-64872257D02*
X120554510Y-65229400D01*
X120554510Y-65229400D02*
X120483081Y-65515114D01*
X120483081Y-65515114D02*
X120411653Y-65657971D01*
X120411653Y-65657971D02*
X120340224Y-65729400D01*
X120340224Y-65729400D02*
X120197367Y-65800828D01*
X120197367Y-65800828D02*
X120054510Y-65800828D01*
X120054510Y-65800828D02*
X119911653Y-65729400D01*
X119911653Y-65729400D02*
X119840224Y-65657971D01*
X119840224Y-65657971D02*
X119768795Y-65515114D01*
X119768795Y-65515114D02*
X119697367Y-65229400D01*
X119697367Y-65229400D02*
X119697367Y-64872257D01*
X119697367Y-64872257D02*
X119768795Y-64586542D01*
X119768795Y-64586542D02*
X119840224Y-64443685D01*
X119840224Y-64443685D02*
X119911653Y-64372257D01*
X119911653Y-64372257D02*
X120054510Y-64300828D01*
X191483082Y-117777013D02*
X191554510Y-117705585D01*
X191554510Y-117705585D02*
X191697368Y-117634156D01*
X191697368Y-117634156D02*
X192054510Y-117634156D01*
X192054510Y-117634156D02*
X192197368Y-117705585D01*
X192197368Y-117705585D02*
X192268796Y-117777013D01*
X192268796Y-117777013D02*
X192340225Y-117919870D01*
X192340225Y-117919870D02*
X192340225Y-118062728D01*
X192340225Y-118062728D02*
X192268796Y-118277013D01*
X192268796Y-118277013D02*
X191411653Y-119134156D01*
X191411653Y-119134156D02*
X192340225Y-119134156D01*
X119125939Y-72467494D02*
X119411653Y-72467494D01*
X119411653Y-72467494D02*
X119554510Y-72396066D01*
X119554510Y-72396066D02*
X119625939Y-72324637D01*
X119625939Y-72324637D02*
X119768796Y-72110351D01*
X119768796Y-72110351D02*
X119840225Y-71824637D01*
X119840225Y-71824637D02*
X119840225Y-71253208D01*
X119840225Y-71253208D02*
X119768796Y-71110351D01*
X119768796Y-71110351D02*
X119697368Y-71038923D01*
X119697368Y-71038923D02*
X119554510Y-70967494D01*
X119554510Y-70967494D02*
X119268796Y-70967494D01*
X119268796Y-70967494D02*
X119125939Y-71038923D01*
X119125939Y-71038923D02*
X119054510Y-71110351D01*
X119054510Y-71110351D02*
X118983082Y-71253208D01*
X118983082Y-71253208D02*
X118983082Y-71610351D01*
X118983082Y-71610351D02*
X119054510Y-71753208D01*
X119054510Y-71753208D02*
X119125939Y-71824637D01*
X119125939Y-71824637D02*
X119268796Y-71896066D01*
X119268796Y-71896066D02*
X119554510Y-71896066D01*
X119554510Y-71896066D02*
X119697368Y-71824637D01*
X119697368Y-71824637D02*
X119768796Y-71753208D01*
X119768796Y-71753208D02*
X119840225Y-71610351D01*
X100911653Y-84300826D02*
X101911653Y-84300826D01*
X101911653Y-84300826D02*
X101268796Y-85800826D01*
X101697368Y-90967492D02*
X101411653Y-90967492D01*
X101411653Y-90967492D02*
X101268796Y-91038921D01*
X101268796Y-91038921D02*
X101197368Y-91110349D01*
X101197368Y-91110349D02*
X101054510Y-91324635D01*
X101054510Y-91324635D02*
X100983082Y-91610349D01*
X100983082Y-91610349D02*
X100983082Y-92181778D01*
X100983082Y-92181778D02*
X101054510Y-92324635D01*
X101054510Y-92324635D02*
X101125939Y-92396064D01*
X101125939Y-92396064D02*
X101268796Y-92467492D01*
X101268796Y-92467492D02*
X101554510Y-92467492D01*
X101554510Y-92467492D02*
X101697368Y-92396064D01*
X101697368Y-92396064D02*
X101768796Y-92324635D01*
X101768796Y-92324635D02*
X101840225Y-92181778D01*
X101840225Y-92181778D02*
X101840225Y-91824635D01*
X101840225Y-91824635D02*
X101768796Y-91681778D01*
X101768796Y-91681778D02*
X101697368Y-91610349D01*
X101697368Y-91610349D02*
X101554510Y-91538921D01*
X101554510Y-91538921D02*
X101268796Y-91538921D01*
X101268796Y-91538921D02*
X101125939Y-91610349D01*
X101125939Y-91610349D02*
X101054510Y-91681778D01*
X101054510Y-91681778D02*
X100983082Y-91824635D01*
X136911653Y-110967490D02*
X137840225Y-110967490D01*
X137840225Y-110967490D02*
X137340225Y-111538919D01*
X137340225Y-111538919D02*
X137554510Y-111538919D01*
X137554510Y-111538919D02*
X137697368Y-111610347D01*
X137697368Y-111610347D02*
X137768796Y-111681776D01*
X137768796Y-111681776D02*
X137840225Y-111824633D01*
X137840225Y-111824633D02*
X137840225Y-112181776D01*
X137840225Y-112181776D02*
X137768796Y-112324633D01*
X137768796Y-112324633D02*
X137697368Y-112396062D01*
X137697368Y-112396062D02*
X137554510Y-112467490D01*
X137554510Y-112467490D02*
X137125939Y-112467490D01*
X137125939Y-112467490D02*
X136983082Y-112396062D01*
X136983082Y-112396062D02*
X136911653Y-112324633D01*
X191411653Y-110967490D02*
X192340225Y-110967490D01*
X192340225Y-110967490D02*
X191840225Y-111538919D01*
X191840225Y-111538919D02*
X192054510Y-111538919D01*
X192054510Y-111538919D02*
X192197368Y-111610347D01*
X192197368Y-111610347D02*
X192268796Y-111681776D01*
X192268796Y-111681776D02*
X192340225Y-111824633D01*
X192340225Y-111824633D02*
X192340225Y-112181776D01*
X192340225Y-112181776D02*
X192268796Y-112324633D01*
X192268796Y-112324633D02*
X192197368Y-112396062D01*
X192197368Y-112396062D02*
X192054510Y-112467490D01*
X192054510Y-112467490D02*
X191625939Y-112467490D01*
X191625939Y-112467490D02*
X191483082Y-112396062D01*
X191483082Y-112396062D02*
X191411653Y-112324633D01*
D10*
X212238095Y-136704819D02*
X212238095Y-135704819D01*
X212238095Y-136181009D02*
X212809523Y-136181009D01*
X212809523Y-136704819D02*
X212809523Y-135704819D01*
X213238095Y-135800057D02*
X213285714Y-135752438D01*
X213285714Y-135752438D02*
X213380952Y-135704819D01*
X213380952Y-135704819D02*
X213619047Y-135704819D01*
X213619047Y-135704819D02*
X213714285Y-135752438D01*
X213714285Y-135752438D02*
X213761904Y-135800057D01*
X213761904Y-135800057D02*
X213809523Y-135895295D01*
X213809523Y-135895295D02*
X213809523Y-135990533D01*
X213809523Y-135990533D02*
X213761904Y-136133390D01*
X213761904Y-136133390D02*
X213190476Y-136704819D01*
X213190476Y-136704819D02*
X213809523Y-136704819D01*
X79238095Y-136704819D02*
X79238095Y-135704819D01*
X79238095Y-136181009D02*
X79809523Y-136181009D01*
X79809523Y-136704819D02*
X79809523Y-135704819D01*
X80190476Y-135704819D02*
X80809523Y-135704819D01*
X80809523Y-135704819D02*
X80476190Y-136085771D01*
X80476190Y-136085771D02*
X80619047Y-136085771D01*
X80619047Y-136085771D02*
X80714285Y-136133390D01*
X80714285Y-136133390D02*
X80761904Y-136181009D01*
X80761904Y-136181009D02*
X80809523Y-136276247D01*
X80809523Y-136276247D02*
X80809523Y-136514342D01*
X80809523Y-136514342D02*
X80761904Y-136609580D01*
X80761904Y-136609580D02*
X80714285Y-136657200D01*
X80714285Y-136657200D02*
X80619047Y-136704819D01*
X80619047Y-136704819D02*
X80333333Y-136704819D01*
X80333333Y-136704819D02*
X80238095Y-136657200D01*
X80238095Y-136657200D02*
X80190476Y-136609580D01*
X79238095Y-46704819D02*
X79238095Y-45704819D01*
X79238095Y-46181009D02*
X79809523Y-46181009D01*
X79809523Y-46704819D02*
X79809523Y-45704819D01*
X80714285Y-46038152D02*
X80714285Y-46704819D01*
X80476190Y-45657200D02*
X80238095Y-46371485D01*
X80238095Y-46371485D02*
X80857142Y-46371485D01*
X212238095Y-46704819D02*
X212238095Y-45704819D01*
X212238095Y-46181009D02*
X212809523Y-46181009D01*
X212809523Y-46704819D02*
X212809523Y-45704819D01*
X213809523Y-46704819D02*
X213238095Y-46704819D01*
X213523809Y-46704819D02*
X213523809Y-45704819D01*
X213523809Y-45704819D02*
X213428571Y-45847676D01*
X213428571Y-45847676D02*
X213333333Y-45942914D01*
X213333333Y-45942914D02*
X213238095Y-45990533D01*
%LPC*%
D15*
X213000000Y-140000000D03*
X80000000Y-140000000D03*
X80000000Y-50000000D03*
X213000000Y-50000000D03*
D16*
X172500000Y-99940000D03*
D17*
X172500000Y-102480000D03*
X172500000Y-105020000D03*
X172500000Y-107560000D03*
X172500000Y-110100000D03*
X172500000Y-112640000D03*
X172500000Y-115180000D03*
X172500000Y-117720000D03*
X172500000Y-120260000D03*
X172500000Y-122800000D03*
X172500000Y-125340000D03*
X172500000Y-127880000D03*
X172500000Y-130420000D03*
X172500000Y-132960000D03*
X172500000Y-135500000D03*
X157260000Y-135500000D03*
X157260000Y-132960000D03*
X157260000Y-130420000D03*
X157260000Y-127880000D03*
X157260000Y-125340000D03*
X157260000Y-122800000D03*
X157260000Y-120260000D03*
X157260000Y-117720000D03*
X157260000Y-115180000D03*
X157260000Y-112640000D03*
X157260000Y-110100000D03*
X157260000Y-107560000D03*
X157260000Y-105020000D03*
X157260000Y-102480000D03*
X157260000Y-99940000D03*
D18*
X144000000Y-60000000D03*
X149000000Y-55000000D03*
X149000000Y-135000000D03*
X144000000Y-130000000D03*
X108000000Y-60000000D03*
X113000000Y-55000000D03*
X113000000Y-135000000D03*
X108000000Y-130000000D03*
X126000000Y-60000000D03*
X131000000Y-55000000D03*
X131000000Y-135000000D03*
X126000000Y-130000000D03*
X198500000Y-60000000D03*
X203500000Y-55000000D03*
X203500000Y-135000000D03*
X198500000Y-130000000D03*
X90000000Y-60000000D03*
X95000000Y-55000000D03*
X95000000Y-135000000D03*
X90000000Y-130000000D03*
X180500000Y-60000000D03*
X185500000Y-55000000D03*
X185500000Y-135000000D03*
X180500000Y-130000000D03*
%LPD*%
M02*
