G04 #@! TF.GenerationSoftware,KiCad,Pcbnew,8.0.1-8.0.1-1~ubuntu22.04.1*
G04 #@! TF.CreationDate,2024-03-31T12:28:40+01:00*
G04 #@! TF.ProjectId,Arduino_Mixer,41726475-696e-46f5-9f4d-697865722e6b,1.0*
G04 #@! TF.SameCoordinates,Original*
G04 #@! TF.FileFunction,Copper,L2,Bot*
G04 #@! TF.FilePolarity,Positive*
%FSLAX46Y46*%
G04 Gerber Fmt 4.6, Leading zero omitted, Abs format (unit mm)*
G04 Created by KiCad (PCBNEW 8.0.1-8.0.1-1~ubuntu22.04.1) date 2024-03-31 12:28:40*
%MOMM*%
%LPD*%
G01*
G04 APERTURE LIST*
G04 #@! TA.AperFunction,ComponentPad*
%ADD10R,1.600000X1.600000*%
G04 #@! TD*
G04 #@! TA.AperFunction,ComponentPad*
%ADD11O,1.600000X1.600000*%
G04 #@! TD*
G04 #@! TA.AperFunction,ComponentPad*
%ADD12C,4.000000*%
G04 #@! TD*
G04 #@! TA.AperFunction,Conductor*
%ADD13C,1.000000*%
G04 #@! TD*
G04 APERTURE END LIST*
D10*
X172500000Y-99940000D03*
D11*
X172500000Y-102480000D03*
X172500000Y-105020000D03*
X172500000Y-107560000D03*
X172500000Y-110100000D03*
X172500000Y-112640000D03*
X172500000Y-115180000D03*
X172500000Y-117720000D03*
X172500000Y-120260000D03*
X172500000Y-122800000D03*
X172500000Y-125340000D03*
X172500000Y-127880000D03*
X172500000Y-130420000D03*
X172500000Y-132960000D03*
X172500000Y-135500000D03*
X157260000Y-135500000D03*
X157260000Y-132960000D03*
X157260000Y-130420000D03*
X157260000Y-127880000D03*
X157260000Y-125340000D03*
X157260000Y-122800000D03*
X157260000Y-120260000D03*
X157260000Y-117720000D03*
X157260000Y-115180000D03*
X157260000Y-112640000D03*
X157260000Y-110100000D03*
X157260000Y-107560000D03*
X157260000Y-105020000D03*
X157260000Y-102480000D03*
X157260000Y-99940000D03*
D12*
X144000000Y-60000000D03*
X149000000Y-55000000D03*
X149000000Y-135000000D03*
X144000000Y-130000000D03*
X108000000Y-60000000D03*
X113000000Y-55000000D03*
X113000000Y-135000000D03*
X108000000Y-130000000D03*
X126000000Y-60000000D03*
X131000000Y-55000000D03*
X131000000Y-135000000D03*
X126000000Y-130000000D03*
X198500000Y-60000000D03*
X203500000Y-55000000D03*
X203500000Y-135000000D03*
X198500000Y-130000000D03*
X90000000Y-60000000D03*
X95000000Y-55000000D03*
X95000000Y-135000000D03*
X90000000Y-130000000D03*
X180500000Y-60000000D03*
X185500000Y-55000000D03*
X185500000Y-135000000D03*
X180500000Y-130000000D03*
D13*
X157260000Y-127880000D02*
X149996000Y-127880000D01*
X149860000Y-128016000D02*
X149860000Y-55860000D01*
X149000000Y-135000000D02*
X149860000Y-134140000D01*
X149860000Y-55860000D02*
X149000000Y-55000000D01*
X149860000Y-134140000D02*
X149860000Y-128016000D01*
X149996000Y-127880000D02*
X149860000Y-128016000D01*
X162076000Y-128524000D02*
X158892000Y-125340000D01*
X131826000Y-134174000D02*
X131826000Y-55826000D01*
X135446000Y-139446000D02*
X158750000Y-139446000D01*
X158892000Y-125340000D02*
X157260000Y-125340000D01*
X131000000Y-135000000D02*
X131826000Y-134174000D01*
X131000000Y-135000000D02*
X135446000Y-139446000D01*
X158750000Y-139446000D02*
X162076000Y-136120000D01*
X131826000Y-55826000D02*
X131000000Y-55000000D01*
X162076000Y-136120000D02*
X162076000Y-128524000D01*
X113000000Y-135000000D02*
X113000000Y-134396000D01*
X113000000Y-135000000D02*
X118946000Y-140946000D01*
X159371320Y-140946000D02*
X163576000Y-136741320D01*
X113000000Y-134396000D02*
X114046000Y-133350000D01*
X163576000Y-127565950D02*
X158810050Y-122800000D01*
X114046000Y-56046000D02*
X113000000Y-55000000D01*
X163576000Y-136741320D02*
X163576000Y-127565950D01*
X158810050Y-122800000D02*
X157260000Y-122800000D01*
X118946000Y-140946000D02*
X159371320Y-140946000D01*
X114046000Y-133350000D02*
X114046000Y-56046000D01*
X165100000Y-137338640D02*
X165100000Y-126968630D01*
X95000000Y-135000000D02*
X102446000Y-142446000D01*
X158391370Y-120260000D02*
X157260000Y-120260000D01*
X95000000Y-135000000D02*
X96012000Y-133988000D01*
X96012000Y-56012000D02*
X95000000Y-55000000D01*
X102446000Y-142446000D02*
X159992640Y-142446000D01*
X96012000Y-133988000D02*
X96012000Y-56012000D01*
X165100000Y-126968630D02*
X158391370Y-120260000D01*
X159992640Y-142446000D02*
X165100000Y-137338640D01*
X204470000Y-55970000D02*
X203500000Y-55000000D01*
X168910000Y-140970000D02*
X166600000Y-138660000D01*
X203500000Y-135000000D02*
X204470000Y-134030000D01*
X197530000Y-140970000D02*
X168910000Y-140970000D01*
X204470000Y-134030000D02*
X204470000Y-55970000D01*
X157972690Y-117720000D02*
X157260000Y-117720000D01*
X166600000Y-138660000D02*
X166600000Y-126347310D01*
X203500000Y-135000000D02*
X197530000Y-140970000D01*
X166600000Y-126347310D02*
X157972690Y-117720000D01*
X169531320Y-139470000D02*
X168100000Y-138038680D01*
X186436000Y-55936000D02*
X185500000Y-55000000D01*
X181030000Y-139470000D02*
X169531320Y-139470000D01*
X158391370Y-115180000D02*
X157260000Y-115180000D01*
X168100000Y-138038680D02*
X168100000Y-124888630D01*
X186436000Y-134064000D02*
X186436000Y-55936000D01*
X185500000Y-135000000D02*
X186436000Y-134064000D01*
X168100000Y-124888630D02*
X158391370Y-115180000D01*
X185500000Y-135000000D02*
X181030000Y-139470000D01*
G04 #@! TA.AperFunction,Conductor*
G36*
X216620539Y-46486185D02*
G01*
X216666294Y-46538989D01*
X216677500Y-46590500D01*
X216677500Y-143655500D01*
X216657815Y-143722539D01*
X216605011Y-143768294D01*
X216553500Y-143779500D01*
X76308500Y-143779500D01*
X76241461Y-143759815D01*
X76195706Y-143707011D01*
X76184500Y-143655500D01*
X76184500Y-140121288D01*
X78149500Y-140121288D01*
X78181161Y-140361785D01*
X78243947Y-140596104D01*
X78336773Y-140820205D01*
X78336776Y-140820212D01*
X78458064Y-141030289D01*
X78458066Y-141030292D01*
X78458067Y-141030293D01*
X78605733Y-141222736D01*
X78605739Y-141222743D01*
X78777256Y-141394260D01*
X78777262Y-141394265D01*
X78969711Y-141541936D01*
X79179788Y-141663224D01*
X79403900Y-141756054D01*
X79638211Y-141818838D01*
X79818586Y-141842584D01*
X79878711Y-141850500D01*
X79878712Y-141850500D01*
X80121289Y-141850500D01*
X80169388Y-141844167D01*
X80361789Y-141818838D01*
X80596100Y-141756054D01*
X80820212Y-141663224D01*
X81030289Y-141541936D01*
X81222738Y-141394265D01*
X81394265Y-141222738D01*
X81541936Y-141030289D01*
X81663224Y-140820212D01*
X81756054Y-140596100D01*
X81818838Y-140361789D01*
X81850500Y-140121288D01*
X81850500Y-139878712D01*
X81818838Y-139638211D01*
X81756054Y-139403900D01*
X81663224Y-139179788D01*
X81541936Y-138969711D01*
X81394265Y-138777262D01*
X81394260Y-138777256D01*
X81222743Y-138605739D01*
X81222736Y-138605733D01*
X81030293Y-138458067D01*
X81030292Y-138458066D01*
X81030289Y-138458064D01*
X80820212Y-138336776D01*
X80820205Y-138336773D01*
X80596104Y-138243947D01*
X80361785Y-138181161D01*
X80121289Y-138149500D01*
X80121288Y-138149500D01*
X79878712Y-138149500D01*
X79878711Y-138149500D01*
X79638214Y-138181161D01*
X79403895Y-138243947D01*
X79179794Y-138336773D01*
X79179785Y-138336777D01*
X79012810Y-138433181D01*
X78991473Y-138445500D01*
X78969706Y-138458067D01*
X78777263Y-138605733D01*
X78777256Y-138605739D01*
X78605739Y-138777256D01*
X78605733Y-138777263D01*
X78458067Y-138969706D01*
X78336777Y-139179785D01*
X78336773Y-139179794D01*
X78243947Y-139403895D01*
X78181161Y-139638214D01*
X78149500Y-139878711D01*
X78149500Y-140121288D01*
X76184500Y-140121288D01*
X76184500Y-135000005D01*
X92494556Y-135000005D01*
X92514310Y-135314004D01*
X92514311Y-135314011D01*
X92514312Y-135314015D01*
X92549790Y-135500000D01*
X92573270Y-135623083D01*
X92670497Y-135922316D01*
X92670499Y-135922321D01*
X92804461Y-136207003D01*
X92804464Y-136207009D01*
X92973051Y-136472661D01*
X92973054Y-136472665D01*
X93173606Y-136715090D01*
X93173608Y-136715092D01*
X93402968Y-136930476D01*
X93402978Y-136930484D01*
X93657504Y-137115408D01*
X93657509Y-137115410D01*
X93657516Y-137115416D01*
X93933234Y-137266994D01*
X93933239Y-137266996D01*
X93933241Y-137266997D01*
X93933242Y-137266998D01*
X94225771Y-137382818D01*
X94225774Y-137382819D01*
X94530523Y-137461065D01*
X94530527Y-137461066D01*
X94596010Y-137469338D01*
X94842670Y-137500499D01*
X94842679Y-137500499D01*
X94842682Y-137500500D01*
X94842684Y-137500500D01*
X95157316Y-137500500D01*
X95157318Y-137500500D01*
X95157321Y-137500499D01*
X95157329Y-137500499D01*
X95343593Y-137476968D01*
X95469473Y-137461066D01*
X95774225Y-137382819D01*
X95837234Y-137357871D01*
X95906809Y-137351494D01*
X95968790Y-137383745D01*
X95970562Y-137385482D01*
X101665735Y-143080655D01*
X101665764Y-143080686D01*
X101808214Y-143223136D01*
X101808218Y-143223139D01*
X101972079Y-143332628D01*
X101972092Y-143332635D01*
X102100833Y-143385961D01*
X102143744Y-143403735D01*
X102154164Y-143408051D01*
X102250812Y-143427275D01*
X102299135Y-143436887D01*
X102347458Y-143446500D01*
X102347459Y-143446500D01*
X160091182Y-143446500D01*
X160110510Y-143442655D01*
X160187828Y-143427275D01*
X160284476Y-143408051D01*
X160337805Y-143385961D01*
X160466554Y-143332632D01*
X160630422Y-143223139D01*
X160769779Y-143083782D01*
X160769780Y-143083779D01*
X160776846Y-143076714D01*
X160776848Y-143076710D01*
X165387821Y-138465738D01*
X165449142Y-138432255D01*
X165518834Y-138437239D01*
X165574767Y-138479111D01*
X165599184Y-138544575D01*
X165599500Y-138553421D01*
X165599500Y-138758541D01*
X165599500Y-138758543D01*
X165599499Y-138758543D01*
X165637947Y-138951829D01*
X165637950Y-138951839D01*
X165713364Y-139133907D01*
X165713371Y-139133920D01*
X165822859Y-139297780D01*
X165822860Y-139297781D01*
X165822861Y-139297782D01*
X165962218Y-139437139D01*
X165962219Y-139437139D01*
X165969286Y-139444206D01*
X165969285Y-139444206D01*
X165969288Y-139444208D01*
X168132860Y-141607781D01*
X168132861Y-141607782D01*
X168272218Y-141747139D01*
X168436086Y-141856632D01*
X168542745Y-141900811D01*
X168618164Y-141932051D01*
X168811454Y-141970499D01*
X168811457Y-141970500D01*
X168811459Y-141970500D01*
X197628543Y-141970500D01*
X197708977Y-141954500D01*
X197749196Y-141946500D01*
X197821836Y-141932051D01*
X197875165Y-141909961D01*
X198003914Y-141856632D01*
X198167782Y-141747139D01*
X198307139Y-141607782D01*
X198307140Y-141607779D01*
X198314206Y-141600714D01*
X198314209Y-141600710D01*
X199793631Y-140121288D01*
X211149500Y-140121288D01*
X211181161Y-140361785D01*
X211243947Y-140596104D01*
X211336773Y-140820205D01*
X211336776Y-140820212D01*
X211458064Y-141030289D01*
X211458066Y-141030292D01*
X211458067Y-141030293D01*
X211605733Y-141222736D01*
X211605739Y-141222743D01*
X211777256Y-141394260D01*
X211777262Y-141394265D01*
X211969711Y-141541936D01*
X212179788Y-141663224D01*
X212403900Y-141756054D01*
X212638211Y-141818838D01*
X212818586Y-141842584D01*
X212878711Y-141850500D01*
X212878712Y-141850500D01*
X213121289Y-141850500D01*
X213169388Y-141844167D01*
X213361789Y-141818838D01*
X213596100Y-141756054D01*
X213820212Y-141663224D01*
X214030289Y-141541936D01*
X214222738Y-141394265D01*
X214394265Y-141222738D01*
X214541936Y-141030289D01*
X214663224Y-140820212D01*
X214756054Y-140596100D01*
X214818838Y-140361789D01*
X214850500Y-140121288D01*
X214850500Y-139878712D01*
X214818838Y-139638211D01*
X214756054Y-139403900D01*
X214663224Y-139179788D01*
X214541936Y-138969711D01*
X214394265Y-138777262D01*
X214394260Y-138777256D01*
X214222743Y-138605739D01*
X214222736Y-138605733D01*
X214030293Y-138458067D01*
X214030292Y-138458066D01*
X214030289Y-138458064D01*
X213820212Y-138336776D01*
X213820205Y-138336773D01*
X213596104Y-138243947D01*
X213361785Y-138181161D01*
X213121289Y-138149500D01*
X213121288Y-138149500D01*
X212878712Y-138149500D01*
X212878711Y-138149500D01*
X212638214Y-138181161D01*
X212403895Y-138243947D01*
X212179794Y-138336773D01*
X212179785Y-138336777D01*
X212012810Y-138433181D01*
X211991473Y-138445500D01*
X211969706Y-138458067D01*
X211777263Y-138605733D01*
X211777256Y-138605739D01*
X211605739Y-138777256D01*
X211605733Y-138777263D01*
X211458067Y-138969706D01*
X211336777Y-139179785D01*
X211336773Y-139179794D01*
X211243947Y-139403895D01*
X211181161Y-139638214D01*
X211149500Y-139878711D01*
X211149500Y-140121288D01*
X199793631Y-140121288D01*
X202529438Y-137385480D01*
X202590759Y-137351997D01*
X202660451Y-137356981D01*
X202662671Y-137357834D01*
X202725775Y-137382819D01*
X202725778Y-137382820D01*
X203030523Y-137461065D01*
X203030527Y-137461066D01*
X203096010Y-137469338D01*
X203342670Y-137500499D01*
X203342679Y-137500499D01*
X203342682Y-137500500D01*
X203342684Y-137500500D01*
X203657316Y-137500500D01*
X203657318Y-137500500D01*
X203657321Y-137500499D01*
X203657329Y-137500499D01*
X203843593Y-137476968D01*
X203969473Y-137461066D01*
X204274225Y-137382819D01*
X204274228Y-137382818D01*
X204566757Y-137266998D01*
X204566758Y-137266997D01*
X204566756Y-137266997D01*
X204566766Y-137266994D01*
X204842484Y-137115416D01*
X205097030Y-136930478D01*
X205326390Y-136715094D01*
X205526947Y-136472663D01*
X205695537Y-136207007D01*
X205829503Y-135922315D01*
X205926731Y-135623079D01*
X205985688Y-135314015D01*
X205988249Y-135273308D01*
X206005444Y-135000005D01*
X206005444Y-134999994D01*
X205985689Y-134685995D01*
X205985688Y-134685988D01*
X205985688Y-134685985D01*
X205926731Y-134376921D01*
X205829503Y-134077685D01*
X205695537Y-133792993D01*
X205666469Y-133747190D01*
X205526950Y-133527341D01*
X205526945Y-133527335D01*
X205498955Y-133493501D01*
X205471391Y-133429299D01*
X205470500Y-133414461D01*
X205470500Y-56585537D01*
X205490185Y-56518498D01*
X205498946Y-56506510D01*
X205526947Y-56472663D01*
X205531805Y-56465009D01*
X205574662Y-56397475D01*
X205695537Y-56207007D01*
X205829503Y-55922315D01*
X205926731Y-55623079D01*
X205985688Y-55314015D01*
X206005444Y-55000000D01*
X205985688Y-54685985D01*
X205926731Y-54376921D01*
X205829503Y-54077685D01*
X205695537Y-53792993D01*
X205526947Y-53527337D01*
X205526945Y-53527334D01*
X205326393Y-53284909D01*
X205326391Y-53284907D01*
X205097031Y-53069523D01*
X205097021Y-53069515D01*
X204842495Y-52884591D01*
X204842488Y-52884586D01*
X204842484Y-52884584D01*
X204566766Y-52733006D01*
X204566763Y-52733004D01*
X204566758Y-52733002D01*
X204566757Y-52733001D01*
X204274228Y-52617181D01*
X204274225Y-52617180D01*
X203969476Y-52538934D01*
X203969463Y-52538932D01*
X203657329Y-52499500D01*
X203657318Y-52499500D01*
X203342682Y-52499500D01*
X203342670Y-52499500D01*
X203030536Y-52538932D01*
X203030523Y-52538934D01*
X202725774Y-52617180D01*
X202725771Y-52617181D01*
X202433242Y-52733001D01*
X202433241Y-52733002D01*
X202157516Y-52884584D01*
X202157504Y-52884591D01*
X201902978Y-53069515D01*
X201902968Y-53069523D01*
X201673608Y-53284907D01*
X201673606Y-53284909D01*
X201473054Y-53527334D01*
X201473051Y-53527338D01*
X201304464Y-53792990D01*
X201304461Y-53792996D01*
X201170499Y-54077678D01*
X201170497Y-54077683D01*
X201073270Y-54376916D01*
X201014311Y-54685988D01*
X201014310Y-54685995D01*
X200994556Y-54999994D01*
X200994556Y-55000005D01*
X201014310Y-55314004D01*
X201014311Y-55314011D01*
X201073270Y-55623083D01*
X201170497Y-55922316D01*
X201170499Y-55922321D01*
X201304461Y-56207003D01*
X201304464Y-56207009D01*
X201473051Y-56472661D01*
X201473054Y-56472665D01*
X201673606Y-56715090D01*
X201673608Y-56715092D01*
X201902968Y-56930476D01*
X201902978Y-56930484D01*
X202157504Y-57115408D01*
X202157509Y-57115410D01*
X202157516Y-57115416D01*
X202433234Y-57266994D01*
X202433239Y-57266996D01*
X202433241Y-57266997D01*
X202433242Y-57266998D01*
X202725771Y-57382818D01*
X202725774Y-57382819D01*
X203030523Y-57461065D01*
X203030527Y-57461066D01*
X203096010Y-57469338D01*
X203342670Y-57500499D01*
X203342679Y-57500499D01*
X203342682Y-57500500D01*
X203345500Y-57500500D01*
X203346267Y-57500725D01*
X203346565Y-57500744D01*
X203346560Y-57500811D01*
X203412539Y-57520185D01*
X203458294Y-57572989D01*
X203469500Y-57624500D01*
X203469500Y-132375500D01*
X203449815Y-132442539D01*
X203397011Y-132488294D01*
X203345500Y-132499500D01*
X203342670Y-132499500D01*
X203030536Y-132538932D01*
X203030523Y-132538934D01*
X202725774Y-132617180D01*
X202725771Y-132617181D01*
X202433242Y-132733001D01*
X202433241Y-132733002D01*
X202157516Y-132884584D01*
X202157504Y-132884591D01*
X201902978Y-133069515D01*
X201902968Y-133069523D01*
X201673608Y-133284907D01*
X201673606Y-133284909D01*
X201473054Y-133527334D01*
X201473051Y-133527338D01*
X201304464Y-133792990D01*
X201304461Y-133792996D01*
X201170499Y-134077678D01*
X201170497Y-134077683D01*
X201073270Y-134376916D01*
X201014311Y-134685988D01*
X201014310Y-134685995D01*
X200994556Y-134999994D01*
X200994556Y-135000005D01*
X201014310Y-135314004D01*
X201014311Y-135314011D01*
X201014312Y-135314015D01*
X201073269Y-135623079D01*
X201073270Y-135623081D01*
X201073271Y-135623086D01*
X201145118Y-135844212D01*
X201147113Y-135914053D01*
X201114868Y-135970210D01*
X197151899Y-139933181D01*
X197090576Y-139966666D01*
X197064218Y-139969500D01*
X182244782Y-139969500D01*
X182177743Y-139949815D01*
X182131988Y-139897011D01*
X182122044Y-139827853D01*
X182151069Y-139764297D01*
X182157101Y-139757819D01*
X183309187Y-138605733D01*
X184529439Y-137385480D01*
X184590760Y-137351997D01*
X184660452Y-137356981D01*
X184662654Y-137357827D01*
X184725775Y-137382819D01*
X184725778Y-137382820D01*
X185030523Y-137461065D01*
X185030527Y-137461066D01*
X185096010Y-137469338D01*
X185342670Y-137500499D01*
X185342679Y-137500499D01*
X185342682Y-137500500D01*
X185342684Y-137500500D01*
X185657316Y-137500500D01*
X185657318Y-137500500D01*
X185657321Y-137500499D01*
X185657329Y-137500499D01*
X185843593Y-137476968D01*
X185969473Y-137461066D01*
X186274225Y-137382819D01*
X186274228Y-137382818D01*
X186566757Y-137266998D01*
X186566758Y-137266997D01*
X186566756Y-137266997D01*
X186566766Y-137266994D01*
X186842484Y-137115416D01*
X187097030Y-136930478D01*
X187326390Y-136715094D01*
X187526947Y-136472663D01*
X187695537Y-136207007D01*
X187829503Y-135922315D01*
X187926731Y-135623079D01*
X187985688Y-135314015D01*
X187988249Y-135273308D01*
X188005444Y-135000005D01*
X188005444Y-134999994D01*
X187985689Y-134685995D01*
X187985688Y-134685988D01*
X187985688Y-134685985D01*
X187926731Y-134376921D01*
X187829503Y-134077685D01*
X187695537Y-133792993D01*
X187666469Y-133747190D01*
X187526950Y-133527341D01*
X187526945Y-133527335D01*
X187464955Y-133452401D01*
X187437391Y-133388200D01*
X187436500Y-133373362D01*
X187436500Y-130000005D01*
X195995057Y-130000005D01*
X196014807Y-130313942D01*
X196014808Y-130313949D01*
X196073755Y-130622958D01*
X196170963Y-130922132D01*
X196170965Y-130922137D01*
X196304900Y-131206761D01*
X196304903Y-131206767D01*
X196473457Y-131472367D01*
X196473460Y-131472371D01*
X196564286Y-131582160D01*
X197637426Y-130509020D01*
X197723249Y-130637463D01*
X197862537Y-130776751D01*
X197990978Y-130862573D01*
X196914971Y-131938579D01*
X196914972Y-131938581D01*
X197157772Y-132114985D01*
X197157790Y-132114996D01*
X197433447Y-132266540D01*
X197433455Y-132266544D01*
X197725926Y-132382340D01*
X198030620Y-132460573D01*
X198030629Y-132460575D01*
X198342701Y-132499999D01*
X198342715Y-132500000D01*
X198657285Y-132500000D01*
X198657298Y-132499999D01*
X198969370Y-132460575D01*
X198969379Y-132460573D01*
X199274073Y-132382340D01*
X199566544Y-132266544D01*
X199566552Y-132266540D01*
X199842209Y-132114996D01*
X199842219Y-132114990D01*
X200085026Y-131938579D01*
X200085027Y-131938579D01*
X199009020Y-130862573D01*
X199137463Y-130776751D01*
X199276751Y-130637463D01*
X199362573Y-130509021D01*
X200435712Y-131582160D01*
X200526544Y-131472364D01*
X200695096Y-131206767D01*
X200695099Y-131206761D01*
X200829034Y-130922137D01*
X200829036Y-130922132D01*
X200926244Y-130622958D01*
X200985191Y-130313949D01*
X200985192Y-130313942D01*
X201004943Y-130000005D01*
X201004943Y-129999994D01*
X200985192Y-129686057D01*
X200985191Y-129686050D01*
X200926244Y-129377041D01*
X200829036Y-129077867D01*
X200829034Y-129077862D01*
X200695099Y-128793238D01*
X200695096Y-128793232D01*
X200526542Y-128527632D01*
X200526539Y-128527628D01*
X200435712Y-128417838D01*
X199362573Y-129490978D01*
X199276751Y-129362537D01*
X199137463Y-129223249D01*
X199009020Y-129137426D01*
X200085027Y-128061419D01*
X200085026Y-128061417D01*
X199842227Y-127885014D01*
X199842209Y-127885003D01*
X199566552Y-127733459D01*
X199566544Y-127733455D01*
X199274073Y-127617659D01*
X198969379Y-127539426D01*
X198969370Y-127539424D01*
X198657298Y-127500000D01*
X198342701Y-127500000D01*
X198030629Y-127539424D01*
X198030620Y-127539426D01*
X197725926Y-127617659D01*
X197433455Y-127733455D01*
X197433447Y-127733459D01*
X197157787Y-127885004D01*
X197157782Y-127885007D01*
X196914972Y-128061418D01*
X196914971Y-128061419D01*
X197990979Y-129137426D01*
X197862537Y-129223249D01*
X197723249Y-129362537D01*
X197637426Y-129490978D01*
X196564286Y-128417838D01*
X196564285Y-128417838D01*
X196473459Y-128527629D01*
X196473457Y-128527632D01*
X196304903Y-128793232D01*
X196304900Y-128793238D01*
X196170965Y-129077862D01*
X196170963Y-129077867D01*
X196073755Y-129377041D01*
X196014808Y-129686050D01*
X196014807Y-129686057D01*
X195995057Y-129999994D01*
X195995057Y-130000005D01*
X187436500Y-130000005D01*
X187436500Y-124812543D01*
X198897499Y-124812543D01*
X198935947Y-125005829D01*
X198935950Y-125005839D01*
X199011364Y-125187907D01*
X199011371Y-125187920D01*
X199120860Y-125351781D01*
X199120863Y-125351785D01*
X199260214Y-125491136D01*
X199260218Y-125491139D01*
X199424079Y-125600628D01*
X199424092Y-125600635D01*
X199606160Y-125676049D01*
X199606165Y-125676051D01*
X199606169Y-125676051D01*
X199606170Y-125676052D01*
X199799456Y-125714500D01*
X199799459Y-125714500D01*
X202234543Y-125714500D01*
X202364582Y-125688632D01*
X202427835Y-125676051D01*
X202609914Y-125600632D01*
X202773782Y-125491139D01*
X202913139Y-125351782D01*
X203022632Y-125187914D01*
X203098051Y-125005835D01*
X203136500Y-124812541D01*
X203136500Y-65179459D01*
X203136500Y-65179456D01*
X203098052Y-64986170D01*
X203098051Y-64986169D01*
X203098051Y-64986165D01*
X203098049Y-64986160D01*
X203022635Y-64804092D01*
X203022628Y-64804079D01*
X202913139Y-64640218D01*
X202913136Y-64640214D01*
X202773785Y-64500863D01*
X202773781Y-64500860D01*
X202609920Y-64391371D01*
X202609907Y-64391364D01*
X202427839Y-64315950D01*
X202427829Y-64315947D01*
X202234543Y-64277500D01*
X202234541Y-64277500D01*
X199996541Y-64277500D01*
X199799459Y-64277500D01*
X199799457Y-64277500D01*
X199606170Y-64315947D01*
X199606160Y-64315950D01*
X199424092Y-64391364D01*
X199424079Y-64391371D01*
X199260218Y-64500860D01*
X199260214Y-64500863D01*
X199120863Y-64640214D01*
X199120860Y-64640218D01*
X199011371Y-64804079D01*
X199011364Y-64804092D01*
X198935950Y-64986160D01*
X198935947Y-64986170D01*
X198897500Y-65179456D01*
X198897500Y-65179459D01*
X198897500Y-124812541D01*
X198897500Y-124812543D01*
X198897499Y-124812543D01*
X187436500Y-124812543D01*
X187436500Y-60000005D01*
X195994556Y-60000005D01*
X196014310Y-60314004D01*
X196014311Y-60314011D01*
X196073270Y-60623083D01*
X196170497Y-60922316D01*
X196170499Y-60922321D01*
X196304461Y-61207003D01*
X196304464Y-61207009D01*
X196473051Y-61472661D01*
X196473054Y-61472665D01*
X196673606Y-61715090D01*
X196673608Y-61715092D01*
X196902968Y-61930476D01*
X196902978Y-61930484D01*
X197157504Y-62115408D01*
X197157509Y-62115410D01*
X197157516Y-62115416D01*
X197433234Y-62266994D01*
X197433239Y-62266996D01*
X197433241Y-62266997D01*
X197433242Y-62266998D01*
X197725771Y-62382818D01*
X197725774Y-62382819D01*
X198030523Y-62461065D01*
X198030527Y-62461066D01*
X198096010Y-62469338D01*
X198342670Y-62500499D01*
X198342679Y-62500499D01*
X198342682Y-62500500D01*
X198342684Y-62500500D01*
X198657316Y-62500500D01*
X198657318Y-62500500D01*
X198657321Y-62500499D01*
X198657329Y-62500499D01*
X198843593Y-62476968D01*
X198969473Y-62461066D01*
X199274225Y-62382819D01*
X199274228Y-62382818D01*
X199566757Y-62266998D01*
X199566758Y-62266997D01*
X199566756Y-62266997D01*
X199566766Y-62266994D01*
X199842484Y-62115416D01*
X200097030Y-61930478D01*
X200326390Y-61715094D01*
X200526947Y-61472663D01*
X200695537Y-61207007D01*
X200829503Y-60922315D01*
X200926731Y-60623079D01*
X200985688Y-60314015D01*
X201005444Y-60000000D01*
X200985688Y-59685985D01*
X200926731Y-59376921D01*
X200829503Y-59077685D01*
X200695537Y-58792993D01*
X200526947Y-58527337D01*
X200526945Y-58527334D01*
X200326393Y-58284909D01*
X200326391Y-58284907D01*
X200097031Y-58069523D01*
X200097021Y-58069515D01*
X199842495Y-57884591D01*
X199842488Y-57884586D01*
X199842484Y-57884584D01*
X199566766Y-57733006D01*
X199566763Y-57733004D01*
X199566758Y-57733002D01*
X199566757Y-57733001D01*
X199274228Y-57617181D01*
X199274225Y-57617180D01*
X198969476Y-57538934D01*
X198969463Y-57538932D01*
X198657329Y-57499500D01*
X198657318Y-57499500D01*
X198342682Y-57499500D01*
X198342670Y-57499500D01*
X198030536Y-57538932D01*
X198030523Y-57538934D01*
X197725774Y-57617180D01*
X197725771Y-57617181D01*
X197433242Y-57733001D01*
X197433241Y-57733002D01*
X197157516Y-57884584D01*
X197157504Y-57884591D01*
X196902978Y-58069515D01*
X196902968Y-58069523D01*
X196673608Y-58284907D01*
X196673606Y-58284909D01*
X196473054Y-58527334D01*
X196473051Y-58527338D01*
X196304464Y-58792990D01*
X196304461Y-58792996D01*
X196170499Y-59077678D01*
X196170497Y-59077683D01*
X196073270Y-59376916D01*
X196014311Y-59685988D01*
X196014310Y-59685995D01*
X195994556Y-59999994D01*
X195994556Y-60000005D01*
X187436500Y-60000005D01*
X187436500Y-56626636D01*
X187456185Y-56559597D01*
X187464957Y-56547595D01*
X187478312Y-56531452D01*
X187526947Y-56472663D01*
X187695537Y-56207007D01*
X187829503Y-55922315D01*
X187926731Y-55623079D01*
X187985688Y-55314015D01*
X188005444Y-55000000D01*
X187985688Y-54685985D01*
X187926731Y-54376921D01*
X187829503Y-54077685D01*
X187695537Y-53792993D01*
X187526947Y-53527337D01*
X187526945Y-53527334D01*
X187326393Y-53284909D01*
X187326391Y-53284907D01*
X187097031Y-53069523D01*
X187097021Y-53069515D01*
X186842495Y-52884591D01*
X186842488Y-52884586D01*
X186842484Y-52884584D01*
X186566766Y-52733006D01*
X186566763Y-52733004D01*
X186566758Y-52733002D01*
X186566757Y-52733001D01*
X186274228Y-52617181D01*
X186274225Y-52617180D01*
X185969476Y-52538934D01*
X185969463Y-52538932D01*
X185657329Y-52499500D01*
X185657318Y-52499500D01*
X185342682Y-52499500D01*
X185342670Y-52499500D01*
X185030536Y-52538932D01*
X185030523Y-52538934D01*
X184725774Y-52617180D01*
X184725771Y-52617181D01*
X184433242Y-52733001D01*
X184433241Y-52733002D01*
X184157516Y-52884584D01*
X184157504Y-52884591D01*
X183902978Y-53069515D01*
X183902968Y-53069523D01*
X183673608Y-53284907D01*
X183673606Y-53284909D01*
X183473054Y-53527334D01*
X183473051Y-53527338D01*
X183304464Y-53792990D01*
X183304461Y-53792996D01*
X183170499Y-54077678D01*
X183170497Y-54077683D01*
X183073270Y-54376916D01*
X183014311Y-54685988D01*
X183014310Y-54685995D01*
X182994556Y-54999994D01*
X182994556Y-55000005D01*
X183014310Y-55314004D01*
X183014311Y-55314011D01*
X183073270Y-55623083D01*
X183170497Y-55922316D01*
X183170499Y-55922321D01*
X183304461Y-56207003D01*
X183304464Y-56207009D01*
X183473051Y-56472661D01*
X183473054Y-56472665D01*
X183673606Y-56715090D01*
X183673608Y-56715092D01*
X183902968Y-56930476D01*
X183902978Y-56930484D01*
X184157504Y-57115408D01*
X184157509Y-57115410D01*
X184157516Y-57115416D01*
X184433234Y-57266994D01*
X184433239Y-57266996D01*
X184433241Y-57266997D01*
X184433242Y-57266998D01*
X184725771Y-57382818D01*
X184725774Y-57382819D01*
X185030523Y-57461065D01*
X185030527Y-57461066D01*
X185327041Y-57498524D01*
X185391085Y-57526455D01*
X185429861Y-57584577D01*
X185435500Y-57621546D01*
X185435500Y-132378453D01*
X185415815Y-132445492D01*
X185363011Y-132491247D01*
X185327041Y-132501475D01*
X185030536Y-132538932D01*
X185030523Y-132538934D01*
X184725774Y-132617180D01*
X184725771Y-132617181D01*
X184433242Y-132733001D01*
X184433241Y-132733002D01*
X184157516Y-132884584D01*
X184157504Y-132884591D01*
X183902978Y-133069515D01*
X183902968Y-133069523D01*
X183673608Y-133284907D01*
X183673606Y-133284909D01*
X183473054Y-133527334D01*
X183473051Y-133527338D01*
X183304464Y-133792990D01*
X183304461Y-133792996D01*
X183170499Y-134077678D01*
X183170497Y-134077683D01*
X183073270Y-134376916D01*
X183014311Y-134685988D01*
X183014310Y-134685995D01*
X182994556Y-134999994D01*
X182994556Y-135000005D01*
X183014310Y-135314004D01*
X183014311Y-135314011D01*
X183014312Y-135314015D01*
X183049790Y-135500000D01*
X183073270Y-135623083D01*
X183145118Y-135844210D01*
X183147113Y-135914052D01*
X183114868Y-135970209D01*
X180651899Y-138433181D01*
X180590576Y-138466666D01*
X180564218Y-138469500D01*
X169997102Y-138469500D01*
X169930063Y-138449815D01*
X169909421Y-138433181D01*
X169136819Y-137660579D01*
X169103334Y-137599256D01*
X169100500Y-137572898D01*
X169100500Y-135500001D01*
X171194532Y-135500001D01*
X171214364Y-135726686D01*
X171214366Y-135726697D01*
X171273258Y-135946488D01*
X171273261Y-135946497D01*
X171369431Y-136152732D01*
X171369432Y-136152734D01*
X171499954Y-136339141D01*
X171660858Y-136500045D01*
X171660861Y-136500047D01*
X171847266Y-136630568D01*
X172053504Y-136726739D01*
X172273308Y-136785635D01*
X172435230Y-136799801D01*
X172499998Y-136805468D01*
X172500000Y-136805468D01*
X172500002Y-136805468D01*
X172556673Y-136800509D01*
X172726692Y-136785635D01*
X172946496Y-136726739D01*
X173152734Y-136630568D01*
X173339139Y-136500047D01*
X173500047Y-136339139D01*
X173630568Y-136152734D01*
X173726739Y-135946496D01*
X173785635Y-135726692D01*
X173805468Y-135500000D01*
X173785635Y-135273308D01*
X173726739Y-135053504D01*
X173630568Y-134847266D01*
X173500047Y-134660861D01*
X173500045Y-134660858D01*
X173339141Y-134499954D01*
X173152734Y-134369432D01*
X173152728Y-134369429D01*
X173094725Y-134342382D01*
X173042285Y-134296210D01*
X173023133Y-134229017D01*
X173043348Y-134162135D01*
X173094725Y-134117618D01*
X173152734Y-134090568D01*
X173339139Y-133960047D01*
X173500047Y-133799139D01*
X173630568Y-133612734D01*
X173726739Y-133406496D01*
X173785635Y-133186692D01*
X173805468Y-132960000D01*
X173785635Y-132733308D01*
X173726739Y-132513504D01*
X173630568Y-132307266D01*
X173500047Y-132120861D01*
X173500045Y-132120858D01*
X173339141Y-131959954D01*
X173152734Y-131829432D01*
X173152728Y-131829429D01*
X173094725Y-131802382D01*
X173042285Y-131756210D01*
X173023133Y-131689017D01*
X173043348Y-131622135D01*
X173094725Y-131577618D01*
X173152734Y-131550568D01*
X173339139Y-131420047D01*
X173500047Y-131259139D01*
X173630568Y-131072734D01*
X173726739Y-130866496D01*
X173785635Y-130646692D01*
X173805468Y-130420000D01*
X173785635Y-130193308D01*
X173733840Y-130000005D01*
X177995057Y-130000005D01*
X178014807Y-130313942D01*
X178014808Y-130313949D01*
X178073755Y-130622958D01*
X178170963Y-130922132D01*
X178170965Y-130922137D01*
X178304900Y-131206761D01*
X178304903Y-131206767D01*
X178473457Y-131472367D01*
X178473460Y-131472371D01*
X178564286Y-131582160D01*
X179637426Y-130509020D01*
X179723249Y-130637463D01*
X179862537Y-130776751D01*
X179990978Y-130862573D01*
X178914971Y-131938579D01*
X178914972Y-131938581D01*
X179157772Y-132114985D01*
X179157790Y-132114996D01*
X179433447Y-132266540D01*
X179433455Y-132266544D01*
X179725926Y-132382340D01*
X180030620Y-132460573D01*
X180030629Y-132460575D01*
X180342701Y-132499999D01*
X180342715Y-132500000D01*
X180657285Y-132500000D01*
X180657298Y-132499999D01*
X180969370Y-132460575D01*
X180969379Y-132460573D01*
X181274073Y-132382340D01*
X181566544Y-132266544D01*
X181566552Y-132266540D01*
X181842209Y-132114996D01*
X181842219Y-132114990D01*
X182085026Y-131938579D01*
X182085027Y-131938579D01*
X181009020Y-130862573D01*
X181137463Y-130776751D01*
X181276751Y-130637463D01*
X181362573Y-130509021D01*
X182435712Y-131582160D01*
X182526544Y-131472364D01*
X182695096Y-131206767D01*
X182695099Y-131206761D01*
X182829034Y-130922137D01*
X182829036Y-130922132D01*
X182926244Y-130622958D01*
X182985191Y-130313949D01*
X182985192Y-130313942D01*
X183004943Y-130000005D01*
X183004943Y-129999994D01*
X182985192Y-129686057D01*
X182985191Y-129686050D01*
X182926244Y-129377041D01*
X182829036Y-129077867D01*
X182829034Y-129077862D01*
X182695099Y-128793238D01*
X182695096Y-128793232D01*
X182526542Y-128527632D01*
X182526539Y-128527628D01*
X182435712Y-128417838D01*
X181362573Y-129490978D01*
X181276751Y-129362537D01*
X181137463Y-129223249D01*
X181009020Y-129137426D01*
X182085027Y-128061419D01*
X182085026Y-128061417D01*
X181842227Y-127885014D01*
X181842209Y-127885003D01*
X181566552Y-127733459D01*
X181566544Y-127733455D01*
X181274073Y-127617659D01*
X180969379Y-127539426D01*
X180969370Y-127539424D01*
X180657298Y-127500000D01*
X180342701Y-127500000D01*
X180030629Y-127539424D01*
X180030620Y-127539426D01*
X179725926Y-127617659D01*
X179433455Y-127733455D01*
X179433447Y-127733459D01*
X179157787Y-127885004D01*
X179157782Y-127885007D01*
X178914972Y-128061418D01*
X178914971Y-128061419D01*
X179990979Y-129137426D01*
X179862537Y-129223249D01*
X179723249Y-129362537D01*
X179637426Y-129490978D01*
X178564286Y-128417838D01*
X178564285Y-128417838D01*
X178473459Y-128527629D01*
X178473457Y-128527632D01*
X178304903Y-128793232D01*
X178304900Y-128793238D01*
X178170965Y-129077862D01*
X178170963Y-129077867D01*
X178073755Y-129377041D01*
X178014808Y-129686050D01*
X178014807Y-129686057D01*
X177995057Y-129999994D01*
X177995057Y-130000005D01*
X173733840Y-130000005D01*
X173726739Y-129973504D01*
X173630568Y-129767266D01*
X173500047Y-129580861D01*
X173500045Y-129580858D01*
X173339141Y-129419954D01*
X173152734Y-129289432D01*
X173152728Y-129289429D01*
X173094725Y-129262382D01*
X173042285Y-129216210D01*
X173023133Y-129149017D01*
X173043348Y-129082135D01*
X173094725Y-129037618D01*
X173152734Y-129010568D01*
X173339139Y-128880047D01*
X173500047Y-128719139D01*
X173630568Y-128532734D01*
X173726739Y-128326496D01*
X173785635Y-128106692D01*
X173805468Y-127880000D01*
X173785635Y-127653308D01*
X173726739Y-127433504D01*
X173630568Y-127227266D01*
X173500047Y-127040861D01*
X173500045Y-127040858D01*
X173339141Y-126879954D01*
X173152734Y-126749432D01*
X173152728Y-126749429D01*
X173094725Y-126722382D01*
X173042285Y-126676210D01*
X173023133Y-126609017D01*
X173043348Y-126542135D01*
X173094725Y-126497618D01*
X173152734Y-126470568D01*
X173339139Y-126340047D01*
X173500047Y-126179139D01*
X173630568Y-125992734D01*
X173726739Y-125786496D01*
X173785635Y-125566692D01*
X173805468Y-125340000D01*
X173785635Y-125113308D01*
X173726739Y-124893504D01*
X173688986Y-124812543D01*
X180911499Y-124812543D01*
X180949947Y-125005829D01*
X180949950Y-125005839D01*
X181025364Y-125187907D01*
X181025371Y-125187920D01*
X181134860Y-125351781D01*
X181134863Y-125351785D01*
X181274214Y-125491136D01*
X181274218Y-125491139D01*
X181438079Y-125600628D01*
X181438092Y-125600635D01*
X181620160Y-125676049D01*
X181620165Y-125676051D01*
X181620169Y-125676051D01*
X181620170Y-125676052D01*
X181813456Y-125714500D01*
X181813459Y-125714500D01*
X184248543Y-125714500D01*
X184378582Y-125688632D01*
X184441835Y-125676051D01*
X184623914Y-125600632D01*
X184787782Y-125491139D01*
X184927139Y-125351782D01*
X185036632Y-125187914D01*
X185112051Y-125005835D01*
X185150500Y-124812541D01*
X185150500Y-65179459D01*
X185150500Y-65179456D01*
X185112052Y-64986170D01*
X185112051Y-64986169D01*
X185112051Y-64986165D01*
X185112049Y-64986160D01*
X185036635Y-64804092D01*
X185036628Y-64804079D01*
X184927139Y-64640218D01*
X184927136Y-64640214D01*
X184787785Y-64500863D01*
X184787781Y-64500860D01*
X184623920Y-64391371D01*
X184623907Y-64391364D01*
X184441839Y-64315950D01*
X184441829Y-64315947D01*
X184248543Y-64277500D01*
X184248541Y-64277500D01*
X182010541Y-64277500D01*
X181813459Y-64277500D01*
X181813457Y-64277500D01*
X181620170Y-64315947D01*
X181620160Y-64315950D01*
X181438092Y-64391364D01*
X181438079Y-64391371D01*
X181274218Y-64500860D01*
X181274214Y-64500863D01*
X181134863Y-64640214D01*
X181134860Y-64640218D01*
X181025371Y-64804079D01*
X181025364Y-64804092D01*
X180949950Y-64986160D01*
X180949947Y-64986170D01*
X180911500Y-65179456D01*
X180911500Y-65179459D01*
X180911500Y-124812541D01*
X180911500Y-124812543D01*
X180911499Y-124812543D01*
X173688986Y-124812543D01*
X173630568Y-124687266D01*
X173500047Y-124500861D01*
X173500045Y-124500858D01*
X173339141Y-124339954D01*
X173152734Y-124209432D01*
X173152728Y-124209429D01*
X173094725Y-124182382D01*
X173042285Y-124136210D01*
X173023133Y-124069017D01*
X173043348Y-124002135D01*
X173094725Y-123957618D01*
X173152734Y-123930568D01*
X173339139Y-123800047D01*
X173500047Y-123639139D01*
X173630568Y-123452734D01*
X173726739Y-123246496D01*
X173785635Y-123026692D01*
X173805468Y-122800000D01*
X173785635Y-122573308D01*
X173726739Y-122353504D01*
X173630568Y-122147266D01*
X173500047Y-121960861D01*
X173500045Y-121960858D01*
X173339141Y-121799954D01*
X173152734Y-121669432D01*
X173152728Y-121669429D01*
X173094725Y-121642382D01*
X173042285Y-121596210D01*
X173023133Y-121529017D01*
X173043348Y-121462135D01*
X173094725Y-121417618D01*
X173152734Y-121390568D01*
X173339139Y-121260047D01*
X173500047Y-121099139D01*
X173630568Y-120912734D01*
X173726739Y-120706496D01*
X173785635Y-120486692D01*
X173805468Y-120260000D01*
X173785635Y-120033308D01*
X173726739Y-119813504D01*
X173630568Y-119607266D01*
X173500047Y-119420861D01*
X173500045Y-119420858D01*
X173339141Y-119259954D01*
X173152734Y-119129432D01*
X173152728Y-119129429D01*
X173094725Y-119102382D01*
X173042285Y-119056210D01*
X173023133Y-118989017D01*
X173043348Y-118922135D01*
X173094725Y-118877618D01*
X173152734Y-118850568D01*
X173339139Y-118720047D01*
X173500047Y-118559139D01*
X173630568Y-118372734D01*
X173726739Y-118166496D01*
X173785635Y-117946692D01*
X173805468Y-117720000D01*
X173785635Y-117493308D01*
X173726739Y-117273504D01*
X173630568Y-117067266D01*
X173500047Y-116880861D01*
X173500045Y-116880858D01*
X173339141Y-116719954D01*
X173152734Y-116589432D01*
X173152728Y-116589429D01*
X173094725Y-116562382D01*
X173042285Y-116516210D01*
X173023133Y-116449017D01*
X173043348Y-116382135D01*
X173094725Y-116337618D01*
X173152734Y-116310568D01*
X173339139Y-116180047D01*
X173500047Y-116019139D01*
X173630568Y-115832734D01*
X173726739Y-115626496D01*
X173785635Y-115406692D01*
X173805468Y-115180000D01*
X173785635Y-114953308D01*
X173726739Y-114733504D01*
X173630568Y-114527266D01*
X173500047Y-114340861D01*
X173500045Y-114340858D01*
X173339141Y-114179954D01*
X173152734Y-114049432D01*
X173152728Y-114049429D01*
X173094725Y-114022382D01*
X173042285Y-113976210D01*
X173023133Y-113909017D01*
X173043348Y-113842135D01*
X173094725Y-113797618D01*
X173152734Y-113770568D01*
X173339139Y-113640047D01*
X173500047Y-113479139D01*
X173630568Y-113292734D01*
X173726739Y-113086496D01*
X173785635Y-112866692D01*
X173805468Y-112640000D01*
X173785635Y-112413308D01*
X173726739Y-112193504D01*
X173630568Y-111987266D01*
X173500047Y-111800861D01*
X173500045Y-111800858D01*
X173339141Y-111639954D01*
X173152734Y-111509432D01*
X173152728Y-111509429D01*
X173094725Y-111482382D01*
X173042285Y-111436210D01*
X173023133Y-111369017D01*
X173043348Y-111302135D01*
X173094725Y-111257618D01*
X173152734Y-111230568D01*
X173339139Y-111100047D01*
X173500047Y-110939139D01*
X173630568Y-110752734D01*
X173726739Y-110546496D01*
X173785635Y-110326692D01*
X173805468Y-110100000D01*
X173785635Y-109873308D01*
X173726739Y-109653504D01*
X173630568Y-109447266D01*
X173500047Y-109260861D01*
X173500045Y-109260858D01*
X173339141Y-109099954D01*
X173152734Y-108969432D01*
X173152728Y-108969429D01*
X173094725Y-108942382D01*
X173042285Y-108896210D01*
X173023133Y-108829017D01*
X173043348Y-108762135D01*
X173094725Y-108717618D01*
X173095319Y-108717341D01*
X173152734Y-108690568D01*
X173339139Y-108560047D01*
X173500047Y-108399139D01*
X173630568Y-108212734D01*
X173726739Y-108006496D01*
X173785635Y-107786692D01*
X173805468Y-107560000D01*
X173785635Y-107333308D01*
X173726739Y-107113504D01*
X173630568Y-106907266D01*
X173500047Y-106720861D01*
X173500045Y-106720858D01*
X173339141Y-106559954D01*
X173152734Y-106429432D01*
X173152728Y-106429429D01*
X173094725Y-106402382D01*
X173042285Y-106356210D01*
X173023133Y-106289017D01*
X173043348Y-106222135D01*
X173094725Y-106177618D01*
X173152734Y-106150568D01*
X173339139Y-106020047D01*
X173500047Y-105859139D01*
X173630568Y-105672734D01*
X173726739Y-105466496D01*
X173785635Y-105246692D01*
X173805468Y-105020000D01*
X173785635Y-104793308D01*
X173726739Y-104573504D01*
X173630568Y-104367266D01*
X173500047Y-104180861D01*
X173500045Y-104180858D01*
X173339141Y-104019954D01*
X173152734Y-103889432D01*
X173152728Y-103889429D01*
X173094725Y-103862382D01*
X173042285Y-103816210D01*
X173023133Y-103749017D01*
X173043348Y-103682135D01*
X173094725Y-103637618D01*
X173152734Y-103610568D01*
X173339139Y-103480047D01*
X173500047Y-103319139D01*
X173630568Y-103132734D01*
X173726739Y-102926496D01*
X173785635Y-102706692D01*
X173805468Y-102480000D01*
X173785635Y-102253308D01*
X173726739Y-102033504D01*
X173630568Y-101827266D01*
X173500047Y-101640861D01*
X173500045Y-101640858D01*
X173339143Y-101479956D01*
X173314536Y-101462726D01*
X173270912Y-101408149D01*
X173263719Y-101338650D01*
X173295241Y-101276296D01*
X173355471Y-101240882D01*
X173372404Y-101237861D01*
X173407483Y-101234091D01*
X173542331Y-101183796D01*
X173657546Y-101097546D01*
X173743796Y-100982331D01*
X173794091Y-100847483D01*
X173800500Y-100787873D01*
X173800499Y-99092128D01*
X173794091Y-99032517D01*
X173759567Y-98939954D01*
X173743797Y-98897671D01*
X173743793Y-98897664D01*
X173657547Y-98782455D01*
X173657544Y-98782452D01*
X173542335Y-98696206D01*
X173542328Y-98696202D01*
X173407482Y-98645908D01*
X173407483Y-98645908D01*
X173347883Y-98639501D01*
X173347881Y-98639500D01*
X173347873Y-98639500D01*
X173347864Y-98639500D01*
X171652129Y-98639500D01*
X171652123Y-98639501D01*
X171592516Y-98645908D01*
X171457671Y-98696202D01*
X171457664Y-98696206D01*
X171342455Y-98782452D01*
X171342452Y-98782455D01*
X171256206Y-98897664D01*
X171256202Y-98897671D01*
X171205908Y-99032517D01*
X171199501Y-99092116D01*
X171199501Y-99092123D01*
X171199500Y-99092135D01*
X171199500Y-100787870D01*
X171199501Y-100787876D01*
X171205908Y-100847483D01*
X171256202Y-100982328D01*
X171256206Y-100982335D01*
X171342452Y-101097544D01*
X171342455Y-101097547D01*
X171457664Y-101183793D01*
X171457671Y-101183797D01*
X171502618Y-101200561D01*
X171592517Y-101234091D01*
X171627596Y-101237862D01*
X171692144Y-101264599D01*
X171731993Y-101321991D01*
X171734488Y-101391816D01*
X171698836Y-101451905D01*
X171685464Y-101462725D01*
X171660858Y-101479954D01*
X171499954Y-101640858D01*
X171369432Y-101827265D01*
X171369431Y-101827267D01*
X171273261Y-102033502D01*
X171273258Y-102033511D01*
X171214366Y-102253302D01*
X171214364Y-102253313D01*
X171194532Y-102479998D01*
X171194532Y-102480001D01*
X171214364Y-102706686D01*
X171214366Y-102706697D01*
X171273258Y-102926488D01*
X171273261Y-102926497D01*
X171369431Y-103132732D01*
X171369432Y-103132734D01*
X171499954Y-103319141D01*
X171660858Y-103480045D01*
X171660861Y-103480047D01*
X171847266Y-103610568D01*
X171905275Y-103637618D01*
X171957714Y-103683791D01*
X171976866Y-103750984D01*
X171956650Y-103817865D01*
X171905275Y-103862382D01*
X171847267Y-103889431D01*
X171847265Y-103889432D01*
X171660858Y-104019954D01*
X171499954Y-104180858D01*
X171369432Y-104367265D01*
X171369431Y-104367267D01*
X171273261Y-104573502D01*
X171273258Y-104573511D01*
X171214366Y-104793302D01*
X171214364Y-104793313D01*
X171194532Y-105019998D01*
X171194532Y-105020001D01*
X171214364Y-105246686D01*
X171214366Y-105246697D01*
X171273258Y-105466488D01*
X171273261Y-105466497D01*
X171369431Y-105672732D01*
X171369432Y-105672734D01*
X171499954Y-105859141D01*
X171660858Y-106020045D01*
X171660861Y-106020047D01*
X171847266Y-106150568D01*
X171905275Y-106177618D01*
X171957714Y-106223791D01*
X171976866Y-106290984D01*
X171956650Y-106357865D01*
X171905275Y-106402382D01*
X171847267Y-106429431D01*
X171847265Y-106429432D01*
X171660858Y-106559954D01*
X171499954Y-106720858D01*
X171369432Y-106907265D01*
X171369431Y-106907267D01*
X171273261Y-107113502D01*
X171273258Y-107113511D01*
X171214366Y-107333302D01*
X171214364Y-107333313D01*
X171194532Y-107559998D01*
X171194532Y-107560001D01*
X171214364Y-107786686D01*
X171214366Y-107786697D01*
X171273258Y-108006488D01*
X171273261Y-108006497D01*
X171369431Y-108212732D01*
X171369432Y-108212734D01*
X171499954Y-108399141D01*
X171660858Y-108560045D01*
X171660861Y-108560047D01*
X171847266Y-108690568D01*
X171904681Y-108717341D01*
X171905275Y-108717618D01*
X171957714Y-108763791D01*
X171976866Y-108830984D01*
X171956650Y-108897865D01*
X171905275Y-108942382D01*
X171847267Y-108969431D01*
X171847265Y-108969432D01*
X171660858Y-109099954D01*
X171499954Y-109260858D01*
X171369432Y-109447265D01*
X171369431Y-109447267D01*
X171273261Y-109653502D01*
X171273258Y-109653511D01*
X171214366Y-109873302D01*
X171214364Y-109873313D01*
X171194532Y-110099998D01*
X171194532Y-110100001D01*
X171214364Y-110326686D01*
X171214366Y-110326697D01*
X171273258Y-110546488D01*
X171273261Y-110546497D01*
X171369431Y-110752732D01*
X171369432Y-110752734D01*
X171499954Y-110939141D01*
X171660858Y-111100045D01*
X171660861Y-111100047D01*
X171847266Y-111230568D01*
X171905275Y-111257618D01*
X171957714Y-111303791D01*
X171976866Y-111370984D01*
X171956650Y-111437865D01*
X171905275Y-111482382D01*
X171847267Y-111509431D01*
X171847265Y-111509432D01*
X171660858Y-111639954D01*
X171499954Y-111800858D01*
X171369432Y-111987265D01*
X171369431Y-111987267D01*
X171273261Y-112193502D01*
X171273258Y-112193511D01*
X171214366Y-112413302D01*
X171214364Y-112413313D01*
X171194532Y-112639998D01*
X171194532Y-112640001D01*
X171214364Y-112866686D01*
X171214366Y-112866697D01*
X171273258Y-113086488D01*
X171273261Y-113086497D01*
X171369431Y-113292732D01*
X171369432Y-113292734D01*
X171499954Y-113479141D01*
X171660858Y-113640045D01*
X171660861Y-113640047D01*
X171847266Y-113770568D01*
X171905275Y-113797618D01*
X171957714Y-113843791D01*
X171976866Y-113910984D01*
X171956650Y-113977865D01*
X171905275Y-114022382D01*
X171847267Y-114049431D01*
X171847265Y-114049432D01*
X171660858Y-114179954D01*
X171499954Y-114340858D01*
X171369432Y-114527265D01*
X171369431Y-114527267D01*
X171273261Y-114733502D01*
X171273258Y-114733511D01*
X171214366Y-114953302D01*
X171214364Y-114953313D01*
X171194532Y-115179998D01*
X171194532Y-115180001D01*
X171214364Y-115406686D01*
X171214366Y-115406697D01*
X171273258Y-115626488D01*
X171273261Y-115626497D01*
X171369431Y-115832732D01*
X171369432Y-115832734D01*
X171499954Y-116019141D01*
X171660858Y-116180045D01*
X171660861Y-116180047D01*
X171847266Y-116310568D01*
X171905275Y-116337618D01*
X171957714Y-116383791D01*
X171976866Y-116450984D01*
X171956650Y-116517865D01*
X171905275Y-116562382D01*
X171847267Y-116589431D01*
X171847265Y-116589432D01*
X171660858Y-116719954D01*
X171499954Y-116880858D01*
X171369432Y-117067265D01*
X171369431Y-117067267D01*
X171273261Y-117273502D01*
X171273258Y-117273511D01*
X171214366Y-117493302D01*
X171214364Y-117493313D01*
X171194532Y-117719998D01*
X171194532Y-117720001D01*
X171214364Y-117946686D01*
X171214366Y-117946697D01*
X171273258Y-118166488D01*
X171273261Y-118166497D01*
X171369431Y-118372732D01*
X171369432Y-118372734D01*
X171499954Y-118559141D01*
X171660858Y-118720045D01*
X171660861Y-118720047D01*
X171847266Y-118850568D01*
X171905275Y-118877618D01*
X171957714Y-118923791D01*
X171976866Y-118990984D01*
X171956650Y-119057865D01*
X171905275Y-119102382D01*
X171847267Y-119129431D01*
X171847265Y-119129432D01*
X171660858Y-119259954D01*
X171499954Y-119420858D01*
X171369432Y-119607265D01*
X171369431Y-119607267D01*
X171273261Y-119813502D01*
X171273258Y-119813511D01*
X171214366Y-120033302D01*
X171214364Y-120033313D01*
X171194532Y-120259998D01*
X171194532Y-120260001D01*
X171214364Y-120486686D01*
X171214366Y-120486697D01*
X171273258Y-120706488D01*
X171273261Y-120706497D01*
X171369431Y-120912732D01*
X171369432Y-120912734D01*
X171499954Y-121099141D01*
X171660858Y-121260045D01*
X171660861Y-121260047D01*
X171847266Y-121390568D01*
X171905275Y-121417618D01*
X171957714Y-121463791D01*
X171976866Y-121530984D01*
X171956650Y-121597865D01*
X171905275Y-121642382D01*
X171847267Y-121669431D01*
X171847265Y-121669432D01*
X171660858Y-121799954D01*
X171499954Y-121960858D01*
X171369432Y-122147265D01*
X171369431Y-122147267D01*
X171273261Y-122353502D01*
X171273258Y-122353511D01*
X171214366Y-122573302D01*
X171214364Y-122573313D01*
X171194532Y-122799998D01*
X171194532Y-122800001D01*
X171214364Y-123026686D01*
X171214366Y-123026697D01*
X171273258Y-123246488D01*
X171273261Y-123246497D01*
X171369431Y-123452732D01*
X171369432Y-123452734D01*
X171499954Y-123639141D01*
X171660858Y-123800045D01*
X171660861Y-123800047D01*
X171847266Y-123930568D01*
X171905275Y-123957618D01*
X171957714Y-124003791D01*
X171976866Y-124070984D01*
X171956650Y-124137865D01*
X171905275Y-124182382D01*
X171847267Y-124209431D01*
X171847265Y-124209432D01*
X171660858Y-124339954D01*
X171499954Y-124500858D01*
X171369432Y-124687265D01*
X171369431Y-124687267D01*
X171273261Y-124893502D01*
X171273258Y-124893511D01*
X171214366Y-125113302D01*
X171214364Y-125113313D01*
X171194532Y-125339998D01*
X171194532Y-125340001D01*
X171214364Y-125566686D01*
X171214366Y-125566697D01*
X171273258Y-125786488D01*
X171273261Y-125786497D01*
X171369431Y-125992732D01*
X171369432Y-125992734D01*
X171499954Y-126179141D01*
X171660858Y-126340045D01*
X171660861Y-126340047D01*
X171847266Y-126470568D01*
X171905275Y-126497618D01*
X171957714Y-126543791D01*
X171976866Y-126610984D01*
X171956650Y-126677865D01*
X171905275Y-126722382D01*
X171847267Y-126749431D01*
X171847265Y-126749432D01*
X171660858Y-126879954D01*
X171499954Y-127040858D01*
X171369432Y-127227265D01*
X171369431Y-127227267D01*
X171273261Y-127433502D01*
X171273258Y-127433511D01*
X171214366Y-127653302D01*
X171214364Y-127653313D01*
X171194532Y-127879998D01*
X171194532Y-127880001D01*
X171214364Y-128106686D01*
X171214366Y-128106697D01*
X171273258Y-128326488D01*
X171273261Y-128326497D01*
X171369431Y-128532732D01*
X171369432Y-128532734D01*
X171499954Y-128719141D01*
X171660858Y-128880045D01*
X171660861Y-128880047D01*
X171847266Y-129010568D01*
X171905275Y-129037618D01*
X171957714Y-129083791D01*
X171976866Y-129150984D01*
X171956650Y-129217865D01*
X171905275Y-129262382D01*
X171847267Y-129289431D01*
X171847265Y-129289432D01*
X171660858Y-129419954D01*
X171499954Y-129580858D01*
X171369432Y-129767265D01*
X171369431Y-129767267D01*
X171273261Y-129973502D01*
X171273258Y-129973511D01*
X171214366Y-130193302D01*
X171214364Y-130193313D01*
X171194532Y-130419998D01*
X171194532Y-130420001D01*
X171214364Y-130646686D01*
X171214366Y-130646697D01*
X171273258Y-130866488D01*
X171273261Y-130866497D01*
X171369431Y-131072732D01*
X171369432Y-131072734D01*
X171499954Y-131259141D01*
X171660858Y-131420045D01*
X171660861Y-131420047D01*
X171847266Y-131550568D01*
X171905275Y-131577618D01*
X171957714Y-131623791D01*
X171976866Y-131690984D01*
X171956650Y-131757865D01*
X171905275Y-131802382D01*
X171847267Y-131829431D01*
X171847265Y-131829432D01*
X171660858Y-131959954D01*
X171499954Y-132120858D01*
X171369432Y-132307265D01*
X171369431Y-132307267D01*
X171273261Y-132513502D01*
X171273258Y-132513511D01*
X171214366Y-132733302D01*
X171214364Y-132733313D01*
X171194532Y-132959998D01*
X171194532Y-132960001D01*
X171214364Y-133186686D01*
X171214366Y-133186697D01*
X171273258Y-133406488D01*
X171273261Y-133406497D01*
X171369431Y-133612732D01*
X171369432Y-133612734D01*
X171499954Y-133799141D01*
X171660858Y-133960045D01*
X171660861Y-133960047D01*
X171847266Y-134090568D01*
X171905275Y-134117618D01*
X171957714Y-134163791D01*
X171976866Y-134230984D01*
X171956650Y-134297865D01*
X171905275Y-134342382D01*
X171847267Y-134369431D01*
X171847265Y-134369432D01*
X171660858Y-134499954D01*
X171499954Y-134660858D01*
X171369432Y-134847265D01*
X171369431Y-134847267D01*
X171273261Y-135053502D01*
X171273258Y-135053511D01*
X171214366Y-135273302D01*
X171214364Y-135273313D01*
X171194532Y-135499998D01*
X171194532Y-135500001D01*
X169100500Y-135500001D01*
X169100500Y-124790086D01*
X169062052Y-124596800D01*
X169062051Y-124596799D01*
X169062051Y-124596795D01*
X169022313Y-124500858D01*
X168986635Y-124414722D01*
X168986628Y-124414709D01*
X168877139Y-124250848D01*
X168877136Y-124250844D01*
X168734686Y-124108394D01*
X168734655Y-124108365D01*
X159172849Y-114546559D01*
X159172829Y-114546537D01*
X159029155Y-114402863D01*
X159029151Y-114402860D01*
X158865290Y-114293371D01*
X158865281Y-114293366D01*
X158792685Y-114263296D01*
X158736535Y-114240038D01*
X158683206Y-114217949D01*
X158683202Y-114217948D01*
X158683198Y-114217946D01*
X158586558Y-114198724D01*
X158489914Y-114179500D01*
X158489911Y-114179500D01*
X158137588Y-114179500D01*
X158070549Y-114159815D01*
X158066465Y-114157075D01*
X157912734Y-114049432D01*
X157912728Y-114049429D01*
X157854725Y-114022382D01*
X157802285Y-113976210D01*
X157783133Y-113909017D01*
X157803348Y-113842135D01*
X157854725Y-113797618D01*
X157912734Y-113770568D01*
X158099139Y-113640047D01*
X158260047Y-113479139D01*
X158390568Y-113292734D01*
X158486739Y-113086496D01*
X158545635Y-112866692D01*
X158565468Y-112640000D01*
X158545635Y-112413308D01*
X158486739Y-112193504D01*
X158390568Y-111987266D01*
X158260047Y-111800861D01*
X158260045Y-111800858D01*
X158099141Y-111639954D01*
X157912734Y-111509432D01*
X157912728Y-111509429D01*
X157854725Y-111482382D01*
X157802285Y-111436210D01*
X157783133Y-111369017D01*
X157803348Y-111302135D01*
X157854725Y-111257618D01*
X157912734Y-111230568D01*
X158099139Y-111100047D01*
X158260047Y-110939139D01*
X158390568Y-110752734D01*
X158486739Y-110546496D01*
X158545635Y-110326692D01*
X158565468Y-110100000D01*
X158545635Y-109873308D01*
X158486739Y-109653504D01*
X158390568Y-109447266D01*
X158260047Y-109260861D01*
X158260045Y-109260858D01*
X158099141Y-109099954D01*
X157912734Y-108969432D01*
X157912732Y-108969431D01*
X157854725Y-108942382D01*
X157854132Y-108942105D01*
X157801694Y-108895934D01*
X157782542Y-108828740D01*
X157802758Y-108761859D01*
X157854134Y-108717341D01*
X157912484Y-108690132D01*
X158098820Y-108559657D01*
X158259657Y-108398820D01*
X158390134Y-108212482D01*
X158486265Y-108006326D01*
X158486269Y-108006317D01*
X158538872Y-107810000D01*
X157693012Y-107810000D01*
X157725925Y-107752993D01*
X157760000Y-107625826D01*
X157760000Y-107494174D01*
X157725925Y-107367007D01*
X157693012Y-107310000D01*
X158538872Y-107310000D01*
X158538872Y-107309999D01*
X158486269Y-107113682D01*
X158486265Y-107113673D01*
X158390134Y-106907517D01*
X158259657Y-106721179D01*
X158098820Y-106560342D01*
X157912482Y-106429865D01*
X157854133Y-106402657D01*
X157801694Y-106356484D01*
X157782542Y-106289291D01*
X157802758Y-106222410D01*
X157854129Y-106177895D01*
X157912734Y-106150568D01*
X158099139Y-106020047D01*
X158260047Y-105859139D01*
X158390568Y-105672734D01*
X158486739Y-105466496D01*
X158545635Y-105246692D01*
X158565468Y-105020000D01*
X158545635Y-104793308D01*
X158486739Y-104573504D01*
X158390568Y-104367266D01*
X158260047Y-104180861D01*
X158260045Y-104180858D01*
X158099141Y-104019954D01*
X157912734Y-103889432D01*
X157912728Y-103889429D01*
X157854725Y-103862382D01*
X157802285Y-103816210D01*
X157783133Y-103749017D01*
X157803348Y-103682135D01*
X157854725Y-103637618D01*
X157912734Y-103610568D01*
X158099139Y-103480047D01*
X158260047Y-103319139D01*
X158390568Y-103132734D01*
X158486739Y-102926496D01*
X158545635Y-102706692D01*
X158565468Y-102480000D01*
X158545635Y-102253308D01*
X158486739Y-102033504D01*
X158390568Y-101827266D01*
X158260047Y-101640861D01*
X158260045Y-101640858D01*
X158099141Y-101479954D01*
X157912734Y-101349432D01*
X157912728Y-101349429D01*
X157854725Y-101322382D01*
X157802285Y-101276210D01*
X157783133Y-101209017D01*
X157803348Y-101142135D01*
X157854725Y-101097618D01*
X157912734Y-101070568D01*
X158099139Y-100940047D01*
X158260047Y-100779139D01*
X158390568Y-100592734D01*
X158486739Y-100386496D01*
X158545635Y-100166692D01*
X158565468Y-99940000D01*
X158545635Y-99713308D01*
X158486739Y-99493504D01*
X158390568Y-99287266D01*
X158260047Y-99100861D01*
X158260045Y-99100858D01*
X158099141Y-98939954D01*
X157912734Y-98809432D01*
X157912732Y-98809431D01*
X157706497Y-98713261D01*
X157706488Y-98713258D01*
X157486697Y-98654366D01*
X157486693Y-98654365D01*
X157486692Y-98654365D01*
X157486691Y-98654364D01*
X157486686Y-98654364D01*
X157260002Y-98634532D01*
X157259998Y-98634532D01*
X157033313Y-98654364D01*
X157033302Y-98654366D01*
X156813511Y-98713258D01*
X156813502Y-98713261D01*
X156607267Y-98809431D01*
X156607265Y-98809432D01*
X156420858Y-98939954D01*
X156259954Y-99100858D01*
X156129432Y-99287265D01*
X156129431Y-99287267D01*
X156033261Y-99493502D01*
X156033258Y-99493511D01*
X155974366Y-99713302D01*
X155974364Y-99713313D01*
X155954532Y-99939998D01*
X155954532Y-99940001D01*
X155974364Y-100166686D01*
X155974366Y-100166697D01*
X156033258Y-100386488D01*
X156033261Y-100386497D01*
X156129431Y-100592732D01*
X156129432Y-100592734D01*
X156259954Y-100779141D01*
X156420858Y-100940045D01*
X156420861Y-100940047D01*
X156607266Y-101070568D01*
X156665275Y-101097618D01*
X156717714Y-101143791D01*
X156736866Y-101210984D01*
X156716650Y-101277865D01*
X156665275Y-101322382D01*
X156607267Y-101349431D01*
X156607265Y-101349432D01*
X156420858Y-101479954D01*
X156259954Y-101640858D01*
X156129432Y-101827265D01*
X156129431Y-101827267D01*
X156033261Y-102033502D01*
X156033258Y-102033511D01*
X155974366Y-102253302D01*
X155974364Y-102253313D01*
X155954532Y-102479998D01*
X155954532Y-102480001D01*
X155974364Y-102706686D01*
X155974366Y-102706697D01*
X156033258Y-102926488D01*
X156033261Y-102926497D01*
X156129431Y-103132732D01*
X156129432Y-103132734D01*
X156259954Y-103319141D01*
X156420858Y-103480045D01*
X156420861Y-103480047D01*
X156607266Y-103610568D01*
X156665275Y-103637618D01*
X156717714Y-103683791D01*
X156736866Y-103750984D01*
X156716650Y-103817865D01*
X156665275Y-103862382D01*
X156607267Y-103889431D01*
X156607265Y-103889432D01*
X156420858Y-104019954D01*
X156259954Y-104180858D01*
X156129432Y-104367265D01*
X156129431Y-104367267D01*
X156033261Y-104573502D01*
X156033258Y-104573511D01*
X155974366Y-104793302D01*
X155974364Y-104793313D01*
X155954532Y-105019998D01*
X155954532Y-105020001D01*
X155974364Y-105246686D01*
X155974366Y-105246697D01*
X156033258Y-105466488D01*
X156033261Y-105466497D01*
X156129431Y-105672732D01*
X156129432Y-105672734D01*
X156259954Y-105859141D01*
X156420858Y-106020045D01*
X156420861Y-106020047D01*
X156607266Y-106150568D01*
X156665865Y-106177893D01*
X156718305Y-106224065D01*
X156737457Y-106291258D01*
X156717242Y-106358139D01*
X156665867Y-106402657D01*
X156607515Y-106429867D01*
X156421179Y-106560342D01*
X156260342Y-106721179D01*
X156129865Y-106907517D01*
X156033734Y-107113673D01*
X156033730Y-107113682D01*
X155981127Y-107309999D01*
X155981128Y-107310000D01*
X156826988Y-107310000D01*
X156794075Y-107367007D01*
X156760000Y-107494174D01*
X156760000Y-107625826D01*
X156794075Y-107752993D01*
X156826988Y-107810000D01*
X155981128Y-107810000D01*
X156033730Y-108006317D01*
X156033734Y-108006326D01*
X156129865Y-108212482D01*
X156260342Y-108398820D01*
X156421179Y-108559657D01*
X156607518Y-108690134D01*
X156607520Y-108690135D01*
X156665865Y-108717342D01*
X156718305Y-108763514D01*
X156737457Y-108830707D01*
X156717242Y-108897589D01*
X156665867Y-108942105D01*
X156607268Y-108969431D01*
X156607264Y-108969433D01*
X156420858Y-109099954D01*
X156259954Y-109260858D01*
X156129432Y-109447265D01*
X156129431Y-109447267D01*
X156033261Y-109653502D01*
X156033258Y-109653511D01*
X155974366Y-109873302D01*
X155974364Y-109873313D01*
X155954532Y-110099998D01*
X155954532Y-110100001D01*
X155974364Y-110326686D01*
X155974366Y-110326697D01*
X156033258Y-110546488D01*
X156033261Y-110546497D01*
X156129431Y-110752732D01*
X156129432Y-110752734D01*
X156259954Y-110939141D01*
X156420858Y-111100045D01*
X156420861Y-111100047D01*
X156607266Y-111230568D01*
X156665275Y-111257618D01*
X156717714Y-111303791D01*
X156736866Y-111370984D01*
X156716650Y-111437865D01*
X156665275Y-111482382D01*
X156607267Y-111509431D01*
X156607265Y-111509432D01*
X156420858Y-111639954D01*
X156259954Y-111800858D01*
X156129432Y-111987265D01*
X156129431Y-111987267D01*
X156033261Y-112193502D01*
X156033258Y-112193511D01*
X155974366Y-112413302D01*
X155974364Y-112413313D01*
X155954532Y-112639998D01*
X155954532Y-112640001D01*
X155974364Y-112866686D01*
X155974366Y-112866697D01*
X156033258Y-113086488D01*
X156033261Y-113086497D01*
X156129431Y-113292732D01*
X156129432Y-113292734D01*
X156259954Y-113479141D01*
X156420858Y-113640045D01*
X156420861Y-113640047D01*
X156607266Y-113770568D01*
X156665275Y-113797618D01*
X156717714Y-113843791D01*
X156736866Y-113910984D01*
X156716650Y-113977865D01*
X156665275Y-114022382D01*
X156607267Y-114049431D01*
X156607265Y-114049432D01*
X156420858Y-114179954D01*
X156259954Y-114340858D01*
X156129432Y-114527265D01*
X156129431Y-114527267D01*
X156033261Y-114733502D01*
X156033258Y-114733511D01*
X155974366Y-114953302D01*
X155974364Y-114953313D01*
X155954532Y-115179998D01*
X155954532Y-115180001D01*
X155974364Y-115406686D01*
X155974366Y-115406697D01*
X156033258Y-115626488D01*
X156033261Y-115626497D01*
X156129431Y-115832732D01*
X156129432Y-115832734D01*
X156259954Y-116019141D01*
X156420858Y-116180045D01*
X156420861Y-116180047D01*
X156607266Y-116310568D01*
X156665275Y-116337618D01*
X156717714Y-116383791D01*
X156736866Y-116450984D01*
X156716650Y-116517865D01*
X156665275Y-116562382D01*
X156607267Y-116589431D01*
X156607265Y-116589432D01*
X156420858Y-116719954D01*
X156259954Y-116880858D01*
X156129432Y-117067265D01*
X156129431Y-117067267D01*
X156033261Y-117273502D01*
X156033258Y-117273511D01*
X155974366Y-117493302D01*
X155974364Y-117493313D01*
X155954532Y-117719998D01*
X155954532Y-117720001D01*
X155974364Y-117946686D01*
X155974366Y-117946697D01*
X156033258Y-118166488D01*
X156033261Y-118166497D01*
X156129431Y-118372732D01*
X156129432Y-118372734D01*
X156259954Y-118559141D01*
X156420858Y-118720045D01*
X156420861Y-118720047D01*
X156607266Y-118850568D01*
X156665275Y-118877618D01*
X156717714Y-118923791D01*
X156736866Y-118990984D01*
X156716650Y-119057865D01*
X156665275Y-119102382D01*
X156607267Y-119129431D01*
X156607265Y-119129432D01*
X156420858Y-119259954D01*
X156259954Y-119420858D01*
X156129432Y-119607265D01*
X156129431Y-119607267D01*
X156033261Y-119813502D01*
X156033258Y-119813511D01*
X155974366Y-120033302D01*
X155974364Y-120033313D01*
X155954532Y-120259998D01*
X155954532Y-120260001D01*
X155974364Y-120486686D01*
X155974366Y-120486697D01*
X156033258Y-120706488D01*
X156033261Y-120706497D01*
X156129431Y-120912732D01*
X156129432Y-120912734D01*
X156259954Y-121099141D01*
X156420858Y-121260045D01*
X156420861Y-121260047D01*
X156607266Y-121390568D01*
X156665275Y-121417618D01*
X156717714Y-121463791D01*
X156736866Y-121530984D01*
X156716650Y-121597865D01*
X156665275Y-121642382D01*
X156607267Y-121669431D01*
X156607265Y-121669432D01*
X156420858Y-121799954D01*
X156259954Y-121960858D01*
X156129432Y-122147265D01*
X156129431Y-122147267D01*
X156033261Y-122353502D01*
X156033258Y-122353511D01*
X155974366Y-122573302D01*
X155974364Y-122573313D01*
X155954532Y-122799998D01*
X155954532Y-122800001D01*
X155974364Y-123026686D01*
X155974366Y-123026697D01*
X156033258Y-123246488D01*
X156033261Y-123246497D01*
X156129431Y-123452732D01*
X156129432Y-123452734D01*
X156259954Y-123639141D01*
X156420858Y-123800045D01*
X156420861Y-123800047D01*
X156607266Y-123930568D01*
X156665275Y-123957618D01*
X156717714Y-124003791D01*
X156736866Y-124070984D01*
X156716650Y-124137865D01*
X156665275Y-124182382D01*
X156607267Y-124209431D01*
X156607265Y-124209432D01*
X156420858Y-124339954D01*
X156259954Y-124500858D01*
X156129432Y-124687265D01*
X156129431Y-124687267D01*
X156033261Y-124893502D01*
X156033258Y-124893511D01*
X155974366Y-125113302D01*
X155974364Y-125113313D01*
X155954532Y-125339998D01*
X155954532Y-125340001D01*
X155974364Y-125566686D01*
X155974366Y-125566697D01*
X156033258Y-125786488D01*
X156033261Y-125786497D01*
X156129431Y-125992732D01*
X156129432Y-125992734D01*
X156259954Y-126179141D01*
X156420858Y-126340045D01*
X156420861Y-126340047D01*
X156607266Y-126470568D01*
X156665275Y-126497618D01*
X156717714Y-126543791D01*
X156736866Y-126610984D01*
X156716650Y-126677865D01*
X156665275Y-126722382D01*
X156607267Y-126749431D01*
X156607265Y-126749432D01*
X156453535Y-126857075D01*
X156387329Y-126879402D01*
X156382412Y-126879500D01*
X150984500Y-126879500D01*
X150917461Y-126859815D01*
X150871706Y-126807011D01*
X150860500Y-126755500D01*
X150860500Y-60000005D01*
X177994556Y-60000005D01*
X178014310Y-60314004D01*
X178014311Y-60314011D01*
X178073270Y-60623083D01*
X178170497Y-60922316D01*
X178170499Y-60922321D01*
X178304461Y-61207003D01*
X178304464Y-61207009D01*
X178473051Y-61472661D01*
X178473054Y-61472665D01*
X178673606Y-61715090D01*
X178673608Y-61715092D01*
X178902968Y-61930476D01*
X178902978Y-61930484D01*
X179157504Y-62115408D01*
X179157509Y-62115410D01*
X179157516Y-62115416D01*
X179433234Y-62266994D01*
X179433239Y-62266996D01*
X179433241Y-62266997D01*
X179433242Y-62266998D01*
X179725771Y-62382818D01*
X179725774Y-62382819D01*
X180030523Y-62461065D01*
X180030527Y-62461066D01*
X180096010Y-62469338D01*
X180342670Y-62500499D01*
X180342679Y-62500499D01*
X180342682Y-62500500D01*
X180342684Y-62500500D01*
X180657316Y-62500500D01*
X180657318Y-62500500D01*
X180657321Y-62500499D01*
X180657329Y-62500499D01*
X180843593Y-62476968D01*
X180969473Y-62461066D01*
X181274225Y-62382819D01*
X181274228Y-62382818D01*
X181566757Y-62266998D01*
X181566758Y-62266997D01*
X181566756Y-62266997D01*
X181566766Y-62266994D01*
X181842484Y-62115416D01*
X182097030Y-61930478D01*
X182326390Y-61715094D01*
X182526947Y-61472663D01*
X182695537Y-61207007D01*
X182829503Y-60922315D01*
X182926731Y-60623079D01*
X182985688Y-60314015D01*
X183005444Y-60000000D01*
X182985688Y-59685985D01*
X182926731Y-59376921D01*
X182829503Y-59077685D01*
X182695537Y-58792993D01*
X182526947Y-58527337D01*
X182526945Y-58527334D01*
X182326393Y-58284909D01*
X182326391Y-58284907D01*
X182097031Y-58069523D01*
X182097021Y-58069515D01*
X181842495Y-57884591D01*
X181842488Y-57884586D01*
X181842484Y-57884584D01*
X181566766Y-57733006D01*
X181566763Y-57733004D01*
X181566758Y-57733002D01*
X181566757Y-57733001D01*
X181274228Y-57617181D01*
X181274225Y-57617180D01*
X180969476Y-57538934D01*
X180969463Y-57538932D01*
X180657329Y-57499500D01*
X180657318Y-57499500D01*
X180342682Y-57499500D01*
X180342670Y-57499500D01*
X180030536Y-57538932D01*
X180030523Y-57538934D01*
X179725774Y-57617180D01*
X179725771Y-57617181D01*
X179433242Y-57733001D01*
X179433241Y-57733002D01*
X179157516Y-57884584D01*
X179157504Y-57884591D01*
X178902978Y-58069515D01*
X178902968Y-58069523D01*
X178673608Y-58284907D01*
X178673606Y-58284909D01*
X178473054Y-58527334D01*
X178473051Y-58527338D01*
X178304464Y-58792990D01*
X178304461Y-58792996D01*
X178170499Y-59077678D01*
X178170497Y-59077683D01*
X178073270Y-59376916D01*
X178014311Y-59685988D01*
X178014310Y-59685995D01*
X177994556Y-59999994D01*
X177994556Y-60000005D01*
X150860500Y-60000005D01*
X150860500Y-56718504D01*
X150880185Y-56651465D01*
X150888957Y-56639463D01*
X151026947Y-56472663D01*
X151195537Y-56207007D01*
X151329503Y-55922315D01*
X151426731Y-55623079D01*
X151485688Y-55314015D01*
X151505444Y-55000000D01*
X151485688Y-54685985D01*
X151426731Y-54376921D01*
X151329503Y-54077685D01*
X151195537Y-53792993D01*
X151026947Y-53527337D01*
X151026945Y-53527334D01*
X150826393Y-53284909D01*
X150826391Y-53284907D01*
X150597031Y-53069523D01*
X150597021Y-53069515D01*
X150342495Y-52884591D01*
X150342488Y-52884586D01*
X150342484Y-52884584D01*
X150066766Y-52733006D01*
X150066763Y-52733004D01*
X150066758Y-52733002D01*
X150066757Y-52733001D01*
X149774228Y-52617181D01*
X149774225Y-52617180D01*
X149469476Y-52538934D01*
X149469463Y-52538932D01*
X149157329Y-52499500D01*
X149157318Y-52499500D01*
X148842682Y-52499500D01*
X148842670Y-52499500D01*
X148530536Y-52538932D01*
X148530523Y-52538934D01*
X148225774Y-52617180D01*
X148225771Y-52617181D01*
X147933242Y-52733001D01*
X147933241Y-52733002D01*
X147657516Y-52884584D01*
X147657504Y-52884591D01*
X147402978Y-53069515D01*
X147402968Y-53069523D01*
X147173608Y-53284907D01*
X147173606Y-53284909D01*
X146973054Y-53527334D01*
X146973051Y-53527338D01*
X146804464Y-53792990D01*
X146804461Y-53792996D01*
X146670499Y-54077678D01*
X146670497Y-54077683D01*
X146573270Y-54376916D01*
X146514311Y-54685988D01*
X146514310Y-54685995D01*
X146494556Y-54999994D01*
X146494556Y-55000005D01*
X146514310Y-55314004D01*
X146514311Y-55314011D01*
X146573270Y-55623083D01*
X146670497Y-55922316D01*
X146670499Y-55922321D01*
X146804461Y-56207003D01*
X146804464Y-56207009D01*
X146973051Y-56472661D01*
X146973054Y-56472665D01*
X147173606Y-56715090D01*
X147173608Y-56715092D01*
X147402968Y-56930476D01*
X147402978Y-56930484D01*
X147657504Y-57115408D01*
X147657509Y-57115410D01*
X147657516Y-57115416D01*
X147933234Y-57266994D01*
X147933239Y-57266996D01*
X147933241Y-57266997D01*
X147933242Y-57266998D01*
X148225771Y-57382818D01*
X148225774Y-57382819D01*
X148530523Y-57461065D01*
X148530527Y-57461066D01*
X148751041Y-57488923D01*
X148815085Y-57516854D01*
X148853861Y-57574976D01*
X148859500Y-57611945D01*
X148859500Y-132388054D01*
X148839815Y-132455093D01*
X148787011Y-132500848D01*
X148751041Y-132511076D01*
X148530536Y-132538932D01*
X148530523Y-132538934D01*
X148225774Y-132617180D01*
X148225771Y-132617181D01*
X147933242Y-132733001D01*
X147933241Y-132733002D01*
X147657516Y-132884584D01*
X147657504Y-132884591D01*
X147402978Y-133069515D01*
X147402968Y-133069523D01*
X147173608Y-133284907D01*
X147173606Y-133284909D01*
X146973054Y-133527334D01*
X146973051Y-133527338D01*
X146804464Y-133792990D01*
X146804461Y-133792996D01*
X146670499Y-134077678D01*
X146670497Y-134077683D01*
X146573270Y-134376916D01*
X146514311Y-134685988D01*
X146514310Y-134685995D01*
X146494556Y-134999994D01*
X146494556Y-135000005D01*
X146514310Y-135314004D01*
X146514311Y-135314011D01*
X146514312Y-135314015D01*
X146549790Y-135500000D01*
X146573270Y-135623083D01*
X146670497Y-135922316D01*
X146670499Y-135922321D01*
X146804461Y-136207003D01*
X146804464Y-136207009D01*
X146973051Y-136472661D01*
X146973054Y-136472665D01*
X147173606Y-136715090D01*
X147173608Y-136715092D01*
X147402968Y-136930476D01*
X147402978Y-136930484D01*
X147657504Y-137115408D01*
X147657509Y-137115410D01*
X147657516Y-137115416D01*
X147933234Y-137266994D01*
X147933239Y-137266996D01*
X147933241Y-137266997D01*
X147933242Y-137266998D01*
X148225771Y-137382818D01*
X148225774Y-137382819D01*
X148530523Y-137461065D01*
X148530527Y-137461066D01*
X148596010Y-137469338D01*
X148842670Y-137500499D01*
X148842679Y-137500499D01*
X148842682Y-137500500D01*
X148842684Y-137500500D01*
X149157316Y-137500500D01*
X149157318Y-137500500D01*
X149157321Y-137500499D01*
X149157329Y-137500499D01*
X149343593Y-137476968D01*
X149469473Y-137461066D01*
X149774225Y-137382819D01*
X149774228Y-137382818D01*
X150066757Y-137266998D01*
X150066758Y-137266997D01*
X150066756Y-137266997D01*
X150066766Y-137266994D01*
X150342484Y-137115416D01*
X150597030Y-136930478D01*
X150826390Y-136715094D01*
X151026947Y-136472663D01*
X151195537Y-136207007D01*
X151329503Y-135922315D01*
X151426731Y-135623079D01*
X151485688Y-135314015D01*
X151488249Y-135273308D01*
X151505444Y-135000005D01*
X151505444Y-134999994D01*
X151485689Y-134685995D01*
X151485688Y-134685988D01*
X151485688Y-134685985D01*
X151426731Y-134376921D01*
X151329503Y-134077685D01*
X151195537Y-133792993D01*
X151160414Y-133737648D01*
X151026948Y-133527338D01*
X151026946Y-133527335D01*
X150888956Y-133360533D01*
X150861391Y-133296331D01*
X150860500Y-133281493D01*
X150860500Y-129004500D01*
X150880185Y-128937461D01*
X150932989Y-128891706D01*
X150984500Y-128880500D01*
X156382412Y-128880500D01*
X156449451Y-128900185D01*
X156453523Y-128902917D01*
X156607266Y-129010568D01*
X156665275Y-129037618D01*
X156717714Y-129083791D01*
X156736866Y-129150984D01*
X156716650Y-129217865D01*
X156665275Y-129262382D01*
X156607267Y-129289431D01*
X156607265Y-129289432D01*
X156420858Y-129419954D01*
X156259954Y-129580858D01*
X156129432Y-129767265D01*
X156129431Y-129767267D01*
X156033261Y-129973502D01*
X156033258Y-129973511D01*
X155974366Y-130193302D01*
X155974364Y-130193313D01*
X155954532Y-130419998D01*
X155954532Y-130420001D01*
X155974364Y-130646686D01*
X155974366Y-130646697D01*
X156033258Y-130866488D01*
X156033261Y-130866497D01*
X156129431Y-131072732D01*
X156129432Y-131072734D01*
X156259954Y-131259141D01*
X156420858Y-131420045D01*
X156420861Y-131420047D01*
X156607266Y-131550568D01*
X156665275Y-131577618D01*
X156717714Y-131623791D01*
X156736866Y-131690984D01*
X156716650Y-131757865D01*
X156665275Y-131802382D01*
X156607267Y-131829431D01*
X156607265Y-131829432D01*
X156420858Y-131959954D01*
X156259954Y-132120858D01*
X156129432Y-132307265D01*
X156129431Y-132307267D01*
X156033261Y-132513502D01*
X156033258Y-132513511D01*
X155974366Y-132733302D01*
X155974364Y-132733313D01*
X155954532Y-132959998D01*
X155954532Y-132960001D01*
X155974364Y-133186686D01*
X155974366Y-133186697D01*
X156033258Y-133406488D01*
X156033261Y-133406497D01*
X156129431Y-133612732D01*
X156129432Y-133612734D01*
X156259954Y-133799141D01*
X156420858Y-133960045D01*
X156420861Y-133960047D01*
X156607266Y-134090568D01*
X156665275Y-134117618D01*
X156717714Y-134163791D01*
X156736866Y-134230984D01*
X156716650Y-134297865D01*
X156665275Y-134342382D01*
X156607267Y-134369431D01*
X156607265Y-134369432D01*
X156420858Y-134499954D01*
X156259954Y-134660858D01*
X156129432Y-134847265D01*
X156129431Y-134847267D01*
X156033261Y-135053502D01*
X156033258Y-135053511D01*
X155974366Y-135273302D01*
X155974364Y-135273313D01*
X155954532Y-135499998D01*
X155954532Y-135500001D01*
X155974364Y-135726686D01*
X155974366Y-135726697D01*
X156033258Y-135946488D01*
X156033261Y-135946497D01*
X156129431Y-136152732D01*
X156129432Y-136152734D01*
X156259954Y-136339141D01*
X156420858Y-136500045D01*
X156420861Y-136500047D01*
X156607266Y-136630568D01*
X156813504Y-136726739D01*
X157033308Y-136785635D01*
X157195230Y-136799801D01*
X157259998Y-136805468D01*
X157260000Y-136805468D01*
X157260002Y-136805468D01*
X157316673Y-136800509D01*
X157486692Y-136785635D01*
X157706496Y-136726739D01*
X157912734Y-136630568D01*
X158099139Y-136500047D01*
X158260047Y-136339139D01*
X158390568Y-136152734D01*
X158486739Y-135946496D01*
X158545635Y-135726692D01*
X158565468Y-135500000D01*
X158545635Y-135273308D01*
X158486739Y-135053504D01*
X158390568Y-134847266D01*
X158260047Y-134660861D01*
X158260045Y-134660858D01*
X158099141Y-134499954D01*
X157912734Y-134369432D01*
X157912728Y-134369429D01*
X157854725Y-134342382D01*
X157802285Y-134296210D01*
X157783133Y-134229017D01*
X157803348Y-134162135D01*
X157854725Y-134117618D01*
X157912734Y-134090568D01*
X158099139Y-133960047D01*
X158260047Y-133799139D01*
X158390568Y-133612734D01*
X158486739Y-133406496D01*
X158545635Y-133186692D01*
X158565468Y-132960000D01*
X158545635Y-132733308D01*
X158486739Y-132513504D01*
X158390568Y-132307266D01*
X158260047Y-132120861D01*
X158260045Y-132120858D01*
X158099141Y-131959954D01*
X157912734Y-131829432D01*
X157912728Y-131829429D01*
X157854725Y-131802382D01*
X157802285Y-131756210D01*
X157783133Y-131689017D01*
X157803348Y-131622135D01*
X157854725Y-131577618D01*
X157912734Y-131550568D01*
X158099139Y-131420047D01*
X158260047Y-131259139D01*
X158390568Y-131072734D01*
X158486739Y-130866496D01*
X158545635Y-130646692D01*
X158565468Y-130420000D01*
X158545635Y-130193308D01*
X158486739Y-129973504D01*
X158390568Y-129767266D01*
X158260047Y-129580861D01*
X158260045Y-129580858D01*
X158099141Y-129419954D01*
X157912734Y-129289432D01*
X157912728Y-129289429D01*
X157854725Y-129262382D01*
X157802285Y-129216210D01*
X157783133Y-129149017D01*
X157803348Y-129082135D01*
X157854725Y-129037618D01*
X157912734Y-129010568D01*
X158099139Y-128880047D01*
X158260047Y-128719139D01*
X158390568Y-128532734D01*
X158486739Y-128326496D01*
X158545635Y-128106692D01*
X158565468Y-127880000D01*
X158545635Y-127653308D01*
X158486739Y-127433504D01*
X158390568Y-127227266D01*
X158260047Y-127040861D01*
X158260045Y-127040858D01*
X158099141Y-126879954D01*
X157912734Y-126749432D01*
X157912728Y-126749429D01*
X157854725Y-126722382D01*
X157802285Y-126676210D01*
X157783133Y-126609017D01*
X157803348Y-126542135D01*
X157854725Y-126497618D01*
X157912734Y-126470568D01*
X158066465Y-126362924D01*
X158132671Y-126340598D01*
X158137588Y-126340500D01*
X158426218Y-126340500D01*
X158493257Y-126360185D01*
X158513899Y-126376819D01*
X161039181Y-128902101D01*
X161072666Y-128963424D01*
X161075500Y-128989782D01*
X161075500Y-135654217D01*
X161055815Y-135721256D01*
X161039181Y-135741898D01*
X158371899Y-138409181D01*
X158310576Y-138442666D01*
X158284218Y-138445500D01*
X135911783Y-138445500D01*
X135844744Y-138425815D01*
X135824102Y-138409181D01*
X133385130Y-135970209D01*
X133351645Y-135908886D01*
X133354880Y-135844211D01*
X133426731Y-135623079D01*
X133485688Y-135314015D01*
X133488249Y-135273308D01*
X133505444Y-135000005D01*
X133505444Y-134999994D01*
X133485689Y-134685995D01*
X133485688Y-134685988D01*
X133485688Y-134685985D01*
X133426731Y-134376921D01*
X133329503Y-134077685D01*
X133195537Y-133792993D01*
X133160414Y-133737648D01*
X133026948Y-133527338D01*
X133026946Y-133527335D01*
X132854956Y-133319434D01*
X132827391Y-133255232D01*
X132826500Y-133240394D01*
X132826500Y-130000005D01*
X141495057Y-130000005D01*
X141514807Y-130313942D01*
X141514808Y-130313949D01*
X141573755Y-130622958D01*
X141670963Y-130922132D01*
X141670965Y-130922137D01*
X141804900Y-131206761D01*
X141804903Y-131206767D01*
X141973457Y-131472367D01*
X141973460Y-131472371D01*
X142064286Y-131582160D01*
X143137426Y-130509020D01*
X143223249Y-130637463D01*
X143362537Y-130776751D01*
X143490978Y-130862573D01*
X142414971Y-131938579D01*
X142414972Y-131938581D01*
X142657772Y-132114985D01*
X142657790Y-132114996D01*
X142933447Y-132266540D01*
X142933455Y-132266544D01*
X143225926Y-132382340D01*
X143530620Y-132460573D01*
X143530629Y-132460575D01*
X143842701Y-132499999D01*
X143842715Y-132500000D01*
X144157285Y-132500000D01*
X144157298Y-132499999D01*
X144469370Y-132460575D01*
X144469379Y-132460573D01*
X144774073Y-132382340D01*
X145066544Y-132266544D01*
X145066552Y-132266540D01*
X145342209Y-132114996D01*
X145342219Y-132114990D01*
X145585026Y-131938579D01*
X145585027Y-131938579D01*
X144509020Y-130862573D01*
X144637463Y-130776751D01*
X144776751Y-130637463D01*
X144862573Y-130509020D01*
X145935712Y-131582160D01*
X146026544Y-131472364D01*
X146195096Y-131206767D01*
X146195099Y-131206761D01*
X146329034Y-130922137D01*
X146329036Y-130922132D01*
X146426244Y-130622958D01*
X146485191Y-130313949D01*
X146485192Y-130313942D01*
X146504943Y-130000005D01*
X146504943Y-129999994D01*
X146485192Y-129686057D01*
X146485191Y-129686050D01*
X146426244Y-129377041D01*
X146329036Y-129077867D01*
X146329034Y-129077862D01*
X146195099Y-128793238D01*
X146195096Y-128793232D01*
X146026542Y-128527632D01*
X146026539Y-128527628D01*
X145935712Y-128417838D01*
X144862573Y-129490978D01*
X144776751Y-129362537D01*
X144637463Y-129223249D01*
X144509020Y-129137426D01*
X145585027Y-128061419D01*
X145585026Y-128061417D01*
X145342227Y-127885014D01*
X145342209Y-127885003D01*
X145066552Y-127733459D01*
X145066544Y-127733455D01*
X144774073Y-127617659D01*
X144469379Y-127539426D01*
X144469370Y-127539424D01*
X144157298Y-127500000D01*
X143842701Y-127500000D01*
X143530629Y-127539424D01*
X143530620Y-127539426D01*
X143225926Y-127617659D01*
X142933455Y-127733455D01*
X142933447Y-127733459D01*
X142657787Y-127885004D01*
X142657782Y-127885007D01*
X142414972Y-128061418D01*
X142414971Y-128061419D01*
X143490979Y-129137426D01*
X143362537Y-129223249D01*
X143223249Y-129362537D01*
X143137426Y-129490978D01*
X142064286Y-128417838D01*
X142064285Y-128417838D01*
X141973459Y-128527629D01*
X141973457Y-128527632D01*
X141804903Y-128793232D01*
X141804900Y-128793238D01*
X141670965Y-129077862D01*
X141670963Y-129077867D01*
X141573755Y-129377041D01*
X141514808Y-129686050D01*
X141514807Y-129686057D01*
X141495057Y-129999994D01*
X141495057Y-130000005D01*
X132826500Y-130000005D01*
X132826500Y-124812543D01*
X144335499Y-124812543D01*
X144373947Y-125005829D01*
X144373950Y-125005839D01*
X144449364Y-125187907D01*
X144449371Y-125187920D01*
X144558860Y-125351781D01*
X144558863Y-125351785D01*
X144698214Y-125491136D01*
X144698218Y-125491139D01*
X144862079Y-125600628D01*
X144862092Y-125600635D01*
X145044160Y-125676049D01*
X145044165Y-125676051D01*
X145044169Y-125676051D01*
X145044170Y-125676052D01*
X145237456Y-125714500D01*
X145237459Y-125714500D01*
X147672543Y-125714500D01*
X147802582Y-125688632D01*
X147865835Y-125676051D01*
X148047914Y-125600632D01*
X148211782Y-125491139D01*
X148351139Y-125351782D01*
X148460632Y-125187914D01*
X148536051Y-125005835D01*
X148574500Y-124812541D01*
X148574500Y-65179459D01*
X148574500Y-65179456D01*
X148536052Y-64986170D01*
X148536051Y-64986169D01*
X148536051Y-64986165D01*
X148536049Y-64986160D01*
X148460635Y-64804092D01*
X148460628Y-64804079D01*
X148351139Y-64640218D01*
X148351136Y-64640214D01*
X148211785Y-64500863D01*
X148211781Y-64500860D01*
X148047920Y-64391371D01*
X148047907Y-64391364D01*
X147865839Y-64315950D01*
X147865829Y-64315947D01*
X147672543Y-64277500D01*
X147672541Y-64277500D01*
X145434541Y-64277500D01*
X145237459Y-64277500D01*
X145237457Y-64277500D01*
X145044170Y-64315947D01*
X145044160Y-64315950D01*
X144862092Y-64391364D01*
X144862079Y-64391371D01*
X144698218Y-64500860D01*
X144698214Y-64500863D01*
X144558863Y-64640214D01*
X144558860Y-64640218D01*
X144449371Y-64804079D01*
X144449364Y-64804092D01*
X144373950Y-64986160D01*
X144373947Y-64986170D01*
X144335500Y-65179456D01*
X144335500Y-65179459D01*
X144335500Y-124812541D01*
X144335500Y-124812543D01*
X144335499Y-124812543D01*
X132826500Y-124812543D01*
X132826500Y-60000005D01*
X141494556Y-60000005D01*
X141514310Y-60314004D01*
X141514311Y-60314011D01*
X141573270Y-60623083D01*
X141670497Y-60922316D01*
X141670499Y-60922321D01*
X141804461Y-61207003D01*
X141804464Y-61207009D01*
X141973051Y-61472661D01*
X141973054Y-61472665D01*
X142173606Y-61715090D01*
X142173608Y-61715092D01*
X142402968Y-61930476D01*
X142402978Y-61930484D01*
X142657504Y-62115408D01*
X142657509Y-62115410D01*
X142657516Y-62115416D01*
X142933234Y-62266994D01*
X142933239Y-62266996D01*
X142933241Y-62266997D01*
X142933242Y-62266998D01*
X143225771Y-62382818D01*
X143225774Y-62382819D01*
X143530523Y-62461065D01*
X143530527Y-62461066D01*
X143596010Y-62469338D01*
X143842670Y-62500499D01*
X143842679Y-62500499D01*
X143842682Y-62500500D01*
X143842684Y-62500500D01*
X144157316Y-62500500D01*
X144157318Y-62500500D01*
X144157321Y-62500499D01*
X144157329Y-62500499D01*
X144343593Y-62476968D01*
X144469473Y-62461066D01*
X144774225Y-62382819D01*
X144774228Y-62382818D01*
X145066757Y-62266998D01*
X145066758Y-62266997D01*
X145066756Y-62266997D01*
X145066766Y-62266994D01*
X145342484Y-62115416D01*
X145597030Y-61930478D01*
X145826390Y-61715094D01*
X146026947Y-61472663D01*
X146195537Y-61207007D01*
X146329503Y-60922315D01*
X146426731Y-60623079D01*
X146485688Y-60314015D01*
X146505444Y-60000000D01*
X146485688Y-59685985D01*
X146426731Y-59376921D01*
X146329503Y-59077685D01*
X146195537Y-58792993D01*
X146026947Y-58527337D01*
X146026945Y-58527334D01*
X145826393Y-58284909D01*
X145826391Y-58284907D01*
X145597031Y-58069523D01*
X145597021Y-58069515D01*
X145342495Y-57884591D01*
X145342488Y-57884586D01*
X145342484Y-57884584D01*
X145066766Y-57733006D01*
X145066763Y-57733004D01*
X145066758Y-57733002D01*
X145066757Y-57733001D01*
X144774228Y-57617181D01*
X144774225Y-57617180D01*
X144469476Y-57538934D01*
X144469463Y-57538932D01*
X144157329Y-57499500D01*
X144157318Y-57499500D01*
X143842682Y-57499500D01*
X143842670Y-57499500D01*
X143530536Y-57538932D01*
X143530523Y-57538934D01*
X143225774Y-57617180D01*
X143225771Y-57617181D01*
X142933242Y-57733001D01*
X142933241Y-57733002D01*
X142657516Y-57884584D01*
X142657504Y-57884591D01*
X142402978Y-58069515D01*
X142402968Y-58069523D01*
X142173608Y-58284907D01*
X142173606Y-58284909D01*
X141973054Y-58527334D01*
X141973051Y-58527338D01*
X141804464Y-58792990D01*
X141804461Y-58792996D01*
X141670499Y-59077678D01*
X141670497Y-59077683D01*
X141573270Y-59376916D01*
X141514311Y-59685988D01*
X141514310Y-59685995D01*
X141494556Y-59999994D01*
X141494556Y-60000005D01*
X132826500Y-60000005D01*
X132826500Y-56759604D01*
X132846185Y-56692565D01*
X132854957Y-56680563D01*
X132989029Y-56518498D01*
X133026947Y-56472663D01*
X133195537Y-56207007D01*
X133329503Y-55922315D01*
X133426731Y-55623079D01*
X133485688Y-55314015D01*
X133505444Y-55000000D01*
X133485688Y-54685985D01*
X133426731Y-54376921D01*
X133329503Y-54077685D01*
X133195537Y-53792993D01*
X133026947Y-53527337D01*
X133026945Y-53527334D01*
X132826393Y-53284909D01*
X132826391Y-53284907D01*
X132597031Y-53069523D01*
X132597021Y-53069515D01*
X132342495Y-52884591D01*
X132342488Y-52884586D01*
X132342484Y-52884584D01*
X132066766Y-52733006D01*
X132066763Y-52733004D01*
X132066758Y-52733002D01*
X132066757Y-52733001D01*
X131774228Y-52617181D01*
X131774225Y-52617180D01*
X131469476Y-52538934D01*
X131469463Y-52538932D01*
X131157329Y-52499500D01*
X131157318Y-52499500D01*
X130842682Y-52499500D01*
X130842670Y-52499500D01*
X130530536Y-52538932D01*
X130530523Y-52538934D01*
X130225774Y-52617180D01*
X130225771Y-52617181D01*
X129933242Y-52733001D01*
X129933241Y-52733002D01*
X129657516Y-52884584D01*
X129657504Y-52884591D01*
X129402978Y-53069515D01*
X129402968Y-53069523D01*
X129173608Y-53284907D01*
X129173606Y-53284909D01*
X128973054Y-53527334D01*
X128973051Y-53527338D01*
X128804464Y-53792990D01*
X128804461Y-53792996D01*
X128670499Y-54077678D01*
X128670497Y-54077683D01*
X128573270Y-54376916D01*
X128514311Y-54685988D01*
X128514310Y-54685995D01*
X128494556Y-54999994D01*
X128494556Y-55000005D01*
X128514310Y-55314004D01*
X128514311Y-55314011D01*
X128573270Y-55623083D01*
X128670497Y-55922316D01*
X128670499Y-55922321D01*
X128804461Y-56207003D01*
X128804464Y-56207009D01*
X128973051Y-56472661D01*
X128973054Y-56472665D01*
X129173606Y-56715090D01*
X129173608Y-56715092D01*
X129402968Y-56930476D01*
X129402978Y-56930484D01*
X129657504Y-57115408D01*
X129657509Y-57115410D01*
X129657516Y-57115416D01*
X129933234Y-57266994D01*
X129933239Y-57266996D01*
X129933241Y-57266997D01*
X129933242Y-57266998D01*
X130225771Y-57382818D01*
X130225774Y-57382819D01*
X130530523Y-57461065D01*
X130530527Y-57461066D01*
X130717041Y-57484627D01*
X130781084Y-57512558D01*
X130819861Y-57570680D01*
X130825500Y-57607649D01*
X130825500Y-64837043D01*
X130805815Y-64904082D01*
X130753011Y-64949837D01*
X130683853Y-64959781D01*
X130620297Y-64930756D01*
X130586939Y-64884496D01*
X130553633Y-64804088D01*
X130553628Y-64804079D01*
X130444139Y-64640218D01*
X130444136Y-64640214D01*
X130304785Y-64500863D01*
X130304781Y-64500860D01*
X130140920Y-64391371D01*
X130140907Y-64391364D01*
X129958839Y-64315950D01*
X129958829Y-64315947D01*
X129765543Y-64277500D01*
X129765541Y-64277500D01*
X127527541Y-64277500D01*
X127330459Y-64277500D01*
X127330457Y-64277500D01*
X127137170Y-64315947D01*
X127137160Y-64315950D01*
X126955092Y-64391364D01*
X126955079Y-64391371D01*
X126791218Y-64500860D01*
X126791214Y-64500863D01*
X126651863Y-64640214D01*
X126651860Y-64640218D01*
X126542371Y-64804079D01*
X126542364Y-64804092D01*
X126466950Y-64986160D01*
X126466947Y-64986170D01*
X126428500Y-65179456D01*
X126428500Y-65179459D01*
X126428500Y-124812541D01*
X126428500Y-124812543D01*
X126428499Y-124812543D01*
X126466947Y-125005829D01*
X126466950Y-125005839D01*
X126542364Y-125187907D01*
X126542371Y-125187920D01*
X126651860Y-125351781D01*
X126651863Y-125351785D01*
X126791214Y-125491136D01*
X126791218Y-125491139D01*
X126955079Y-125600628D01*
X126955092Y-125600635D01*
X127137160Y-125676049D01*
X127137165Y-125676051D01*
X127137169Y-125676051D01*
X127137170Y-125676052D01*
X127330456Y-125714500D01*
X127330459Y-125714500D01*
X129765543Y-125714500D01*
X129895582Y-125688632D01*
X129958835Y-125676051D01*
X130140914Y-125600632D01*
X130304782Y-125491139D01*
X130444139Y-125351782D01*
X130553632Y-125187914D01*
X130586939Y-125107504D01*
X130630779Y-125053100D01*
X130697074Y-125031035D01*
X130764773Y-125048314D01*
X130812384Y-125099451D01*
X130825500Y-125154956D01*
X130825500Y-132392349D01*
X130805815Y-132459388D01*
X130753011Y-132505143D01*
X130717042Y-132515371D01*
X130530529Y-132538933D01*
X130225774Y-132617180D01*
X130225771Y-132617181D01*
X129933242Y-132733001D01*
X129933241Y-132733002D01*
X129657516Y-132884584D01*
X129657504Y-132884591D01*
X129402978Y-133069515D01*
X129402968Y-133069523D01*
X129173608Y-133284907D01*
X129173606Y-133284909D01*
X128973054Y-133527334D01*
X128973051Y-133527338D01*
X128804464Y-133792990D01*
X128804461Y-133792996D01*
X128670499Y-134077678D01*
X128670497Y-134077683D01*
X128573270Y-134376916D01*
X128514311Y-134685988D01*
X128514310Y-134685995D01*
X128494556Y-134999994D01*
X128494556Y-135000005D01*
X128514310Y-135314004D01*
X128514311Y-135314011D01*
X128514312Y-135314015D01*
X128549790Y-135500000D01*
X128573270Y-135623083D01*
X128670497Y-135922316D01*
X128670499Y-135922321D01*
X128804461Y-136207003D01*
X128804464Y-136207009D01*
X128973051Y-136472661D01*
X128973054Y-136472665D01*
X129173606Y-136715090D01*
X129173608Y-136715092D01*
X129402968Y-136930476D01*
X129402978Y-136930484D01*
X129657504Y-137115408D01*
X129657509Y-137115410D01*
X129657516Y-137115416D01*
X129933234Y-137266994D01*
X129933239Y-137266996D01*
X129933241Y-137266997D01*
X129933242Y-137266998D01*
X130225771Y-137382818D01*
X130225774Y-137382819D01*
X130530523Y-137461065D01*
X130530527Y-137461066D01*
X130596010Y-137469338D01*
X130842670Y-137500499D01*
X130842679Y-137500499D01*
X130842682Y-137500500D01*
X130842684Y-137500500D01*
X131157316Y-137500500D01*
X131157318Y-137500500D01*
X131157321Y-137500499D01*
X131157329Y-137500499D01*
X131343593Y-137476968D01*
X131469473Y-137461066D01*
X131774225Y-137382819D01*
X131837233Y-137357871D01*
X131906810Y-137351495D01*
X131968791Y-137383746D01*
X131970562Y-137385483D01*
X134318898Y-139733819D01*
X134352383Y-139795142D01*
X134347399Y-139864834D01*
X134305527Y-139920767D01*
X134240063Y-139945184D01*
X134231217Y-139945500D01*
X119411782Y-139945500D01*
X119344743Y-139925815D01*
X119324101Y-139909181D01*
X115385130Y-135970210D01*
X115351645Y-135908887D01*
X115354880Y-135844211D01*
X115426731Y-135623079D01*
X115485688Y-135314015D01*
X115488249Y-135273308D01*
X115505444Y-135000005D01*
X115505444Y-134999994D01*
X115485689Y-134685995D01*
X115485688Y-134685988D01*
X115485688Y-134685985D01*
X115426731Y-134376921D01*
X115329503Y-134077685D01*
X115195537Y-133792993D01*
X115056507Y-133573917D01*
X115037207Y-133506769D01*
X115039586Y-133483294D01*
X115046500Y-133448541D01*
X115046500Y-133251460D01*
X115046500Y-130000005D01*
X123495057Y-130000005D01*
X123514807Y-130313942D01*
X123514808Y-130313949D01*
X123573755Y-130622958D01*
X123670963Y-130922132D01*
X123670965Y-130922137D01*
X123804900Y-131206761D01*
X123804903Y-131206767D01*
X123973457Y-131472367D01*
X123973460Y-131472371D01*
X124064286Y-131582160D01*
X125137426Y-130509020D01*
X125223249Y-130637463D01*
X125362537Y-130776751D01*
X125490978Y-130862573D01*
X124414971Y-131938579D01*
X124414972Y-131938581D01*
X124657772Y-132114985D01*
X124657790Y-132114996D01*
X124933447Y-132266540D01*
X124933455Y-132266544D01*
X125225926Y-132382340D01*
X125530620Y-132460573D01*
X125530629Y-132460575D01*
X125842701Y-132499999D01*
X125842715Y-132500000D01*
X126157285Y-132500000D01*
X126157298Y-132499999D01*
X126469370Y-132460575D01*
X126469379Y-132460573D01*
X126774073Y-132382340D01*
X127066544Y-132266544D01*
X127066552Y-132266540D01*
X127342209Y-132114996D01*
X127342219Y-132114990D01*
X127585026Y-131938579D01*
X127585027Y-131938579D01*
X126509020Y-130862573D01*
X126637463Y-130776751D01*
X126776751Y-130637463D01*
X126862573Y-130509020D01*
X127935712Y-131582160D01*
X128026544Y-131472364D01*
X128195096Y-131206767D01*
X128195099Y-131206761D01*
X128329034Y-130922137D01*
X128329036Y-130922132D01*
X128426244Y-130622958D01*
X128485191Y-130313949D01*
X128485192Y-130313942D01*
X128504943Y-130000005D01*
X128504943Y-129999994D01*
X128485192Y-129686057D01*
X128485191Y-129686050D01*
X128426244Y-129377041D01*
X128329036Y-129077867D01*
X128329034Y-129077862D01*
X128195099Y-128793238D01*
X128195096Y-128793232D01*
X128026542Y-128527632D01*
X128026539Y-128527628D01*
X127935712Y-128417838D01*
X126862573Y-129490978D01*
X126776751Y-129362537D01*
X126637463Y-129223249D01*
X126509020Y-129137426D01*
X127585027Y-128061419D01*
X127585026Y-128061417D01*
X127342227Y-127885014D01*
X127342209Y-127885003D01*
X127066552Y-127733459D01*
X127066544Y-127733455D01*
X126774073Y-127617659D01*
X126469379Y-127539426D01*
X126469370Y-127539424D01*
X126157298Y-127500000D01*
X125842701Y-127500000D01*
X125530629Y-127539424D01*
X125530620Y-127539426D01*
X125225926Y-127617659D01*
X124933455Y-127733455D01*
X124933447Y-127733459D01*
X124657787Y-127885004D01*
X124657782Y-127885007D01*
X124414972Y-128061418D01*
X124414971Y-128061419D01*
X125490979Y-129137426D01*
X125362537Y-129223249D01*
X125223249Y-129362537D01*
X125137426Y-129490978D01*
X124064286Y-128417838D01*
X124064285Y-128417838D01*
X123973459Y-128527629D01*
X123973457Y-128527632D01*
X123804903Y-128793232D01*
X123804900Y-128793238D01*
X123670965Y-129077862D01*
X123670963Y-129077867D01*
X123573755Y-129377041D01*
X123514808Y-129686050D01*
X123514807Y-129686057D01*
X123495057Y-129999994D01*
X123495057Y-130000005D01*
X115046500Y-130000005D01*
X115046500Y-60000005D01*
X123494556Y-60000005D01*
X123514310Y-60314004D01*
X123514311Y-60314011D01*
X123573270Y-60623083D01*
X123670497Y-60922316D01*
X123670499Y-60922321D01*
X123804461Y-61207003D01*
X123804464Y-61207009D01*
X123973051Y-61472661D01*
X123973054Y-61472665D01*
X124173606Y-61715090D01*
X124173608Y-61715092D01*
X124402968Y-61930476D01*
X124402978Y-61930484D01*
X124657504Y-62115408D01*
X124657509Y-62115410D01*
X124657516Y-62115416D01*
X124933234Y-62266994D01*
X124933239Y-62266996D01*
X124933241Y-62266997D01*
X124933242Y-62266998D01*
X125225771Y-62382818D01*
X125225774Y-62382819D01*
X125530523Y-62461065D01*
X125530527Y-62461066D01*
X125596010Y-62469338D01*
X125842670Y-62500499D01*
X125842679Y-62500499D01*
X125842682Y-62500500D01*
X125842684Y-62500500D01*
X126157316Y-62500500D01*
X126157318Y-62500500D01*
X126157321Y-62500499D01*
X126157329Y-62500499D01*
X126343593Y-62476968D01*
X126469473Y-62461066D01*
X126774225Y-62382819D01*
X126774228Y-62382818D01*
X127066757Y-62266998D01*
X127066758Y-62266997D01*
X127066756Y-62266997D01*
X127066766Y-62266994D01*
X127342484Y-62115416D01*
X127597030Y-61930478D01*
X127826390Y-61715094D01*
X128026947Y-61472663D01*
X128195537Y-61207007D01*
X128329503Y-60922315D01*
X128426731Y-60623079D01*
X128485688Y-60314015D01*
X128505444Y-60000000D01*
X128485688Y-59685985D01*
X128426731Y-59376921D01*
X128329503Y-59077685D01*
X128195537Y-58792993D01*
X128026947Y-58527337D01*
X128026945Y-58527334D01*
X127826393Y-58284909D01*
X127826391Y-58284907D01*
X127597031Y-58069523D01*
X127597021Y-58069515D01*
X127342495Y-57884591D01*
X127342488Y-57884586D01*
X127342484Y-57884584D01*
X127066766Y-57733006D01*
X127066763Y-57733004D01*
X127066758Y-57733002D01*
X127066757Y-57733001D01*
X126774228Y-57617181D01*
X126774225Y-57617180D01*
X126469476Y-57538934D01*
X126469463Y-57538932D01*
X126157329Y-57499500D01*
X126157318Y-57499500D01*
X125842682Y-57499500D01*
X125842670Y-57499500D01*
X125530536Y-57538932D01*
X125530523Y-57538934D01*
X125225774Y-57617180D01*
X125225771Y-57617181D01*
X124933242Y-57733001D01*
X124933241Y-57733002D01*
X124657516Y-57884584D01*
X124657504Y-57884591D01*
X124402978Y-58069515D01*
X124402968Y-58069523D01*
X124173608Y-58284907D01*
X124173606Y-58284909D01*
X123973054Y-58527334D01*
X123973051Y-58527338D01*
X123804464Y-58792990D01*
X123804461Y-58792996D01*
X123670499Y-59077678D01*
X123670497Y-59077683D01*
X123573270Y-59376916D01*
X123514311Y-59685988D01*
X123514310Y-59685995D01*
X123494556Y-59999994D01*
X123494556Y-60000005D01*
X115046500Y-60000005D01*
X115046500Y-56477877D01*
X115065802Y-56411436D01*
X115195537Y-56207007D01*
X115329503Y-55922315D01*
X115426731Y-55623079D01*
X115485688Y-55314015D01*
X115505444Y-55000000D01*
X115485688Y-54685985D01*
X115426731Y-54376921D01*
X115329503Y-54077685D01*
X115195537Y-53792993D01*
X115026947Y-53527337D01*
X115026945Y-53527334D01*
X114826393Y-53284909D01*
X114826391Y-53284907D01*
X114597031Y-53069523D01*
X114597021Y-53069515D01*
X114342495Y-52884591D01*
X114342488Y-52884586D01*
X114342484Y-52884584D01*
X114066766Y-52733006D01*
X114066763Y-52733004D01*
X114066758Y-52733002D01*
X114066757Y-52733001D01*
X113774228Y-52617181D01*
X113774225Y-52617180D01*
X113469476Y-52538934D01*
X113469463Y-52538932D01*
X113157329Y-52499500D01*
X113157318Y-52499500D01*
X112842682Y-52499500D01*
X112842670Y-52499500D01*
X112530536Y-52538932D01*
X112530523Y-52538934D01*
X112225774Y-52617180D01*
X112225771Y-52617181D01*
X111933242Y-52733001D01*
X111933241Y-52733002D01*
X111657516Y-52884584D01*
X111657504Y-52884591D01*
X111402978Y-53069515D01*
X111402968Y-53069523D01*
X111173608Y-53284907D01*
X111173606Y-53284909D01*
X110973054Y-53527334D01*
X110973051Y-53527338D01*
X110804464Y-53792990D01*
X110804461Y-53792996D01*
X110670499Y-54077678D01*
X110670497Y-54077683D01*
X110573270Y-54376916D01*
X110514311Y-54685988D01*
X110514310Y-54685995D01*
X110494556Y-54999994D01*
X110494556Y-55000005D01*
X110514310Y-55314004D01*
X110514311Y-55314011D01*
X110573270Y-55623083D01*
X110670497Y-55922316D01*
X110670499Y-55922321D01*
X110804461Y-56207003D01*
X110804464Y-56207009D01*
X110973051Y-56472661D01*
X110973054Y-56472665D01*
X111173606Y-56715090D01*
X111173608Y-56715092D01*
X111402968Y-56930476D01*
X111402978Y-56930484D01*
X111657504Y-57115408D01*
X111657509Y-57115410D01*
X111657516Y-57115416D01*
X111933234Y-57266994D01*
X111933239Y-57266996D01*
X111933241Y-57266997D01*
X111933242Y-57266998D01*
X112225771Y-57382818D01*
X112225774Y-57382819D01*
X112530523Y-57461065D01*
X112530527Y-57461066D01*
X112596010Y-57469338D01*
X112842670Y-57500499D01*
X112842679Y-57500499D01*
X112842682Y-57500500D01*
X112921500Y-57500500D01*
X112988539Y-57520185D01*
X113034294Y-57572989D01*
X113045500Y-57624500D01*
X113045500Y-132375500D01*
X113025815Y-132442539D01*
X112973011Y-132488294D01*
X112921500Y-132499500D01*
X112842670Y-132499500D01*
X112530536Y-132538932D01*
X112530523Y-132538934D01*
X112225774Y-132617180D01*
X112225771Y-132617181D01*
X111933242Y-132733001D01*
X111933241Y-132733002D01*
X111657516Y-132884584D01*
X111657504Y-132884591D01*
X111402978Y-133069515D01*
X111402968Y-133069523D01*
X111173608Y-133284907D01*
X111173606Y-133284909D01*
X110973054Y-133527334D01*
X110973051Y-133527338D01*
X110804464Y-133792990D01*
X110804461Y-133792996D01*
X110670499Y-134077678D01*
X110670497Y-134077683D01*
X110573270Y-134376916D01*
X110514311Y-134685988D01*
X110514310Y-134685995D01*
X110494556Y-134999994D01*
X110494556Y-135000005D01*
X110514310Y-135314004D01*
X110514311Y-135314011D01*
X110514312Y-135314015D01*
X110549790Y-135500000D01*
X110573270Y-135623083D01*
X110670497Y-135922316D01*
X110670499Y-135922321D01*
X110804461Y-136207003D01*
X110804464Y-136207009D01*
X110973051Y-136472661D01*
X110973054Y-136472665D01*
X111173606Y-136715090D01*
X111173608Y-136715092D01*
X111402968Y-136930476D01*
X111402978Y-136930484D01*
X111657504Y-137115408D01*
X111657509Y-137115410D01*
X111657516Y-137115416D01*
X111933234Y-137266994D01*
X111933239Y-137266996D01*
X111933241Y-137266997D01*
X111933242Y-137266998D01*
X112225771Y-137382818D01*
X112225774Y-137382819D01*
X112530523Y-137461065D01*
X112530527Y-137461066D01*
X112596010Y-137469338D01*
X112842670Y-137500499D01*
X112842679Y-137500499D01*
X112842682Y-137500500D01*
X112842684Y-137500500D01*
X113157316Y-137500500D01*
X113157318Y-137500500D01*
X113157321Y-137500499D01*
X113157329Y-137500499D01*
X113343593Y-137476968D01*
X113469473Y-137461066D01*
X113774225Y-137382819D01*
X113837234Y-137357871D01*
X113906809Y-137351494D01*
X113968790Y-137383745D01*
X113970562Y-137385482D01*
X117818899Y-141233819D01*
X117852384Y-141295142D01*
X117847400Y-141364834D01*
X117805528Y-141420767D01*
X117740064Y-141445184D01*
X117731218Y-141445500D01*
X102911782Y-141445500D01*
X102844743Y-141425815D01*
X102824101Y-141409181D01*
X97385130Y-135970210D01*
X97351645Y-135908887D01*
X97354880Y-135844211D01*
X97426731Y-135623079D01*
X97485688Y-135314015D01*
X97488249Y-135273308D01*
X97505444Y-135000005D01*
X97505444Y-134999994D01*
X97485689Y-134685995D01*
X97485688Y-134685988D01*
X97485688Y-134685985D01*
X97426731Y-134376921D01*
X97329503Y-134077685D01*
X97195537Y-133792993D01*
X97031802Y-133534988D01*
X97012500Y-133468547D01*
X97012500Y-130000005D01*
X105495057Y-130000005D01*
X105514807Y-130313942D01*
X105514808Y-130313949D01*
X105573755Y-130622958D01*
X105670963Y-130922132D01*
X105670965Y-130922137D01*
X105804900Y-131206761D01*
X105804903Y-131206767D01*
X105973457Y-131472367D01*
X105973460Y-131472371D01*
X106064286Y-131582160D01*
X107137426Y-130509020D01*
X107223249Y-130637463D01*
X107362537Y-130776751D01*
X107490978Y-130862573D01*
X106414971Y-131938579D01*
X106414972Y-131938581D01*
X106657772Y-132114985D01*
X106657790Y-132114996D01*
X106933447Y-132266540D01*
X106933455Y-132266544D01*
X107225926Y-132382340D01*
X107530620Y-132460573D01*
X107530629Y-132460575D01*
X107842701Y-132499999D01*
X107842715Y-132500000D01*
X108157285Y-132500000D01*
X108157298Y-132499999D01*
X108469370Y-132460575D01*
X108469379Y-132460573D01*
X108774073Y-132382340D01*
X109066544Y-132266544D01*
X109066552Y-132266540D01*
X109342209Y-132114996D01*
X109342219Y-132114990D01*
X109585026Y-131938579D01*
X109585027Y-131938579D01*
X108509020Y-130862573D01*
X108637463Y-130776751D01*
X108776751Y-130637463D01*
X108862573Y-130509020D01*
X109935712Y-131582160D01*
X110026544Y-131472364D01*
X110195096Y-131206767D01*
X110195099Y-131206761D01*
X110329034Y-130922137D01*
X110329036Y-130922132D01*
X110426244Y-130622958D01*
X110485191Y-130313949D01*
X110485192Y-130313942D01*
X110504943Y-130000005D01*
X110504943Y-129999994D01*
X110485192Y-129686057D01*
X110485191Y-129686050D01*
X110426244Y-129377041D01*
X110329036Y-129077867D01*
X110329034Y-129077862D01*
X110195099Y-128793238D01*
X110195096Y-128793232D01*
X110026542Y-128527632D01*
X110026539Y-128527628D01*
X109935712Y-128417838D01*
X108862573Y-129490978D01*
X108776751Y-129362537D01*
X108637463Y-129223249D01*
X108509020Y-129137426D01*
X109585027Y-128061419D01*
X109585026Y-128061417D01*
X109342227Y-127885014D01*
X109342209Y-127885003D01*
X109066552Y-127733459D01*
X109066544Y-127733455D01*
X108774073Y-127617659D01*
X108469379Y-127539426D01*
X108469370Y-127539424D01*
X108157298Y-127500000D01*
X107842701Y-127500000D01*
X107530629Y-127539424D01*
X107530620Y-127539426D01*
X107225926Y-127617659D01*
X106933455Y-127733455D01*
X106933447Y-127733459D01*
X106657787Y-127885004D01*
X106657782Y-127885007D01*
X106414972Y-128061418D01*
X106414971Y-128061419D01*
X107490979Y-129137426D01*
X107362537Y-129223249D01*
X107223249Y-129362537D01*
X107137426Y-129490978D01*
X106064286Y-128417838D01*
X106064285Y-128417838D01*
X105973459Y-128527629D01*
X105973457Y-128527632D01*
X105804903Y-128793232D01*
X105804900Y-128793238D01*
X105670965Y-129077862D01*
X105670963Y-129077867D01*
X105573755Y-129377041D01*
X105514808Y-129686050D01*
X105514807Y-129686057D01*
X105495057Y-129999994D01*
X105495057Y-130000005D01*
X97012500Y-130000005D01*
X97012500Y-124812543D01*
X108394499Y-124812543D01*
X108432947Y-125005829D01*
X108432950Y-125005839D01*
X108508364Y-125187907D01*
X108508371Y-125187920D01*
X108617860Y-125351781D01*
X108617863Y-125351785D01*
X108757214Y-125491136D01*
X108757218Y-125491139D01*
X108921079Y-125600628D01*
X108921092Y-125600635D01*
X109103160Y-125676049D01*
X109103165Y-125676051D01*
X109103169Y-125676051D01*
X109103170Y-125676052D01*
X109296456Y-125714500D01*
X109296459Y-125714500D01*
X111731543Y-125714500D01*
X111861582Y-125688632D01*
X111924835Y-125676051D01*
X112106914Y-125600632D01*
X112270782Y-125491139D01*
X112410139Y-125351782D01*
X112519632Y-125187914D01*
X112595051Y-125005835D01*
X112633500Y-124812541D01*
X112633500Y-65179459D01*
X112633500Y-65179456D01*
X112595052Y-64986170D01*
X112595051Y-64986169D01*
X112595051Y-64986165D01*
X112595049Y-64986160D01*
X112519635Y-64804092D01*
X112519628Y-64804079D01*
X112410139Y-64640218D01*
X112410136Y-64640214D01*
X112270785Y-64500863D01*
X112270781Y-64500860D01*
X112106920Y-64391371D01*
X112106907Y-64391364D01*
X111924839Y-64315950D01*
X111924829Y-64315947D01*
X111731543Y-64277500D01*
X111731541Y-64277500D01*
X109493541Y-64277500D01*
X109296459Y-64277500D01*
X109296457Y-64277500D01*
X109103170Y-64315947D01*
X109103160Y-64315950D01*
X108921092Y-64391364D01*
X108921079Y-64391371D01*
X108757218Y-64500860D01*
X108757214Y-64500863D01*
X108617863Y-64640214D01*
X108617860Y-64640218D01*
X108508371Y-64804079D01*
X108508364Y-64804092D01*
X108432950Y-64986160D01*
X108432947Y-64986170D01*
X108394500Y-65179456D01*
X108394500Y-65179459D01*
X108394500Y-124812541D01*
X108394500Y-124812543D01*
X108394499Y-124812543D01*
X97012500Y-124812543D01*
X97012500Y-60000005D01*
X105494556Y-60000005D01*
X105514310Y-60314004D01*
X105514311Y-60314011D01*
X105573270Y-60623083D01*
X105670497Y-60922316D01*
X105670499Y-60922321D01*
X105804461Y-61207003D01*
X105804464Y-61207009D01*
X105973051Y-61472661D01*
X105973054Y-61472665D01*
X106173606Y-61715090D01*
X106173608Y-61715092D01*
X106402968Y-61930476D01*
X106402978Y-61930484D01*
X106657504Y-62115408D01*
X106657509Y-62115410D01*
X106657516Y-62115416D01*
X106933234Y-62266994D01*
X106933239Y-62266996D01*
X106933241Y-62266997D01*
X106933242Y-62266998D01*
X107225771Y-62382818D01*
X107225774Y-62382819D01*
X107530523Y-62461065D01*
X107530527Y-62461066D01*
X107596010Y-62469338D01*
X107842670Y-62500499D01*
X107842679Y-62500499D01*
X107842682Y-62500500D01*
X107842684Y-62500500D01*
X108157316Y-62500500D01*
X108157318Y-62500500D01*
X108157321Y-62500499D01*
X108157329Y-62500499D01*
X108343593Y-62476968D01*
X108469473Y-62461066D01*
X108774225Y-62382819D01*
X108774228Y-62382818D01*
X109066757Y-62266998D01*
X109066758Y-62266997D01*
X109066756Y-62266997D01*
X109066766Y-62266994D01*
X109342484Y-62115416D01*
X109597030Y-61930478D01*
X109826390Y-61715094D01*
X110026947Y-61472663D01*
X110195537Y-61207007D01*
X110329503Y-60922315D01*
X110426731Y-60623079D01*
X110485688Y-60314015D01*
X110505444Y-60000000D01*
X110485688Y-59685985D01*
X110426731Y-59376921D01*
X110329503Y-59077685D01*
X110195537Y-58792993D01*
X110026947Y-58527337D01*
X110026945Y-58527334D01*
X109826393Y-58284909D01*
X109826391Y-58284907D01*
X109597031Y-58069523D01*
X109597021Y-58069515D01*
X109342495Y-57884591D01*
X109342488Y-57884586D01*
X109342484Y-57884584D01*
X109066766Y-57733006D01*
X109066763Y-57733004D01*
X109066758Y-57733002D01*
X109066757Y-57733001D01*
X108774228Y-57617181D01*
X108774225Y-57617180D01*
X108469476Y-57538934D01*
X108469463Y-57538932D01*
X108157329Y-57499500D01*
X108157318Y-57499500D01*
X107842682Y-57499500D01*
X107842670Y-57499500D01*
X107530536Y-57538932D01*
X107530523Y-57538934D01*
X107225774Y-57617180D01*
X107225771Y-57617181D01*
X106933242Y-57733001D01*
X106933241Y-57733002D01*
X106657516Y-57884584D01*
X106657504Y-57884591D01*
X106402978Y-58069515D01*
X106402968Y-58069523D01*
X106173608Y-58284907D01*
X106173606Y-58284909D01*
X105973054Y-58527334D01*
X105973051Y-58527338D01*
X105804464Y-58792990D01*
X105804461Y-58792996D01*
X105670499Y-59077678D01*
X105670497Y-59077683D01*
X105573270Y-59376916D01*
X105514311Y-59685988D01*
X105514310Y-59685995D01*
X105494556Y-59999994D01*
X105494556Y-60000005D01*
X97012500Y-60000005D01*
X97012500Y-56531452D01*
X97031801Y-56465012D01*
X97195537Y-56207007D01*
X97329503Y-55922315D01*
X97426731Y-55623079D01*
X97485688Y-55314015D01*
X97505444Y-55000000D01*
X97485688Y-54685985D01*
X97426731Y-54376921D01*
X97329503Y-54077685D01*
X97195537Y-53792993D01*
X97026947Y-53527337D01*
X97026945Y-53527334D01*
X96826393Y-53284909D01*
X96826391Y-53284907D01*
X96597031Y-53069523D01*
X96597021Y-53069515D01*
X96342495Y-52884591D01*
X96342488Y-52884586D01*
X96342484Y-52884584D01*
X96066766Y-52733006D01*
X96066763Y-52733004D01*
X96066758Y-52733002D01*
X96066757Y-52733001D01*
X95774228Y-52617181D01*
X95774225Y-52617180D01*
X95469476Y-52538934D01*
X95469463Y-52538932D01*
X95157329Y-52499500D01*
X95157318Y-52499500D01*
X94842682Y-52499500D01*
X94842670Y-52499500D01*
X94530536Y-52538932D01*
X94530523Y-52538934D01*
X94225774Y-52617180D01*
X94225771Y-52617181D01*
X93933242Y-52733001D01*
X93933241Y-52733002D01*
X93657516Y-52884584D01*
X93657504Y-52884591D01*
X93402978Y-53069515D01*
X93402968Y-53069523D01*
X93173608Y-53284907D01*
X93173606Y-53284909D01*
X92973054Y-53527334D01*
X92973051Y-53527338D01*
X92804464Y-53792990D01*
X92804461Y-53792996D01*
X92670499Y-54077678D01*
X92670497Y-54077683D01*
X92573270Y-54376916D01*
X92514311Y-54685988D01*
X92514310Y-54685995D01*
X92494556Y-54999994D01*
X92494556Y-55000005D01*
X92514310Y-55314004D01*
X92514311Y-55314011D01*
X92573270Y-55623083D01*
X92670497Y-55922316D01*
X92670499Y-55922321D01*
X92804461Y-56207003D01*
X92804464Y-56207009D01*
X92973051Y-56472661D01*
X92973054Y-56472665D01*
X93173606Y-56715090D01*
X93173608Y-56715092D01*
X93402968Y-56930476D01*
X93402978Y-56930484D01*
X93657504Y-57115408D01*
X93657509Y-57115410D01*
X93657516Y-57115416D01*
X93933234Y-57266994D01*
X93933239Y-57266996D01*
X93933241Y-57266997D01*
X93933242Y-57266998D01*
X94225771Y-57382818D01*
X94225774Y-57382819D01*
X94530523Y-57461065D01*
X94530527Y-57461066D01*
X94596010Y-57469338D01*
X94842670Y-57500499D01*
X94842679Y-57500499D01*
X94842682Y-57500500D01*
X94887500Y-57500500D01*
X94954539Y-57520185D01*
X95000294Y-57572989D01*
X95011500Y-57624500D01*
X95011500Y-132375500D01*
X94991815Y-132442539D01*
X94939011Y-132488294D01*
X94887500Y-132499500D01*
X94842670Y-132499500D01*
X94530536Y-132538932D01*
X94530523Y-132538934D01*
X94225774Y-132617180D01*
X94225771Y-132617181D01*
X93933242Y-132733001D01*
X93933241Y-132733002D01*
X93657516Y-132884584D01*
X93657504Y-132884591D01*
X93402978Y-133069515D01*
X93402968Y-133069523D01*
X93173608Y-133284907D01*
X93173606Y-133284909D01*
X92973054Y-133527334D01*
X92973051Y-133527338D01*
X92804464Y-133792990D01*
X92804461Y-133792996D01*
X92670499Y-134077678D01*
X92670497Y-134077683D01*
X92573270Y-134376916D01*
X92514311Y-134685988D01*
X92514310Y-134685995D01*
X92494556Y-134999994D01*
X92494556Y-135000005D01*
X76184500Y-135000005D01*
X76184500Y-130000005D01*
X87495057Y-130000005D01*
X87514807Y-130313942D01*
X87514808Y-130313949D01*
X87573755Y-130622958D01*
X87670963Y-130922132D01*
X87670965Y-130922137D01*
X87804900Y-131206761D01*
X87804903Y-131206767D01*
X87973457Y-131472367D01*
X87973460Y-131472371D01*
X88064286Y-131582160D01*
X89137426Y-130509020D01*
X89223249Y-130637463D01*
X89362537Y-130776751D01*
X89490978Y-130862573D01*
X88414971Y-131938579D01*
X88414972Y-131938581D01*
X88657772Y-132114985D01*
X88657790Y-132114996D01*
X88933447Y-132266540D01*
X88933455Y-132266544D01*
X89225926Y-132382340D01*
X89530620Y-132460573D01*
X89530629Y-132460575D01*
X89842701Y-132499999D01*
X89842715Y-132500000D01*
X90157285Y-132500000D01*
X90157298Y-132499999D01*
X90469370Y-132460575D01*
X90469379Y-132460573D01*
X90774073Y-132382340D01*
X91066544Y-132266544D01*
X91066552Y-132266540D01*
X91342209Y-132114996D01*
X91342219Y-132114990D01*
X91585026Y-131938579D01*
X91585027Y-131938579D01*
X90509020Y-130862573D01*
X90637463Y-130776751D01*
X90776751Y-130637463D01*
X90862573Y-130509020D01*
X91935712Y-131582160D01*
X92026544Y-131472364D01*
X92195096Y-131206767D01*
X92195099Y-131206761D01*
X92329034Y-130922137D01*
X92329036Y-130922132D01*
X92426244Y-130622958D01*
X92485191Y-130313949D01*
X92485192Y-130313942D01*
X92504943Y-130000005D01*
X92504943Y-129999994D01*
X92485192Y-129686057D01*
X92485191Y-129686050D01*
X92426244Y-129377041D01*
X92329036Y-129077867D01*
X92329034Y-129077862D01*
X92195099Y-128793238D01*
X92195096Y-128793232D01*
X92026542Y-128527632D01*
X92026539Y-128527628D01*
X91935712Y-128417838D01*
X90862573Y-129490978D01*
X90776751Y-129362537D01*
X90637463Y-129223249D01*
X90509020Y-129137426D01*
X91585027Y-128061419D01*
X91585026Y-128061417D01*
X91342227Y-127885014D01*
X91342209Y-127885003D01*
X91066552Y-127733459D01*
X91066544Y-127733455D01*
X90774073Y-127617659D01*
X90469379Y-127539426D01*
X90469370Y-127539424D01*
X90157298Y-127500000D01*
X89842701Y-127500000D01*
X89530629Y-127539424D01*
X89530620Y-127539426D01*
X89225926Y-127617659D01*
X88933455Y-127733455D01*
X88933447Y-127733459D01*
X88657787Y-127885004D01*
X88657782Y-127885007D01*
X88414972Y-128061418D01*
X88414971Y-128061419D01*
X89490979Y-129137426D01*
X89362537Y-129223249D01*
X89223249Y-129362537D01*
X89137426Y-129490978D01*
X88064286Y-128417838D01*
X88064285Y-128417838D01*
X87973459Y-128527629D01*
X87973457Y-128527632D01*
X87804903Y-128793232D01*
X87804900Y-128793238D01*
X87670965Y-129077862D01*
X87670963Y-129077867D01*
X87573755Y-129377041D01*
X87514808Y-129686050D01*
X87514807Y-129686057D01*
X87495057Y-129999994D01*
X87495057Y-130000005D01*
X76184500Y-130000005D01*
X76184500Y-124812543D01*
X90360499Y-124812543D01*
X90398947Y-125005829D01*
X90398950Y-125005839D01*
X90474364Y-125187907D01*
X90474371Y-125187920D01*
X90583860Y-125351781D01*
X90583863Y-125351785D01*
X90723214Y-125491136D01*
X90723218Y-125491139D01*
X90887079Y-125600628D01*
X90887092Y-125600635D01*
X91069160Y-125676049D01*
X91069165Y-125676051D01*
X91069169Y-125676051D01*
X91069170Y-125676052D01*
X91262456Y-125714500D01*
X91262459Y-125714500D01*
X93697543Y-125714500D01*
X93827582Y-125688632D01*
X93890835Y-125676051D01*
X94072914Y-125600632D01*
X94236782Y-125491139D01*
X94376139Y-125351782D01*
X94485632Y-125187914D01*
X94561051Y-125005835D01*
X94599500Y-124812541D01*
X94599500Y-65179459D01*
X94599500Y-65179456D01*
X94561052Y-64986170D01*
X94561051Y-64986169D01*
X94561051Y-64986165D01*
X94561049Y-64986160D01*
X94485635Y-64804092D01*
X94485628Y-64804079D01*
X94376139Y-64640218D01*
X94376136Y-64640214D01*
X94236785Y-64500863D01*
X94236781Y-64500860D01*
X94072920Y-64391371D01*
X94072907Y-64391364D01*
X93890839Y-64315950D01*
X93890829Y-64315947D01*
X93697543Y-64277500D01*
X93697541Y-64277500D01*
X91459541Y-64277500D01*
X91262459Y-64277500D01*
X91262457Y-64277500D01*
X91069170Y-64315947D01*
X91069160Y-64315950D01*
X90887092Y-64391364D01*
X90887079Y-64391371D01*
X90723218Y-64500860D01*
X90723214Y-64500863D01*
X90583863Y-64640214D01*
X90583860Y-64640218D01*
X90474371Y-64804079D01*
X90474364Y-64804092D01*
X90398950Y-64986160D01*
X90398947Y-64986170D01*
X90360500Y-65179456D01*
X90360500Y-65179459D01*
X90360500Y-124812541D01*
X90360500Y-124812543D01*
X90360499Y-124812543D01*
X76184500Y-124812543D01*
X76184500Y-60000005D01*
X87494556Y-60000005D01*
X87514310Y-60314004D01*
X87514311Y-60314011D01*
X87573270Y-60623083D01*
X87670497Y-60922316D01*
X87670499Y-60922321D01*
X87804461Y-61207003D01*
X87804464Y-61207009D01*
X87973051Y-61472661D01*
X87973054Y-61472665D01*
X88173606Y-61715090D01*
X88173608Y-61715092D01*
X88402968Y-61930476D01*
X88402978Y-61930484D01*
X88657504Y-62115408D01*
X88657509Y-62115410D01*
X88657516Y-62115416D01*
X88933234Y-62266994D01*
X88933239Y-62266996D01*
X88933241Y-62266997D01*
X88933242Y-62266998D01*
X89225771Y-62382818D01*
X89225774Y-62382819D01*
X89530523Y-62461065D01*
X89530527Y-62461066D01*
X89596010Y-62469338D01*
X89842670Y-62500499D01*
X89842679Y-62500499D01*
X89842682Y-62500500D01*
X89842684Y-62500500D01*
X90157316Y-62500500D01*
X90157318Y-62500500D01*
X90157321Y-62500499D01*
X90157329Y-62500499D01*
X90343593Y-62476968D01*
X90469473Y-62461066D01*
X90774225Y-62382819D01*
X90774228Y-62382818D01*
X91066757Y-62266998D01*
X91066758Y-62266997D01*
X91066756Y-62266997D01*
X91066766Y-62266994D01*
X91342484Y-62115416D01*
X91597030Y-61930478D01*
X91826390Y-61715094D01*
X92026947Y-61472663D01*
X92195537Y-61207007D01*
X92329503Y-60922315D01*
X92426731Y-60623079D01*
X92485688Y-60314015D01*
X92505444Y-60000000D01*
X92485688Y-59685985D01*
X92426731Y-59376921D01*
X92329503Y-59077685D01*
X92195537Y-58792993D01*
X92026947Y-58527337D01*
X92026945Y-58527334D01*
X91826393Y-58284909D01*
X91826391Y-58284907D01*
X91597031Y-58069523D01*
X91597021Y-58069515D01*
X91342495Y-57884591D01*
X91342488Y-57884586D01*
X91342484Y-57884584D01*
X91066766Y-57733006D01*
X91066763Y-57733004D01*
X91066758Y-57733002D01*
X91066757Y-57733001D01*
X90774228Y-57617181D01*
X90774225Y-57617180D01*
X90469476Y-57538934D01*
X90469463Y-57538932D01*
X90157329Y-57499500D01*
X90157318Y-57499500D01*
X89842682Y-57499500D01*
X89842670Y-57499500D01*
X89530536Y-57538932D01*
X89530523Y-57538934D01*
X89225774Y-57617180D01*
X89225771Y-57617181D01*
X88933242Y-57733001D01*
X88933241Y-57733002D01*
X88657516Y-57884584D01*
X88657504Y-57884591D01*
X88402978Y-58069515D01*
X88402968Y-58069523D01*
X88173608Y-58284907D01*
X88173606Y-58284909D01*
X87973054Y-58527334D01*
X87973051Y-58527338D01*
X87804464Y-58792990D01*
X87804461Y-58792996D01*
X87670499Y-59077678D01*
X87670497Y-59077683D01*
X87573270Y-59376916D01*
X87514311Y-59685988D01*
X87514310Y-59685995D01*
X87494556Y-59999994D01*
X87494556Y-60000005D01*
X76184500Y-60000005D01*
X76184500Y-50121288D01*
X78149500Y-50121288D01*
X78181161Y-50361785D01*
X78243947Y-50596104D01*
X78336773Y-50820205D01*
X78336776Y-50820212D01*
X78458064Y-51030289D01*
X78458066Y-51030292D01*
X78458067Y-51030293D01*
X78605733Y-51222736D01*
X78605739Y-51222743D01*
X78777256Y-51394260D01*
X78777262Y-51394265D01*
X78969711Y-51541936D01*
X79179788Y-51663224D01*
X79403900Y-51756054D01*
X79638211Y-51818838D01*
X79818586Y-51842584D01*
X79878711Y-51850500D01*
X79878712Y-51850500D01*
X80121289Y-51850500D01*
X80169388Y-51844167D01*
X80361789Y-51818838D01*
X80596100Y-51756054D01*
X80820212Y-51663224D01*
X81030289Y-51541936D01*
X81222738Y-51394265D01*
X81394265Y-51222738D01*
X81541936Y-51030289D01*
X81663224Y-50820212D01*
X81756054Y-50596100D01*
X81818838Y-50361789D01*
X81850500Y-50121288D01*
X211149500Y-50121288D01*
X211181161Y-50361785D01*
X211243947Y-50596104D01*
X211336773Y-50820205D01*
X211336776Y-50820212D01*
X211458064Y-51030289D01*
X211458066Y-51030292D01*
X211458067Y-51030293D01*
X211605733Y-51222736D01*
X211605739Y-51222743D01*
X211777256Y-51394260D01*
X211777262Y-51394265D01*
X211969711Y-51541936D01*
X212179788Y-51663224D01*
X212403900Y-51756054D01*
X212638211Y-51818838D01*
X212818586Y-51842584D01*
X212878711Y-51850500D01*
X212878712Y-51850500D01*
X213121289Y-51850500D01*
X213169388Y-51844167D01*
X213361789Y-51818838D01*
X213596100Y-51756054D01*
X213820212Y-51663224D01*
X214030289Y-51541936D01*
X214222738Y-51394265D01*
X214394265Y-51222738D01*
X214541936Y-51030289D01*
X214663224Y-50820212D01*
X214756054Y-50596100D01*
X214818838Y-50361789D01*
X214850500Y-50121288D01*
X214850500Y-49878712D01*
X214818838Y-49638211D01*
X214756054Y-49403900D01*
X214663224Y-49179788D01*
X214541936Y-48969711D01*
X214394265Y-48777262D01*
X214394260Y-48777256D01*
X214222743Y-48605739D01*
X214222736Y-48605733D01*
X214030293Y-48458067D01*
X214030292Y-48458066D01*
X214030289Y-48458064D01*
X213820212Y-48336776D01*
X213820205Y-48336773D01*
X213596104Y-48243947D01*
X213361785Y-48181161D01*
X213121289Y-48149500D01*
X213121288Y-48149500D01*
X212878712Y-48149500D01*
X212878711Y-48149500D01*
X212638214Y-48181161D01*
X212403895Y-48243947D01*
X212179794Y-48336773D01*
X212179785Y-48336777D01*
X211969706Y-48458067D01*
X211777263Y-48605733D01*
X211777256Y-48605739D01*
X211605739Y-48777256D01*
X211605733Y-48777263D01*
X211458067Y-48969706D01*
X211336777Y-49179785D01*
X211336773Y-49179794D01*
X211243947Y-49403895D01*
X211181161Y-49638214D01*
X211149500Y-49878711D01*
X211149500Y-50121288D01*
X81850500Y-50121288D01*
X81850500Y-49878712D01*
X81818838Y-49638211D01*
X81756054Y-49403900D01*
X81663224Y-49179788D01*
X81541936Y-48969711D01*
X81394265Y-48777262D01*
X81394260Y-48777256D01*
X81222743Y-48605739D01*
X81222736Y-48605733D01*
X81030293Y-48458067D01*
X81030292Y-48458066D01*
X81030289Y-48458064D01*
X80820212Y-48336776D01*
X80820205Y-48336773D01*
X80596104Y-48243947D01*
X80361785Y-48181161D01*
X80121289Y-48149500D01*
X80121288Y-48149500D01*
X79878712Y-48149500D01*
X79878711Y-48149500D01*
X79638214Y-48181161D01*
X79403895Y-48243947D01*
X79179794Y-48336773D01*
X79179785Y-48336777D01*
X78969706Y-48458067D01*
X78777263Y-48605733D01*
X78777256Y-48605739D01*
X78605739Y-48777256D01*
X78605733Y-48777263D01*
X78458067Y-48969706D01*
X78336777Y-49179785D01*
X78336773Y-49179794D01*
X78243947Y-49403895D01*
X78181161Y-49638214D01*
X78149500Y-49878711D01*
X78149500Y-50121288D01*
X76184500Y-50121288D01*
X76184500Y-46590500D01*
X76204185Y-46523461D01*
X76256989Y-46477706D01*
X76308500Y-46466500D01*
X216553500Y-46466500D01*
X216620539Y-46486185D01*
G37*
G04 #@! TD.AperFunction*
M02*
