  0
SECTION
  2
HEADER
  9
$ANGBASE
  50
0.0
  9
$ANGDIR
  70
1
  9
$MEASUREMENT
  70
1
  0
ENDSEC
  0
SECTION
  2
TABLES
  0
TABLE
  2
LTYPE
  70
4
  0
LTYPE
  5
40F
  2
CONTINUOUS
  70
0
  3
Solid line
  72
65
  73
0
  40
0.0
  0
LTYPE
  5
410
  2
DASHDOT
 70
0
  3
Dash Dot ____ _ ____ _
 72
65
 73
4
 40
2.0
 49
1.25
 49
-0.25
 49
0.25
 49
-0.25
  0
LTYPE
  5
411
  2
DASHED
 70
0
  3
Dashed __ __ __ __ __
 72
65
 73
2
 40
0.75
 49
0.5
 49
-0.25
  0
LTYPE
  5
43B
  2
DOTTED
 70
0
  3
Dotted .  .  .  .
 72
65
 73
2
 40
0.2
 49
0.0
 49
-0.2
  0
ENDTAB
  0
TABLE
  2
STYLE
  70
4
  0
STYLE
  2
KICAD
  70
0
  40
0
  41
1
  42
1
  50
0
  71
0
  3
isocp.shx
  0
STYLE
  2
KICADB
  70
0
  40
0
  41
1
  42
1
  50
0
  71
0
  3
isocp.shx
  0
STYLE
  2
KICADI
  70
0
  40
0
  41
1
  42
1
  50
15
  71
0
  3
isocp.shx
  0
STYLE
  2
KICADBI
  70
0
  40
0
  41
1
  42
1
  50
15
  71
0
  3
isocp.shx
  0
ENDTAB
  0
TABLE
  2
LAYER
  70
1
  0
LAYER
  2
BLACK
  70
0
  62
7
  6
CONTINUOUS
  0
ENDTAB
  0
ENDSEC
  0
SECTION
  2
ENTITIES
0
LINE
8
BLACK
6
CONTINUOUS
10
93.6181339999999977
20
-65.2318059999999917
11
93.6451939999999894
21
-65.2588659999999976
0
LINE
8
BLACK
6
CONTINUOUS
10
93.6451939999999894
20
-65.2588659999999976
11
93.6490000000000009
21
-124.7139999999999986
0
LINE
8
BLACK
6
CONTINUOUS
10
93.6490000000000009
20
-124.7139999999999986
11
93.6451939999999894
21
-124.7331339999999926
0
LINE
8
BLACK
6
CONTINUOUS
10
93.6451939999999894
20
-124.7331339999999926
11
93.6181339999999977
21
-124.7601939999999985
0
LINE
8
BLACK
6
CONTINUOUS
10
93.6181339999999977
20
-124.7601939999999985
11
91.36099999999999
21
-124.7639999999999958
0
LINE
8
BLACK
6
CONTINUOUS
10
91.36099999999999
20
-124.7639999999999958
11
91.341865999999996
21
-124.7601939999999985
0
LINE
8
BLACK
6
CONTINUOUS
10
91.341865999999996
20
-124.7601939999999985
11
91.3148059999999901
21
-124.7331339999999926
0
LINE
8
BLACK
6
CONTINUOUS
10
91.3148059999999901
20
-124.7331339999999926
11
91.3109999999999928
21
-65.2779999999999916
0
LINE
8
BLACK
6
CONTINUOUS
10
91.3109999999999928
20
-65.2779999999999916
11
91.3148059999999901
21
-65.2588659999999976
0
LINE
8
BLACK
6
CONTINUOUS
10
91.3148059999999901
20
-65.2588659999999976
11
91.341865999999996
21
-65.2318059999999917
0
LINE
8
BLACK
6
CONTINUOUS
10
91.341865999999996
20
-65.2318059999999917
11
93.5989999999999895
21
-65.2279999999999944
0
LINE
8
BLACK
6
CONTINUOUS
10
93.5989999999999895
20
-65.2279999999999944
11
93.6181339999999977
21
-65.2318059999999917
0
LINE
8
BLACK
6
CONTINUOUS
10
91.407197999999994
20
-65.3279220000000009
11
91.4109969999999947
21
-124.6676889999999958
0
LINE
8
BLACK
6
CONTINUOUS
10
91.4109969999999947
20
-124.6676889999999958
11
93.5528010000000023
21
-124.6640769999999918
0
LINE
8
BLACK
6
CONTINUOUS
10
93.5528010000000023
20
-124.6640769999999918
11
93.5490020000000015
21
-65.324309999999997
0
LINE
8
BLACK
6
CONTINUOUS
10
93.5490020000000015
20
-65.324309999999997
11
91.407197999999994
21
-65.3279220000000009
0
LINE
8
BLACK
6
CONTINUOUS
10
111.6521339999999896
20
-65.2318059999999917
11
111.6791939999999954
21
-65.2588659999999976
0
LINE
8
BLACK
6
CONTINUOUS
10
111.6791939999999954
20
-65.2588659999999976
11
111.6829999999999927
21
-124.7139999999999986
0
LINE
8
BLACK
6
CONTINUOUS
10
111.6829999999999927
20
-124.7139999999999986
11
111.6791939999999954
21
-124.7331339999999926
0
LINE
8
BLACK
6
CONTINUOUS
10
111.6791939999999954
20
-124.7331339999999926
11
111.6521339999999896
21
-124.7601939999999985
0
LINE
8
BLACK
6
CONTINUOUS
10
111.6521339999999896
20
-124.7601939999999985
11
109.394999999999996
21
-124.7639999999999958
0
LINE
8
BLACK
6
CONTINUOUS
10
109.394999999999996
20
-124.7639999999999958
11
109.375866000000002
21
-124.7601939999999985
0
LINE
8
BLACK
6
CONTINUOUS
10
109.375866000000002
20
-124.7601939999999985
11
109.3488059999999962
21
-124.7331339999999926
0
LINE
8
BLACK
6
CONTINUOUS
10
109.3488059999999962
20
-124.7331339999999926
11
109.3449999999999989
21
-65.2779999999999916
0
LINE
8
BLACK
6
CONTINUOUS
10
109.3449999999999989
20
-65.2779999999999916
11
109.3488059999999962
21
-65.2588659999999976
0
LINE
8
BLACK
6
CONTINUOUS
10
109.3488059999999962
20
-65.2588659999999976
11
109.375866000000002
21
-65.2318059999999917
0
LINE
8
BLACK
6
CONTINUOUS
10
109.375866000000002
20
-65.2318059999999917
11
111.6329999999999956
21
-65.2279999999999944
0
LINE
8
BLACK
6
CONTINUOUS
10
111.6329999999999956
20
-65.2279999999999944
11
111.6521339999999896
21
-65.2318059999999917
0
LINE
8
BLACK
6
CONTINUOUS
10
109.441198
20
-65.3279220000000009
11
109.4449970000000008
21
-124.6676889999999958
0
LINE
8
BLACK
6
CONTINUOUS
10
109.4449970000000008
20
-124.6676889999999958
11
111.5868009999999941
21
-124.6640769999999918
0
LINE
8
BLACK
6
CONTINUOUS
10
111.5868009999999941
20
-124.6640769999999918
11
111.5830019999999934
21
-65.324309999999997
0
LINE
8
BLACK
6
CONTINUOUS
10
111.5830019999999934
20
-65.324309999999997
11
109.441198
21
-65.3279220000000009
0
LINE
8
BLACK
6
CONTINUOUS
10
129.6861339999999814
20
-65.2318059999999917
11
129.7131939999999872
21
-65.2588659999999976
0
LINE
8
BLACK
6
CONTINUOUS
10
129.7131939999999872
20
-65.2588659999999976
11
129.7169999999999845
21
-124.7139999999999986
0
LINE
8
BLACK
6
CONTINUOUS
10
129.7169999999999845
20
-124.7139999999999986
11
129.7131939999999872
21
-124.7331339999999926
0
LINE
8
BLACK
6
CONTINUOUS
10
129.7131939999999872
20
-124.7331339999999926
11
129.6861339999999814
21
-124.7601939999999985
0
LINE
8
BLACK
6
CONTINUOUS
10
129.6861339999999814
20
-124.7601939999999985
11
127.4289999999999878
21
-124.7639999999999958
0
LINE
8
BLACK
6
CONTINUOUS
10
127.4289999999999878
20
-124.7639999999999958
11
127.4098659999999938
21
-124.7601939999999985
0
LINE
8
BLACK
6
CONTINUOUS
10
127.4098659999999938
20
-124.7601939999999985
11
127.382805999999988
21
-124.7331339999999926
0
LINE
8
BLACK
6
CONTINUOUS
10
127.382805999999988
20
-124.7331339999999926
11
127.3789999999999907
21
-65.2779999999999916
0
LINE
8
BLACK
6
CONTINUOUS
10
127.3789999999999907
20
-65.2779999999999916
11
127.382805999999988
21
-65.2588659999999976
0
LINE
8
BLACK
6
CONTINUOUS
10
127.382805999999988
20
-65.2588659999999976
11
127.4098659999999938
21
-65.2318059999999917
0
LINE
8
BLACK
6
CONTINUOUS
10
127.4098659999999938
20
-65.2318059999999917
11
129.6670000000000016
21
-65.2279999999999944
0
LINE
8
BLACK
6
CONTINUOUS
10
129.6670000000000016
20
-65.2279999999999944
11
129.6861339999999814
21
-65.2318059999999917
0
LINE
8
BLACK
6
CONTINUOUS
10
127.4751979999999918
20
-65.3279220000000009
11
127.4789969999999926
21
-124.6676889999999958
0
LINE
8
BLACK
6
CONTINUOUS
10
127.4789969999999926
20
-124.6676889999999958
11
129.6208010000000002
21
-124.6640769999999918
0
LINE
8
BLACK
6
CONTINUOUS
10
129.6208010000000002
20
-124.6640769999999918
11
129.6170019999999852
21
-65.324309999999997
0
LINE
8
BLACK
6
CONTINUOUS
10
129.6170019999999852
20
-65.324309999999997
11
127.4751979999999918
21
-65.3279220000000009
0
LINE
8
BLACK
6
CONTINUOUS
10
147.5931339999999921
20
-65.2318059999999917
11
147.6201939999999979
21
-65.2588659999999976
0
LINE
8
BLACK
6
CONTINUOUS
10
147.6201939999999979
20
-65.2588659999999976
11
147.6239999999999952
21
-124.7139999999999986
0
LINE
8
BLACK
6
CONTINUOUS
10
147.6239999999999952
20
-124.7139999999999986
11
147.6201939999999979
21
-124.7331339999999926
0
LINE
8
BLACK
6
CONTINUOUS
10
147.6201939999999979
20
-124.7331339999999926
11
147.5931339999999921
21
-124.7601939999999985
0
LINE
8
BLACK
6
CONTINUOUS
10
147.5931339999999921
20
-124.7601939999999985
11
145.3359999999999843
21
-124.7639999999999958
0
LINE
8
BLACK
6
CONTINUOUS
10
145.3359999999999843
20
-124.7639999999999958
11
145.3168660000000045
21
-124.7601939999999985
0
LINE
8
BLACK
6
CONTINUOUS
10
145.3168660000000045
20
-124.7601939999999985
11
145.2898059999999987
21
-124.7331339999999926
0
LINE
8
BLACK
6
CONTINUOUS
10
145.2898059999999987
20
-124.7331339999999926
11
145.2860000000000014
21
-65.2779999999999916
0
LINE
8
BLACK
6
CONTINUOUS
10
145.2860000000000014
20
-65.2779999999999916
11
145.2898059999999987
21
-65.2588659999999976
0
LINE
8
BLACK
6
CONTINUOUS
10
145.2898059999999987
20
-65.2588659999999976
11
145.3168660000000045
21
-65.2318059999999917
0
LINE
8
BLACK
6
CONTINUOUS
10
145.3168660000000045
20
-65.2318059999999917
11
147.5739999999999839
21
-65.2279999999999944
0
LINE
8
BLACK
6
CONTINUOUS
10
147.5739999999999839
20
-65.2279999999999944
11
147.5931339999999921
21
-65.2318059999999917
0
LINE
8
BLACK
6
CONTINUOUS
10
145.3821979999999883
20
-65.3279220000000009
11
145.3859970000000033
21
-124.6676889999999958
0
LINE
8
BLACK
6
CONTINUOUS
10
145.3859970000000033
20
-124.6676889999999958
11
147.5278009999999824
21
-124.6640769999999918
0
LINE
8
BLACK
6
CONTINUOUS
10
147.5278009999999824
20
-124.6640769999999918
11
147.5240019999999959
21
-65.324309999999997
0
LINE
8
BLACK
6
CONTINUOUS
10
147.5240019999999959
20
-65.324309999999997
11
145.3821979999999883
21
-65.3279220000000009
0
LINE
8
BLACK
6
CONTINUOUS
10
184.1691339999999855
20
-65.2318059999999917
11
184.1961939999999913
21
-65.2588659999999976
0
LINE
8
BLACK
6
CONTINUOUS
10
184.1961939999999913
20
-65.2588659999999976
11
184.1999999999999886
21
-124.7139999999999986
0
LINE
8
BLACK
6
CONTINUOUS
10
184.1999999999999886
20
-124.7139999999999986
11
184.1961939999999913
21
-124.7331339999999926
0
LINE
8
BLACK
6
CONTINUOUS
10
184.1961939999999913
20
-124.7331339999999926
11
184.1691339999999855
21
-124.7601939999999985
0
LINE
8
BLACK
6
CONTINUOUS
10
184.1691339999999855
20
-124.7601939999999985
11
181.9119999999999777
21
-124.7639999999999958
0
LINE
8
BLACK
6
CONTINUOUS
10
181.9119999999999777
20
-124.7639999999999958
11
181.8928659999999979
21
-124.7601939999999985
0
LINE
8
BLACK
6
CONTINUOUS
10
181.8928659999999979
20
-124.7601939999999985
11
181.8658059999999921
21
-124.7331339999999926
0
LINE
8
BLACK
6
CONTINUOUS
10
181.8658059999999921
20
-124.7331339999999926
11
181.8619999999999948
21
-65.2779999999999916
0
LINE
8
BLACK
6
CONTINUOUS
10
181.8619999999999948
20
-65.2779999999999916
11
181.8658059999999921
21
-65.2588659999999976
0
LINE
8
BLACK
6
CONTINUOUS
10
181.8658059999999921
20
-65.2588659999999976
11
181.8928659999999979
21
-65.2318059999999917
0
LINE
8
BLACK
6
CONTINUOUS
10
181.8928659999999979
20
-65.2318059999999917
11
184.1500000000000057
21
-65.2279999999999944
0
LINE
8
BLACK
6
CONTINUOUS
10
184.1500000000000057
20
-65.2279999999999944
11
184.1691339999999855
21
-65.2318059999999917
0
LINE
8
BLACK
6
CONTINUOUS
10
181.9581979999999817
20
-65.3279220000000009
11
181.9619969999999967
21
-124.6676889999999958
0
LINE
8
BLACK
6
CONTINUOUS
10
181.9619969999999967
20
-124.6676889999999958
11
184.1038010000000043
21
-124.6640769999999918
0
LINE
8
BLACK
6
CONTINUOUS
10
184.1038010000000043
20
-124.6640769999999918
11
184.1000019999999893
21
-65.324309999999997
0
LINE
8
BLACK
6
CONTINUOUS
10
184.1000019999999893
20
-65.324309999999997
11
181.9581979999999817
21
-65.3279220000000009
0
LINE
8
BLACK
6
CONTINUOUS
10
202.1551340000000039
20
-65.2318059999999917
11
202.1821939999999813
21
-65.2588659999999976
0
LINE
8
BLACK
6
CONTINUOUS
10
202.1821939999999813
20
-65.2588659999999976
11
202.1859999999999786
21
-124.7139999999999986
0
LINE
8
BLACK
6
CONTINUOUS
10
202.1859999999999786
20
-124.7139999999999986
11
202.1821939999999813
21
-124.7331339999999926
0
LINE
8
BLACK
6
CONTINUOUS
10
202.1821939999999813
20
-124.7331339999999926
11
202.1551340000000039
21
-124.7601939999999985
0
LINE
8
BLACK
6
CONTINUOUS
10
202.1551340000000039
20
-124.7601939999999985
11
199.8979999999999961
21
-124.7639999999999958
0
LINE
8
BLACK
6
CONTINUOUS
10
199.8979999999999961
20
-124.7639999999999958
11
199.8788659999999879
21
-124.7601939999999985
0
LINE
8
BLACK
6
CONTINUOUS
10
199.8788659999999879
20
-124.7601939999999985
11
199.8518059999999821
21
-124.7331339999999926
0
LINE
8
BLACK
6
CONTINUOUS
10
199.8518059999999821
20
-124.7331339999999926
11
199.8479999999999848
21
-65.2779999999999916
0
LINE
8
BLACK
6
CONTINUOUS
10
199.8479999999999848
20
-65.2779999999999916
11
199.8518059999999821
21
-65.2588659999999976
0
LINE
8
BLACK
6
CONTINUOUS
10
199.8518059999999821
20
-65.2588659999999976
11
199.8788659999999879
21
-65.2318059999999917
0
LINE
8
BLACK
6
CONTINUOUS
10
199.8788659999999879
20
-65.2318059999999917
11
202.1359999999999957
21
-65.2279999999999944
0
LINE
8
BLACK
6
CONTINUOUS
10
202.1359999999999957
20
-65.2279999999999944
11
202.1551340000000039
21
-65.2318059999999917
0
LINE
8
BLACK
6
CONTINUOUS
10
199.9441980000000001
20
-65.3279220000000009
11
199.9479969999999867
21
-124.6676889999999958
0
LINE
8
BLACK
6
CONTINUOUS
10
199.9479969999999867
20
-124.6676889999999958
11
202.0898009999999942
21
-124.6640769999999918
0
LINE
8
BLACK
6
CONTINUOUS
10
202.0898009999999942
20
-124.6640769999999918
11
202.0860019999999793
21
-65.324309999999997
0
LINE
8
BLACK
6
CONTINUOUS
10
202.0860019999999793
20
-65.324309999999997
11
199.9441980000000001
21
-65.3279220000000009
0
LINE
8
BLACK
6
CONTINUOUS
10
217.697133999999977
20
-45.4198060000000012
11
217.7241939999999829
21
-45.446866
0
LINE
8
BLACK
6
CONTINUOUS
10
217.7241939999999829
20
-45.446866
11
217.7279999999999802
21
-144.7800000000000011
0
LINE
8
BLACK
6
CONTINUOUS
10
217.7279999999999802
20
-144.7800000000000011
11
217.7241939999999829
21
-144.7991339999999809
0
LINE
8
BLACK
6
CONTINUOUS
10
217.7241939999999829
20
-144.7991339999999809
11
217.697133999999977
21
-144.8261939999999868
0
LINE
8
BLACK
6
CONTINUOUS
10
217.697133999999977
20
-144.8261939999999868
11
75.1839999999999975
21
-144.8299999999999841
0
LINE
8
BLACK
6
CONTINUOUS
10
75.1839999999999975
20
-144.8299999999999841
11
75.1648660000000035
21
-144.8261939999999868
0
LINE
8
BLACK
6
CONTINUOUS
10
75.1648660000000035
20
-144.8261939999999868
11
75.1378059999999977
21
-144.7991339999999809
0
LINE
8
BLACK
6
CONTINUOUS
10
75.1378059999999977
20
-144.7991339999999809
11
75.1340000000000003
21
-45.4660000000000011
0
LINE
8
BLACK
6
CONTINUOUS
10
75.1340000000000003
20
-45.4660000000000011
11
75.1378059999999977
21
-45.446866
0
LINE
8
BLACK
6
CONTINUOUS
10
75.1378059999999977
20
-45.446866
11
75.1648660000000035
21
-45.4198060000000012
0
LINE
8
BLACK
6
CONTINUOUS
10
75.1648660000000035
20
-45.4198060000000012
11
217.6779999999999973
21
-45.4159999999999968
0
LINE
8
BLACK
6
CONTINUOUS
10
217.6779999999999973
20
-45.4159999999999968
11
217.697133999999977
21
-45.4198060000000012
0
LINE
8
BLACK
6
CONTINUOUS
10
75.2301959999999923
20
-45.5159979999999962
11
75.2339979999999997
21
-144.7338039999999921
0
LINE
8
BLACK
6
CONTINUOUS
10
75.2339979999999997
20
-144.7338039999999921
11
217.6318029999999908
21
-144.7300009999999872
0
LINE
8
BLACK
6
CONTINUOUS
10
217.6318029999999908
20
-144.7300009999999872
11
217.6280009999999834
21
-45.5121949999999984
0
LINE
8
BLACK
6
CONTINUOUS
10
217.6280009999999834
20
-45.5121949999999984
11
75.2301959999999923
21
-45.5159979999999962
  0
ENDSEC
  0
EOF
